<svg id="V_" data-name="V°" xmlns="http://www.w3.org/2000/svg" viewBox="0 0 155.91 80.9"><defs><style>.cls-1{fill:#004a50;}.cls-2{fill:#b07f50;}.cls-3{fill:#ee765f;}</style></defs><path class="cls-1" d="M287.31,267.51h0a4.44,4.44,0,0,0-1.9-1.39,3.77,3.77,0,0,0,1.4-1.29,3.45,3.45,0,0,0,.54-1.92,3.41,3.41,0,0,0-1.56-2.92,8,8,0,0,0-4.57-1.09h-8.09V274h8.51a8.58,8.58,0,0,0,4.75-1.09,3.53,3.53,0,0,0,1.67-3.12A3.67,3.67,0,0,0,287.31,267.51Zm-4.52,1.74c0,.73-.52,1.09-1.57,1.09h-3v-2.17h3c1,0,1.57.35,1.57,1.08h0Zm-4.52-4.6v-2h2.26a1.78,1.78,0,0,1,1.31.37.87.87,0,0,1,.24.65c0,.69-.5,1-1.55,1Z" transform="translate(-273.13 -207.28)"/><path class="cls-1" d="M294.59,258.91,288,274.05h5.33l1-2.61h5.55l1,2.61h5.42l-6.62-15.14Zm3.81,8.71h-2.63l1.32-3.4Z" transform="translate(-273.13 -207.28)"/><path class="cls-1" d="M314.85,262.83h0a4.21,4.21,0,0,1,3.28,1.61l.06.07,3.36-3-.06-.07a7.5,7.5,0,0,0-2.93-2.17,10.18,10.18,0,0,0-4-.74h0a9.57,9.57,0,0,0-4.4,1,7.51,7.51,0,0,0-3.05,2.81,8.24,8.24,0,0,0,0,8.19,7.47,7.47,0,0,0,3,2.81,9.26,9.26,0,0,0,4.34,1,12.64,12.64,0,0,0,3.46-.5,10.2,10.2,0,0,0,3.11-1.42l0,0V266h-4.57v3.81a4.64,4.64,0,0,1-1.74.33,3.35,3.35,0,0,1-2.53-1,4.22,4.22,0,0,1,0-5.32A3.49,3.49,0,0,1,314.85,262.83Z" transform="translate(-273.13 -207.28)"/><polygon class="cls-1" points="55.07 61 61.4 61 61.4 57.18 55.07 57.18 55.07 55.61 62.27 55.61 62.27 51.63 49.93 51.63 49.93 66.76 62.55 66.76 62.55 62.77 55.07 62.77 55.07 61"/><polygon class="cls-1" points="69.53 51.63 64.31 51.63 64.31 66.76 76.28 66.76 76.28 62.67 69.53 62.67 69.53 51.63"/><rect class="cls-1" x="77.48" y="51.63" width="5.23" height="15.14"/><path class="cls-1" d="M366.18,262.83a4,4,0,0,1,3.19,1.72l.06.08,3.32-3-.05-.07a7.27,7.27,0,0,0-2.85-2.24,9.48,9.48,0,0,0-3.93-.78h0a9.25,9.25,0,0,0-4.31,1,7.5,7.5,0,0,0-3,2.81,8.24,8.24,0,0,0,0,8.19,7.43,7.43,0,0,0,3,2.81,9.14,9.14,0,0,0,4.31,1h0a9.38,9.38,0,0,0,3.91-.78,7.25,7.25,0,0,0,2.86-2.25l.05-.07-3.32-3-.06.08a4,4,0,0,1-3.19,1.71,3.28,3.28,0,0,1-2.48-1,4.27,4.27,0,0,1,0-5.32A3.25,3.25,0,0,1,366.18,262.83Z" transform="translate(-273.13 -207.28)"/><rect class="cls-1" x="100.85" y="51.63" width="5.23" height="15.14"/><path class="cls-1" d="M393.77,259.59a9.28,9.28,0,0,0-4.38-1,9.39,9.39,0,0,0-4.38,1,7.8,7.8,0,0,0,0,13.79,9.28,9.28,0,0,0,4.38,1,9.39,9.39,0,0,0,4.38-1,7.75,7.75,0,0,0,0-13.79Zm-7.2,8.83a4.45,4.45,0,0,1,0-3.87,3.25,3.25,0,0,1,1.17-1.27,3.31,3.31,0,0,1,3.3,0,3.25,3.25,0,0,1,1.17,1.27,4.45,4.45,0,0,1,0,3.87,3.22,3.22,0,0,1-1.17,1.26l0,0a3.25,3.25,0,0,1-3.26,0A3.16,3.16,0,0,1,386.57,268.42Z" transform="translate(-273.13 -207.28)"/><path class="cls-1" d="M409.05,267.08a3.78,3.78,0,0,1-.57,2.33,1.94,1.94,0,0,1-1.62.71,2,2,0,0,1-1.63-.71,3.85,3.85,0,0,1-.56-2.33v-8.17h-5.23v8.32a7,7,0,0,0,1.95,5.27,7.53,7.53,0,0,0,5.43,1.89h0a7.45,7.45,0,0,0,5.39-1.88,7,7,0,0,0,1.95-5.28v-8.32h-5.14Z" transform="translate(-273.13 -207.28)"/><path class="cls-1" d="M428.15,266.63a5,5,0,0,0-2.08-1.38,20.57,20.57,0,0,0-2.9-.75,13.33,13.33,0,0,1-1.89-.47c-.34-.14-.51-.33-.51-.59,0-.56.62-.84,1.85-.84a9.22,9.22,0,0,1,4.12,1.1l.09.05,1.59-3.82-.08,0a9.13,9.13,0,0,0-2.64-1,13.49,13.49,0,0,0-3-.34h0a9.81,9.81,0,0,0-3.84.67,5.31,5.31,0,0,0-2.4,1.85,4.52,4.52,0,0,0-.8,2.62,3.81,3.81,0,0,0,.87,2.63,5,5,0,0,0,2,1.39,22.18,22.18,0,0,0,2.9.79,11.21,11.21,0,0,1,1.91.51c.36.14.53.34.53.61a.57.57,0,0,1-.39.53,3.92,3.92,0,0,1-1.46.19,8.92,8.92,0,0,1-2.51-.37,10,10,0,0,1-2.37-1l-.09-.05-1.7,3.84.07,0a9.94,9.94,0,0,0,2.92,1.13h0a15.69,15.69,0,0,0,3.61.42H422a9.75,9.75,0,0,0,3.83-.68,5.4,5.4,0,0,0,2.4-1.85,4.42,4.42,0,0,0,.81-2.6A3.74,3.74,0,0,0,428.15,266.63Z" transform="translate(-273.13 -207.28)"/><path class="cls-2" d="M366.08,231.84l-.11,0a4.64,4.64,0,0,1-3.6-.17,4.71,4.71,0,0,1-.62-8.19l.1-.06-.09-.08a15.09,15.09,0,1,0-10.6,25.84h.11a15.09,15.09,0,0,0,15-15.09,15.74,15.74,0,0,0-.17-2.17Zm-15,7a4.71,4.71,0,0,1-4.6-4.71,4.72,4.72,0,0,1,4.71-4.72h0a4.72,4.72,0,1,1,0,9.43Z" transform="translate(-273.13 -207.28)"/><path class="cls-3" d="M336.16,220.23h0a5.26,5.26,0,0,0,.89-.08l.06,0v-.06a3.78,3.78,0,0,0,.05-.67h0a4.91,4.91,0,0,0-4.9-4.9h0a4.6,4.6,0,0,0-.91.09h-.07v.07a5,5,0,0,0,0,.67A4.91,4.91,0,0,0,336.16,220.23Z" transform="translate(-273.13 -207.28)"/><path class="cls-3" d="M345.1,214.64a4.49,4.49,0,0,0,.82.41l.06,0,0-.05c.14-.18.28-.36.4-.55h0a4.91,4.91,0,0,0-1.54-6.76,4.83,4.83,0,0,0-.82-.41l-.06,0,0,.05a5.12,5.12,0,0,0-.4.55A4.91,4.91,0,0,0,345.1,214.64Z" transform="translate(-273.13 -207.28)"/><path class="cls-3" d="M356.26,215l0,0,.06,0a5.9,5.9,0,0,0,.63-.25h0a4.91,4.91,0,0,0,2.27-6.54,5.09,5.09,0,0,0-.48-.78l0-.06-.06,0a5.9,5.9,0,0,0-.63.25,4.91,4.91,0,0,0-2.27,6.55A4.84,4.84,0,0,0,356.26,215Z" transform="translate(-273.13 -207.28)"/><path class="cls-3" d="M370,218.19a4.86,4.86,0,0,0,.75-3.67v-.07h-.07a5,5,0,0,0-.67,0,4.91,4.91,0,0,0-4.89,4.91,4.6,4.6,0,0,0,.09.91v.07h.07a4.87,4.87,0,0,0,.66,0h0a4.68,4.68,0,0,0,.91-.09A4.87,4.87,0,0,0,370,218.19Z" transform="translate(-273.13 -207.28)"/><path class="cls-3" d="M333.19,224.56H322a10.52,10.52,0,0,0-2.85.37,7,7,0,0,0-2.17.95l-.12-.22V226c-.48.31-4.82,3.2-5.44,8.09s2.56,8.66,3,9.21l-3.25,3.18h11.16a13,13,0,0,0,5.24-1.31c2.42-1.22,5.39-3.85,5.73-9.44v-.1h-11.1Zm-4,15.84h0a1.54,1.54,0,0,1-1.79-1.17,1.5,1.5,0,0,1,.19-1.17,1.53,1.53,0,0,1,1-.69,1.47,1.47,0,0,1,.36,0,1.56,1.56,0,0,1,1.51,1.19,1.7,1.7,0,0,1,0,.71,1.53,1.53,0,0,1-1.16,1.15Zm-7-4.82H317v-9.2Z" transform="translate(-273.13 -207.28)"/><path class="cls-3" d="M387.75,243.23c.48-.55,3.63-4.42,3-9.21s-4.95-7.78-5.43-8.08v-.29l-.12.21a7,7,0,0,0-2.16-1,10.57,10.57,0,0,0-2.85-.37H369l11,11H368.86v.09c.34,5.59,3.3,8.22,5.73,9.44a13,13,0,0,0,5.23,1.31H391Zm-14.1-2.88a1.56,1.56,0,0,1-1.86-1.15v0h0a1.57,1.57,0,0,1,1.17-1.84,1.65,1.65,0,0,1,.7,0,1.55,1.55,0,0,1,0,3Zm11.51-14v9.2H380Z" transform="translate(-273.13 -207.28)"/><polygon class="cls-2" points="33.21 74.97 31.14 74.97 31.14 80.77 35.74 80.77 35.74 79.11 33.21 79.11 33.21 74.97"/><polygon class="cls-2" points="38.12 78.6 40.49 78.6 40.49 77.06 38.12 77.06 38.12 76.59 40.83 76.59 40.83 74.97 36.08 74.97 36.08 80.77 40.93 80.77 40.93 79.16 38.12 79.16 38.12 78.6"/><polygon class="cls-2" points="43.45 76.63 45.09 76.63 45.09 80.77 47.16 80.77 47.16 76.63 48.81 76.63 48.81 74.97 43.45 74.97 43.45 76.63"/><polygon class="cls-2" points="51.15 78.6 53.52 78.6 53.52 77.06 51.15 77.06 51.15 76.59 53.85 76.59 53.85 74.97 49.11 74.97 49.11 80.77 53.96 80.77 53.96 79.16 51.15 79.16 51.15 78.6"/><polygon class="cls-2" points="59.7 74.97 57.97 77.88 56.2 74.97 54.5 74.97 54.5 80.77 56.41 80.77 56.41 78.53 57.48 80.26 58.42 80.26 59.49 78.45 59.51 80.77 61.41 80.77 61.39 74.97 59.7 74.97"/><path class="cls-2" d="M339.45,282.52a3.45,3.45,0,0,0-1.38-.26h-2.8v5.79h2.08v-1.38h.71a3.47,3.47,0,0,0,1.39-.26,2,2,0,0,0,.94-.78,2.24,2.24,0,0,0,0-2.34A2.09,2.09,0,0,0,339.45,282.52Zm-1,2.35h0a.75.75,0,0,1-.51.15h-.6V283.9H338a.74.74,0,0,1,.5.15A.61.61,0,0,1,338.48,284.87Z" transform="translate(-273.13 -207.28)"/><polygon class="cls-2" points="70.08 74.97 68.01 74.97 68.01 80.77 72.61 80.77 72.61 79.11 70.08 79.11 70.08 74.97"/><polygon class="cls-2" points="74.99 78.6 77.36 78.6 77.36 77.06 74.99 77.06 74.99 76.59 77.69 76.59 77.69 74.97 72.95 74.97 72.95 80.77 77.8 80.77 77.8 79.16 74.99 79.16 74.99 78.6"/><path class="cls-2" d="M358.43,282.61a3.8,3.8,0,0,0-1.69-.35h-2.86v5.79h2.94a3.89,3.89,0,0,0,1.61-.35,2.64,2.64,0,0,0,1.16-1,3.11,3.11,0,0,0,0-3.07A2.58,2.58,0,0,0,358.43,282.61Zm-.54,2.54a1.21,1.21,0,0,1-.33.91,1.27,1.27,0,0,1-.91.33H356v-2.48h.7a1.27,1.27,0,0,1,.91.33A1.21,1.21,0,0,1,357.89,285.15Z" transform="translate(-273.13 -207.28)"/><path class="cls-2" d="M364.06,285.38a1.39,1.39,0,0,1-.2.83l-.05.05a.77.77,0,0,1-1.08-.05,1.27,1.27,0,0,1-.21-.83v-3.12h-2.07v3.17a2.7,2.7,0,0,0,.75,2h0a2.89,2.89,0,0,0,2.07.72h0a2.91,2.91,0,0,0,2.07-.72,2.75,2.75,0,0,0,.74-2v-3.17h-2Z" transform="translate(-273.13 -207.28)"/><path class="cls-2" d="M374.6,285.51h0A1.88,1.88,0,0,0,374,285a1.32,1.32,0,0,0,.44-.44,1.38,1.38,0,0,0-.4-1.9,3.1,3.1,0,0,0-1.75-.41h-3.08v5.79h3.25a3.27,3.27,0,0,0,1.81-.42,1.4,1.4,0,0,0,.65-1.22A1.47,1.47,0,0,0,374.6,285.51Zm-2.59-1.1h-.79v-.64H372c.52,0,.52.23.52.32S372.53,284.41,372,284.41Zm-.79,2.13v-.7h1c.48,0,.54.2.54.36a.31.31,0,0,1-.08.22.69.69,0,0,1-.46.12Z" transform="translate(-273.13 -207.28)"/><path class="cls-2" d="M377.25,282.26l-2.54,5.79h2.13l.37-1h2l.38,1h2.16l-2.53-5.79Zm1.38,3.27h-.82l.41-1.06Z" transform="translate(-273.13 -207.28)"/><path class="cls-2" d="M384.88,283.84h0a1.53,1.53,0,0,1,1.19.59l.06.07,1.35-1.19-.06-.06a2.88,2.88,0,0,0-1.12-.84,4,4,0,0,0-1.51-.28,3.63,3.63,0,0,0-1.68.38,2.84,2.84,0,0,0-1.17,1.08,3.13,3.13,0,0,0,0,3.13,2.92,2.92,0,0,0,1.15,1.08,3.59,3.59,0,0,0,1.6.38h.05a4.9,4.9,0,0,0,1.32-.19,4,4,0,0,0,1.18-.54l0,0v-2.51h-1.83v1.45a1.76,1.76,0,0,1-.6.1,1.18,1.18,0,0,1-.9-.35,1.38,1.38,0,0,1-.34-1,1.35,1.35,0,0,1,.34-1A1.33,1.33,0,0,1,384.88,283.84Z" transform="translate(-273.13 -207.28)"/><polygon class="cls-2" points="116.81 78.6 119.19 78.6 119.19 77.06 116.81 77.06 116.81 76.59 119.51 76.59 119.51 74.97 114.77 74.97 114.77 80.77 119.62 80.77 119.62 79.16 116.81 79.16 116.81 78.6"/><polygon class="cls-2" points="122.23 79.11 122.23 74.97 120.16 74.97 120.16 80.77 124.77 80.77 124.77 79.11 122.23 79.11"/></svg>