<svg id="V_" data-name="V°" xmlns="http://www.w3.org/2000/svg" viewBox="0 0 458.327 47.458"><path d="M1235.291,265.535c-2.151,0-5.26-2.639-6.836-4.2,1.586-1.438,4.681-3.833,6.836-3.833s5.251,2.395,6.837,3.833c-1.576,1.563-4.685,4.2-6.837,4.2m0-8.9c-3.393,0-8.059,4.665-8.059,4.665s4.666,5.09,8.059,5.09,8.06-5.09,8.06-5.09-4.667-4.665-8.06-4.665" transform="translate(-1204.961 -241.918)" style="fill:#adb0b1"/><path d="M1257.349,265.535c-2.152,0-5.261-2.639-6.837-4.2,1.586-1.438,4.681-3.833,6.837-3.833s5.25,2.395,6.836,3.833c-1.576,1.563-4.685,4.2-6.836,4.2m0-8.9c-3.394,0-8.06,4.665-8.06,4.665s4.666,5.09,8.06,5.09,8.059-5.09,8.059-5.09-4.666-4.665-8.059-4.665" transform="translate(-1204.961 -241.918)" style="fill:#adb0b1"/><path d="M1246.135,279.384c-1.437-1.585-3.833-4.677-3.833-6.837s2.4-5.251,3.833-6.837c1.564,1.576,4.2,4.685,4.2,6.837s-2.64,5.26-4.2,6.837m-.027-14.9s-4.666,4.666-4.666,8.06,4.666,8.059,4.666,8.059,5.09-4.666,5.09-8.059-5.09-8.06-5.09-8.06" transform="translate(-1204.961 -241.918)" style="fill:#adb0b1"/><path d="M1257.349,287.592c-2.152,0-5.261-2.638-6.837-4.2,1.586-1.437,4.681-3.832,6.837-3.832s5.25,2.395,6.836,3.832c-1.576,1.564-4.685,4.2-6.836,4.2m0-8.895c-3.394,0-8.06,4.666-8.06,4.666s4.666,5.09,8.06,5.09,8.059-5.09,8.059-5.09-4.666-4.666-8.059-4.666" transform="translate(-1204.961 -241.918)" style="fill:#adb0b1"/><path d="M1279.406,287.592c-2.152,0-5.261-2.638-6.837-4.2,1.587-1.437,4.681-3.832,6.837-3.832s5.25,2.395,6.837,3.832c-1.577,1.564-4.686,4.2-6.837,4.2m0-8.895c-3.394,0-8.059,4.666-8.059,4.666s4.665,5.09,8.059,5.09,8.059-5.09,8.059-5.09-4.666-4.666-8.059-4.666" transform="translate(-1204.961 -241.918)" style="fill:#adb0b1"/><path d="M1268.192,279.384c-1.438-1.585-3.832-4.677-3.832-6.837s2.4-5.251,3.832-6.837c1.564,1.576,4.2,4.685,4.2,6.837s-2.639,5.26-4.2,6.837m-.027-14.9s-4.666,4.666-4.666,8.06,4.666,8.059,4.666,8.059,5.09-4.666,5.09-8.059-5.09-8.06-5.09-8.06" transform="translate(-1204.961 -241.918)" style="fill:#adb0b1"/><path d="M1224.077,279.384c-1.437-1.585-3.832-4.677-3.832-6.837s2.4-5.251,3.833-6.837c1.563,1.576,4.2,4.685,4.2,6.837s-2.639,5.26-4.2,6.837m-.027-14.9s-4.666,4.666-4.666,8.06,4.666,8.059,4.666,8.059,5.091-4.666,5.091-8.059-5.091-8.06-5.091-8.06" transform="translate(-1204.961 -241.918)" style="fill:#adb0b1"/><path d="M1279.5,265.535c-2.151,0-5.261-2.639-6.836-4.2,1.586-1.438,4.681-3.833,6.836-3.833s5.251,2.4,6.837,3.833c-1.574,1.564-4.681,4.2-6.837,4.2m0-8.9c-3.393,0-8.059,4.665-8.059,4.665s4.666,5.09,8.059,5.09,8.06-5.09,8.06-5.09-4.667-4.665-8.06-4.665" transform="translate(-1204.961 -241.918)" style="fill:#adb0b1"/><path d="M1301.558,265.535c-2.152,0-5.261-2.639-6.837-4.2,1.586-1.438,4.681-3.833,6.837-3.833s5.25,2.4,6.837,3.833c-1.575,1.564-4.682,4.2-6.837,4.2m0-8.9c-3.394,0-8.06,4.665-8.06,4.665s4.666,5.09,8.06,5.09,8.059-5.09,8.059-5.09-4.666-4.665-8.059-4.665" transform="translate(-1204.961 -241.918)" style="fill:#adb0b1"/><path d="M1290.343,279.384c-1.436-1.585-3.832-4.677-3.832-6.837s2.4-5.251,3.833-6.837c1.564,1.576,4.2,4.685,4.2,6.837s-2.639,5.26-4.2,6.837m-.026-14.9s-4.666,4.666-4.666,8.06,4.666,8.059,4.666,8.059,5.09-4.666,5.09-8.059-5.09-8.06-5.09-8.06" transform="translate(-1204.961 -241.918)" style="fill:#adb0b1"/><path d="M1301.558,287.592c-2.152,0-5.261-2.638-6.837-4.2,1.586-1.437,4.681-3.832,6.837-3.832s5.25,2.395,6.836,3.832c-1.576,1.564-4.685,4.2-6.836,4.2m0-8.895c-3.394,0-8.06,4.666-8.06,4.666s4.666,5.09,8.06,5.09,8.059-5.09,8.059-5.09-4.666-4.666-8.059-4.666" transform="translate(-1204.961 -241.918)" style="fill:#adb0b1"/><path d="M1323.615,287.592c-2.152,0-5.261-2.638-6.837-4.2,1.587-1.437,4.681-3.832,6.837-3.832s5.25,2.395,6.837,3.832c-1.577,1.564-4.686,4.2-6.837,4.2m0-8.895c-3.394,0-8.059,4.666-8.059,4.666s4.665,5.09,8.059,5.09,8.059-5.09,8.059-5.09-4.666-4.666-8.059-4.666" transform="translate(-1204.961 -241.918)" style="fill:#adb0b1"/><path d="M1312.4,279.384c-1.437-1.585-3.833-4.677-3.833-6.837s2.4-5.251,3.833-6.837c1.564,1.576,4.2,4.685,4.2,6.837s-2.64,5.26-4.2,6.837m-.027-14.9s-4.666,4.666-4.666,8.06,4.666,8.059,4.666,8.059,5.09-4.666,5.09-8.059-5.09-8.06-5.09-8.06" transform="translate(-1204.961 -241.918)" style="fill:#adb0b1"/><path d="M1345.672,287.592c-2.151,0-5.26-2.638-6.836-4.2,1.586-1.437,4.68-3.832,6.836-3.832s5.25,2.395,6.837,3.832c-1.576,1.564-4.685,4.2-6.837,4.2m0-8.895c-3.393,0-8.059,4.666-8.059,4.666s4.666,5.09,8.059,5.09,8.06-5.09,8.06-5.09-4.666-4.666-8.06-4.666" transform="translate(-1204.961 -241.918)" style="fill:#adb0b1"/><path d="M1367.729,287.592c-2.151,0-5.26-2.638-6.836-4.2,1.586-1.437,4.681-3.832,6.836-3.832s5.251,2.395,6.837,3.832c-1.576,1.564-4.684,4.2-6.837,4.2m0-8.895c-3.393,0-8.059,4.666-8.059,4.666s4.666,5.09,8.059,5.09,8.06-5.09,8.06-5.09-4.666-4.666-8.06-4.666" transform="translate(-1204.961 -241.918)" style="fill:#adb0b1"/><path d="M1356.516,279.384c-1.437-1.585-3.833-4.677-3.833-6.837s2.4-5.251,3.833-6.837c1.564,1.576,4.2,4.685,4.2,6.837s-2.638,5.26-4.2,6.837m-.027-14.9s-4.667,4.666-4.667,8.06,4.667,8.059,4.667,8.059,5.09-4.666,5.09-8.059-5.09-8.06-5.09-8.06" transform="translate(-1204.961 -241.918)" style="fill:#adb0b1"/><path d="M1390.211,287.592c-2.151,0-5.26-2.638-6.837-4.2,1.587-1.437,4.682-3.832,6.837-3.832s5.251,2.395,6.837,3.832c-1.576,1.564-4.686,4.2-6.837,4.2m0-8.895c-3.393,0-8.06,4.666-8.06,4.666s4.667,5.09,8.06,5.09,8.06-5.09,8.06-5.09-4.667-4.666-8.06-4.666" transform="translate(-1204.961 -241.918)" style="fill:#adb0b1"/><path d="M1412.269,287.592c-2.152,0-5.261-2.638-6.838-4.2,1.587-1.437,4.682-3.832,6.838-3.832s5.25,2.395,6.837,3.832c-1.577,1.564-4.686,4.2-6.837,4.2m0-8.895c-3.394,0-8.06,4.666-8.06,4.666s4.666,5.09,8.06,5.09,8.058-5.09,8.058-5.09-4.665-4.666-8.058-4.666" transform="translate(-1204.961 -241.918)" style="fill:#adb0b1"/><path d="M1401.055,279.384c-1.438-1.585-3.833-4.677-3.833-6.837s2.4-5.251,3.833-6.837c1.564,1.576,4.2,4.685,4.2,6.837s-2.64,5.26-4.2,6.837m-.027-14.9s-4.666,4.666-4.666,8.06,4.666,8.059,4.666,8.059,5.09-4.666,5.09-8.059-5.09-8.06-5.09-8.06" transform="translate(-1204.961 -241.918)" style="fill:#adb0b1"/><path d="M1434.326,287.592c-2.151,0-5.261-2.638-6.837-4.2,1.587-1.437,4.681-3.832,6.837-3.832s5.25,2.395,6.837,3.832c-1.576,1.564-4.686,4.2-6.837,4.2m0-8.895c-3.393,0-8.06,4.666-8.06,4.666s4.667,5.09,8.06,5.09,8.059-5.09,8.059-5.09-4.666-4.666-8.059-4.666" transform="translate(-1204.961 -241.918)" style="fill:#adb0b1"/><path d="M1456.383,287.592c-2.151,0-5.26-2.638-6.837-4.2,1.587-1.437,4.682-3.832,6.837-3.832s5.251,2.395,6.836,3.832c-1.575,1.564-4.684,4.2-6.836,4.2m0-8.895c-3.393,0-8.059,4.666-8.059,4.666s4.666,5.09,8.059,5.09,8.059-5.09,8.059-5.09-4.665-4.666-8.059-4.666" transform="translate(-1204.961 -241.918)" style="fill:#adb0b1"/><path d="M1445.17,279.384c-1.438-1.585-3.833-4.677-3.833-6.837s2.4-5.251,3.833-6.837c1.563,1.576,4.2,4.685,4.2,6.837s-2.639,5.26-4.2,6.837m-.027-14.9s-4.667,4.666-4.667,8.06,4.667,8.059,4.667,8.059,5.09-4.666,5.09-8.059-5.09-8.06-5.09-8.06" transform="translate(-1204.961 -241.918)" style="fill:#adb0b1"/><path d="M1478.441,287.592c-2.152,0-5.261-2.638-6.837-4.2,1.586-1.437,4.681-3.832,6.837-3.832s5.25,2.395,6.836,3.832c-1.576,1.564-4.685,4.2-6.836,4.2m0-8.895c-3.393,0-8.06,4.666-8.06,4.666s4.667,5.09,8.06,5.09,8.059-5.09,8.059-5.09-4.666-4.666-8.059-4.666" transform="translate(-1204.961 -241.918)" style="fill:#adb0b1"/><path d="M1500.5,287.592c-2.151,0-5.26-2.638-6.837-4.2,1.587-1.437,4.681-3.832,6.837-3.832s5.251,2.395,6.837,3.832c-1.576,1.564-4.686,4.2-6.837,4.2m0-8.895c-3.393,0-8.059,4.666-8.059,4.666s4.666,5.09,8.059,5.09,8.059-5.09,8.059-5.09-4.665-4.666-8.059-4.666" transform="translate(-1204.961 -241.918)" style="fill:#adb0b1"/><path d="M1489.284,279.384c-1.437-1.585-3.832-4.677-3.832-6.837s2.4-5.251,3.833-6.837c1.563,1.576,4.2,4.685,4.2,6.837s-2.638,5.26-4.2,6.837m-.027-14.9s-4.666,4.666-4.666,8.06,4.666,8.059,4.666,8.059,5.09-4.666,5.09-8.059-5.09-8.06-5.09-8.06" transform="translate(-1204.961 -241.918)" style="fill:#adb0b1"/><path d="M1522.556,287.592c-2.152,0-5.261-2.638-6.837-4.2,1.586-1.437,4.68-3.832,6.837-3.832s5.25,2.395,6.836,3.832c-1.576,1.564-4.685,4.2-6.836,4.2m0-8.895c-3.394,0-8.06,4.666-8.06,4.666s4.666,5.09,8.06,5.09,8.059-5.09,8.059-5.09-4.666-4.666-8.059-4.666" transform="translate(-1204.961 -241.918)" style="fill:#adb0b1"/><path d="M1544.613,287.592c-2.152,0-5.261-2.638-6.837-4.2,1.586-1.437,4.681-3.832,6.837-3.832s5.251,2.395,6.836,3.832c-1.575,1.564-4.685,4.2-6.836,4.2m0-8.895c-3.394,0-8.06,4.666-8.06,4.666s4.666,5.09,8.06,5.09,8.059-5.09,8.059-5.09-4.666-4.666-8.059-4.666" transform="translate(-1204.961 -241.918)" style="fill:#adb0b1"/><path d="M1533.4,279.384c-1.437-1.585-3.832-4.677-3.832-6.837s2.395-5.251,3.833-6.837c1.562,1.576,4.2,4.685,4.2,6.837s-2.639,5.26-4.2,6.837m-.027-14.9s-4.666,4.666-4.666,8.06,4.666,8.059,4.666,8.059,5.09-4.666,5.09-8.059-5.09-8.06-5.09-8.06" transform="translate(-1204.961 -241.918)" style="fill:#adb0b1"/><path d="M1566.67,287.592c-2.152,0-5.26-2.638-6.837-4.2,1.587-1.437,4.681-3.832,6.837-3.832s5.251,2.395,6.837,3.832c-1.577,1.564-4.685,4.2-6.837,4.2m0-8.895c-3.394,0-8.059,4.666-8.059,4.666s4.665,5.09,8.059,5.09,8.059-5.09,8.059-5.09-4.665-4.666-8.059-4.666" transform="translate(-1204.961 -241.918)" style="fill:#adb0b1"/><path d="M1588.727,287.592c-2.151,0-5.26-2.638-6.836-4.2,1.586-1.437,4.68-3.832,6.836-3.832s5.25,2.395,6.837,3.832c-1.577,1.564-4.685,4.2-6.837,4.2m0-8.895c-3.393,0-8.059,4.666-8.059,4.666s4.666,5.09,8.059,5.09,8.06-5.09,8.06-5.09-4.666-4.666-8.06-4.666" transform="translate(-1204.961 -241.918)" style="fill:#adb0b1"/><path d="M1577.513,279.384c-1.437-1.585-3.832-4.677-3.832-6.837s2.395-5.251,3.833-6.837c1.563,1.576,4.2,4.685,4.2,6.837s-2.639,5.26-4.2,6.837m-.026-14.9s-4.666,4.666-4.666,8.06,4.666,8.059,4.666,8.059,5.089-4.666,5.089-8.059-5.089-8.06-5.089-8.06" transform="translate(-1204.961 -241.918)" style="fill:#adb0b1"/><path d="M1610.784,287.592c-2.151,0-5.259-2.638-6.836-4.2,1.586-1.437,4.681-3.832,6.836-3.832s5.251,2.395,6.838,3.832c-1.577,1.564-4.686,4.2-6.838,4.2m0-8.895c-3.393,0-8.058,4.666-8.058,4.666s4.665,5.09,8.058,5.09,8.06-5.09,8.06-5.09-4.665-4.666-8.06-4.666" transform="translate(-1204.961 -241.918)" style="fill:#adb0b1"/><path d="M1632.842,287.592c-2.152,0-5.261-2.638-6.836-4.2,1.585-1.437,4.68-3.832,6.836-3.832s5.25,2.395,6.837,3.832c-1.577,1.564-4.685,4.2-6.837,4.2m0-8.895c-3.393,0-8.059,4.666-8.059,4.666s4.666,5.09,8.059,5.09,8.06-5.09,8.06-5.09-4.666-4.666-8.06-4.666" transform="translate(-1204.961 -241.918)" style="fill:#adb0b1"/><path d="M1621.628,279.384c-1.437-1.585-3.833-4.677-3.833-6.837s2.4-5.251,3.833-6.837c1.564,1.576,4.2,4.685,4.2,6.837s-2.639,5.26-4.2,6.837m-.027-14.9s-4.666,4.666-4.666,8.06,4.666,8.059,4.666,8.059,5.09-4.666,5.09-8.059-5.09-8.06-5.09-8.06" transform="translate(-1204.961 -241.918)" style="fill:#adb0b1"/><path d="M1323.709,265.535c-2.151,0-5.261-2.639-6.837-4.2,1.587-1.438,4.682-3.833,6.837-3.833s5.251,2.395,6.837,3.833c-1.576,1.563-4.685,4.2-6.837,4.2m0-8.9c-3.393,0-8.059,4.665-8.059,4.665s4.666,5.09,8.059,5.09,8.059-5.09,8.059-5.09-4.665-4.665-8.059-4.665" transform="translate(-1204.961 -241.918)" style="fill:#adb0b1"/><path d="M1345.767,265.535c-2.152,0-5.261-2.639-6.837-4.2,1.586-1.438,4.68-3.833,6.837-3.833s5.25,2.395,6.836,3.833c-1.576,1.563-4.685,4.2-6.836,4.2m0-8.9c-3.394,0-8.06,4.665-8.06,4.665s4.666,5.09,8.06,5.09,8.059-5.09,8.059-5.09-4.666-4.665-8.059-4.665" transform="translate(-1204.961 -241.918)" style="fill:#adb0b1"/><path d="M1334.552,279.384c-1.437-1.585-3.832-4.677-3.832-6.837s2.4-5.251,3.833-6.837c1.563,1.576,4.2,4.685,4.2,6.837s-2.64,5.26-4.2,6.837m-.026-14.9s-4.666,4.666-4.666,8.06,4.666,8.059,4.666,8.059,5.09-4.666,5.09-8.059-5.09-8.06-5.09-8.06" transform="translate(-1204.961 -241.918)" style="fill:#adb0b1"/><path d="M1367.919,265.535c-2.153,0-5.261-2.639-6.838-4.2,1.587-1.438,4.681-3.833,6.838-3.833s5.25,2.395,6.836,3.833c-1.576,1.563-4.685,4.2-6.836,4.2m0-8.9c-3.394,0-8.06,4.665-8.06,4.665s4.666,5.09,8.06,5.09,8.058-5.09,8.058-5.09-4.665-4.665-8.058-4.665" transform="translate(-1204.961 -241.918)" style="fill:#adb0b1"/><path d="M1389.976,265.535c-2.152,0-5.261-2.639-6.837-4.2,1.586-1.438,4.68-3.833,6.837-3.833s5.25,2.4,6.837,3.833c-1.575,1.564-4.682,4.2-6.837,4.2m0-8.9c-3.394,0-8.06,4.665-8.06,4.665s4.666,5.09,8.06,5.09,8.059-5.09,8.059-5.09-4.666-4.665-8.059-4.665" transform="translate(-1204.961 -241.918)" style="fill:#adb0b1"/><path d="M1378.761,279.384c-1.437-1.585-3.832-4.677-3.832-6.837s2.395-5.251,3.833-6.837c1.563,1.576,4.2,4.685,4.2,6.837s-2.639,5.26-4.2,6.837m-.027-14.9s-4.665,4.666-4.665,8.06,4.665,8.059,4.665,8.059,5.09-4.666,5.09-8.059-5.09-8.06-5.09-8.06" transform="translate(-1204.961 -241.918)" style="fill:#adb0b1"/><path d="M1412.127,265.535c-2.151,0-5.26-2.639-6.837-4.2,1.587-1.438,4.681-3.833,6.837-3.833s5.251,2.395,6.837,3.833c-1.576,1.563-4.685,4.2-6.837,4.2m0-8.9c-3.393,0-8.059,4.665-8.059,4.665s4.666,5.09,8.059,5.09,8.059-5.09,8.059-5.09-4.665-4.665-8.059-4.665" transform="translate(-1204.961 -241.918)" style="fill:#adb0b1"/><path d="M1434.185,265.535c-2.151,0-5.261-2.639-6.837-4.2,1.586-1.438,4.68-3.833,6.837-3.833s5.25,2.395,6.836,3.833c-1.576,1.563-4.685,4.2-6.836,4.2m0-8.9c-3.394,0-8.06,4.665-8.06,4.665s4.666,5.09,8.06,5.09,8.059-5.09,8.059-5.09-4.666-4.665-8.059-4.665" transform="translate(-1204.961 -241.918)" style="fill:#adb0b1"/><path d="M1422.971,279.383c-1.438-1.587-3.833-4.681-3.833-6.836s2.395-5.251,3.833-6.837c1.563,1.576,4.2,4.685,4.2,6.837s-2.639,5.26-4.2,6.836m-.028-14.9s-4.665,4.666-4.665,8.06,4.665,8.059,4.665,8.059,5.09-4.666,5.09-8.059-5.09-8.06-5.09-8.06" transform="translate(-1204.961 -241.918)" style="fill:#adb0b1"/><path d="M1456.336,265.535c-2.151,0-5.26-2.639-6.837-4.2,1.587-1.438,4.682-3.833,6.837-3.833s5.251,2.395,6.837,3.833c-1.576,1.563-4.686,4.2-6.837,4.2m0-8.9c-3.393,0-8.059,4.665-8.059,4.665s4.666,5.09,8.059,5.09,8.059-5.09,8.059-5.09-4.665-4.665-8.059-4.665" transform="translate(-1204.961 -241.918)" style="fill:#adb0b1"/><path d="M1478.394,265.535c-2.152,0-5.261-2.639-6.837-4.2,1.586-1.438,4.68-3.833,6.837-3.833s5.25,2.395,6.836,3.833c-1.576,1.563-4.685,4.2-6.836,4.2m0-8.9c-3.394,0-8.06,4.665-8.06,4.665s4.666,5.09,8.06,5.09,8.059-5.09,8.059-5.09-4.666-4.665-8.059-4.665" transform="translate(-1204.961 -241.918)" style="fill:#adb0b1"/><path d="M1467.18,279.383c-1.438-1.587-3.833-4.681-3.833-6.836s2.395-5.251,3.833-6.837c1.563,1.576,4.2,4.685,4.2,6.837s-2.639,5.26-4.2,6.836m-.028-14.9s-4.665,4.666-4.665,8.06,4.665,8.059,4.665,8.059,5.09-4.666,5.09-8.059-5.09-8.06-5.09-8.06" transform="translate(-1204.961 -241.918)" style="fill:#adb0b1"/><path d="M1500.545,265.535c-2.151,0-5.26-2.639-6.837-4.2,1.587-1.438,4.682-3.833,6.837-3.833s5.251,2.395,6.837,3.833c-1.576,1.563-4.685,4.2-6.837,4.2m0-8.9c-3.393,0-8.06,4.665-8.06,4.665s4.667,5.09,8.06,5.09,8.059-5.09,8.059-5.09-4.665-4.665-8.059-4.665" transform="translate(-1204.961 -241.918)" style="fill:#adb0b1"/><path d="M1522.6,265.535c-2.153,0-5.262-2.639-6.837-4.2,1.584-1.437,4.676-3.832,6.837-3.832s5.25,2.395,6.836,3.833c-1.576,1.563-4.685,4.2-6.836,4.2m0-8.9c-3.394,0-8.06,4.665-8.06,4.665s4.666,5.09,8.06,5.09,8.059-5.09,8.059-5.09-4.666-4.665-8.059-4.665" transform="translate(-1204.961 -241.918)" style="fill:#adb0b1"/><path d="M1511.388,279.384c-1.437-1.585-3.832-4.677-3.832-6.837s2.4-5.251,3.833-6.837c1.563,1.576,4.2,4.685,4.2,6.837s-2.64,5.26-4.2,6.837m-.027-14.9s-4.665,4.666-4.665,8.06,4.665,8.059,4.665,8.059,5.091-4.666,5.091-8.059-5.091-8.06-5.091-8.06" transform="translate(-1204.961 -241.918)" style="fill:#adb0b1"/><path d="M1544.754,265.535c-2.151,0-5.26-2.639-6.837-4.2,1.587-1.438,4.682-3.833,6.837-3.833s5.251,2.395,6.836,3.833c-1.575,1.563-4.685,4.2-6.836,4.2m0-8.9c-3.393,0-8.06,4.665-8.06,4.665s4.667,5.09,8.06,5.09,8.059-5.09,8.059-5.09-4.666-4.665-8.059-4.665" transform="translate(-1204.961 -241.918)" style="fill:#adb0b1"/><path d="M1566.812,265.535c-2.152,0-5.261-2.639-6.837-4.2,1.586-1.438,4.681-3.833,6.837-3.833s5.25,2.395,6.836,3.833c-1.576,1.563-4.685,4.2-6.836,4.2m0-8.9c-3.394,0-8.06,4.665-8.06,4.665s4.666,5.09,8.06,5.09,8.059-5.09,8.059-5.09-4.666-4.665-8.059-4.665" transform="translate(-1204.961 -241.918)" style="fill:#adb0b1"/><path d="M1555.6,279.383c-1.437-1.587-3.833-4.681-3.833-6.836s2.4-5.251,3.833-6.837c1.563,1.576,4.2,4.685,4.2,6.837s-2.639,5.26-4.2,6.836m-.028-14.9s-4.665,4.666-4.665,8.06,4.665,8.059,4.665,8.059,5.091-4.666,5.091-8.059-5.091-8.06-5.091-8.06" transform="translate(-1204.961 -241.918)" style="fill:#adb0b1"/><path d="M1588.963,265.535c-2.151,0-5.261-2.639-6.837-4.2,1.587-1.438,4.682-3.833,6.837-3.833s5.251,2.395,6.837,3.833c-1.576,1.563-4.685,4.2-6.837,4.2m0-8.9c-3.393,0-8.06,4.665-8.06,4.665s4.667,5.09,8.06,5.09,8.059-5.09,8.059-5.09-4.666-4.665-8.059-4.665" transform="translate(-1204.961 -241.918)" style="fill:#adb0b1"/><path d="M1611.021,265.535c-2.152,0-5.261-2.639-6.838-4.2,1.587-1.438,4.682-3.833,6.838-3.833s5.25,2.395,6.836,3.833c-1.576,1.563-4.685,4.2-6.836,4.2m0-8.9c-3.394,0-8.06,4.665-8.06,4.665s4.666,5.09,8.06,5.09,8.059-5.09,8.059-5.09-4.666-4.665-8.059-4.665" transform="translate(-1204.961 -241.918)" style="fill:#adb0b1"/><path d="M1599.807,279.384c-1.438-1.585-3.833-4.677-3.833-6.837s2.4-5.251,3.833-6.837c1.563,1.576,4.2,4.685,4.2,6.837s-2.64,5.26-4.2,6.837m-.027-14.9s-4.666,4.666-4.666,8.06,4.666,8.059,4.666,8.059,5.09-4.666,5.09-8.059-5.09-8.06-5.09-8.06" transform="translate(-1204.961 -241.918)" style="fill:#adb0b1"/><path d="M1633.172,265.535c-2.151,0-5.261-2.639-6.837-4.2,1.586-1.438,4.682-3.833,6.837-3.833s5.251,2.395,6.837,3.833c-1.576,1.563-4.686,4.2-6.837,4.2m0-8.9c-3.393,0-8.06,4.665-8.06,4.665s4.667,5.09,8.06,5.09,8.059-5.09,8.059-5.09-4.666-4.665-8.059-4.665" transform="translate(-1204.961 -241.918)" style="fill:#adb0b1"/><path d="M1655.23,265.535c-2.152,0-5.261-2.639-6.838-4.2,1.587-1.438,4.682-3.833,6.838-3.833s5.25,2.395,6.836,3.833c-1.576,1.563-4.685,4.2-6.836,4.2m0-8.9c-3.394,0-8.06,4.665-8.06,4.665s4.666,5.09,8.06,5.09,8.058-5.09,8.058-5.09-4.665-4.665-8.058-4.665" transform="translate(-1204.961 -241.918)" style="fill:#adb0b1"/><path d="M1644.016,279.384c-1.438-1.585-3.833-4.677-3.833-6.837s2.4-5.251,3.833-6.837c1.564,1.576,4.2,4.685,4.2,6.837s-2.639,5.26-4.2,6.837m-.027-14.9s-4.666,4.666-4.666,8.06,4.666,8.059,4.666,8.059,5.09-4.666,5.09-8.059-5.09-8.06-5.09-8.06" transform="translate(-1204.961 -241.918)" style="fill:#adb0b1"/><path d="M1235.083,287.427c-2.151,0-5.26-2.64-6.836-4.2,1.586-1.438,4.681-3.833,6.836-3.833s5.251,2.395,6.837,3.833c-1.576,1.563-4.686,4.2-6.837,4.2m0-8.9c-3.393,0-8.059,4.665-8.059,4.665s4.666,5.091,8.059,5.091,8.059-5.091,8.059-5.091-4.665-4.665-8.059-4.665" transform="translate(-1204.961 -241.918)" style="fill:#adb0b1"/><path d="M1213.02,288.515c-2.151,0-5.26-2.639-6.836-4.2,1.586-1.437,4.681-3.832,6.836-3.832s5.251,2.395,6.837,3.832c-1.576,1.564-4.685,4.2-6.837,4.2m0-8.9c-3.393,0-8.059,4.666-8.059,4.666s4.666,5.091,8.059,5.091,8.06-5.091,8.06-5.091-4.666-4.666-8.06-4.666" transform="translate(-1204.961 -241.918)" style="fill:#adb0b1"/><path d="M1213.234,266.384c-2.152,0-5.261-2.639-6.837-4.2,1.586-1.437,4.681-3.833,6.837-3.833s5.25,2.4,6.836,3.833c-1.576,1.564-4.685,4.2-6.836,4.2m0-8.9c-3.394,0-8.06,4.666-8.06,4.666s4.666,5.09,8.06,5.09,8.059-5.09,8.059-5.09-4.666-4.666-8.059-4.666" transform="translate(-1204.961 -241.918)" style="fill:#adb0b1"/><path d="M1268.192,257.238c-1.437-1.586-3.832-4.681-3.832-6.837s2.4-5.25,3.833-6.837c1.563,1.575,4.2,4.682,4.2,6.837s-2.639,5.261-4.2,6.837m-.027-14.9s-4.666,4.666-4.666,8.059,4.666,8.06,4.666,8.06,5.09-4.666,5.09-8.06-5.09-8.059-5.09-8.059" transform="translate(-1204.961 -241.918)" style="fill:#adb0b1"/><path d="M1312.731,257.238c-1.437-1.586-3.833-4.681-3.833-6.837s2.4-5.25,3.834-6.837c1.563,1.575,4.2,4.682,4.2,6.837s-2.639,5.261-4.2,6.837m-.027-14.9s-4.666,4.666-4.666,8.059,4.666,8.06,4.666,8.06,5.09-4.666,5.09-8.06-5.09-8.059-5.09-8.059" transform="translate(-1204.961 -241.918)" style="fill:#adb0b1"/><path d="M1356.422,257.238c-1.437-1.586-3.833-4.681-3.833-6.837s2.4-5.25,3.833-6.837c1.564,1.575,4.2,4.682,4.2,6.837s-2.638,5.261-4.2,6.837m-.027-14.9s-4.667,4.666-4.667,8.059,4.667,8.06,4.667,8.06,5.09-4.666,5.09-8.06-5.09-8.059-5.09-8.059" transform="translate(-1204.961 -241.918)" style="fill:#adb0b1"/><path d="M1400.961,256.814c-1.437-1.586-3.833-4.681-3.833-6.836s2.4-5.252,3.833-6.838c1.564,1.575,4.2,4.681,4.2,6.838s-2.639,5.26-4.2,6.836m-.028-14.9s-4.665,4.666-4.665,8.06,4.665,8.058,4.665,8.058,5.091-4.665,5.091-8.058-5.091-8.06-5.091-8.06" transform="translate(-1204.961 -241.918)" style="fill:#adb0b1"/><path d="M1445.076,257.238c-1.438-1.586-3.833-4.681-3.833-6.837s2.4-5.25,3.833-6.837c1.564,1.575,4.2,4.682,4.2,6.837s-2.638,5.261-4.2,6.837m-.028-14.9s-4.666,4.666-4.666,8.059,4.666,8.06,4.666,8.06,5.09-4.666,5.09-8.06-5.09-8.059-5.09-8.059" transform="translate(-1204.961 -241.918)" style="fill:#adb0b1"/><path d="M1489.19,257.238c-1.437-1.586-3.832-4.681-3.832-6.837s2.395-5.25,3.832-6.837c1.564,1.575,4.2,4.682,4.2,6.837s-2.639,5.261-4.2,6.837m-.027-14.9s-4.666,4.666-4.666,8.059,4.666,8.06,4.666,8.06,5.09-4.666,5.09-8.06-5.09-8.059-5.09-8.059" transform="translate(-1204.961 -241.918)" style="fill:#adb0b1"/><path d="M1533.3,257.238c-1.436-1.586-3.831-4.681-3.831-6.837s2.395-5.25,3.832-6.837c1.563,1.575,4.2,4.682,4.2,6.837s-2.639,5.261-4.2,6.837m-.026-14.9s-4.666,4.666-4.666,8.059,4.666,8.06,4.666,8.06,5.09-4.666,5.09-8.06-5.09-8.059-5.09-8.059" transform="translate(-1204.961 -241.918)" style="fill:#adb0b1"/><path d="M1577.419,257.238c-1.437-1.586-3.833-4.681-3.833-6.837s2.4-5.25,3.834-6.837c1.563,1.575,4.2,4.682,4.2,6.837s-2.639,5.261-4.2,6.837m-.027-14.9s-4.666,4.666-4.666,8.059,4.666,8.06,4.666,8.06,5.09-4.666,5.09-8.06-5.09-8.059-5.09-8.059" transform="translate(-1204.961 -241.918)" style="fill:#adb0b1"/><path d="M1621.534,257.238c-1.437-1.586-3.833-4.681-3.833-6.837s2.4-5.25,3.834-6.837c1.563,1.575,4.2,4.682,4.2,6.837s-2.639,5.261-4.2,6.837m-.027-14.9s-4.666,4.666-4.666,8.059,4.666,8.06,4.666,8.06,5.09-4.666,5.09-8.06-5.09-8.059-5.09-8.059" transform="translate(-1204.961 -241.918)" style="fill:#adb0b1"/><path d="M1224.078,257.238c-1.438-1.586-3.833-4.681-3.833-6.837s2.4-5.25,3.833-6.837c1.563,1.575,4.2,4.682,4.2,6.837s-2.639,5.261-4.2,6.837m-.028-14.9s-4.666,4.666-4.666,8.059,4.666,8.06,4.666,8.06,5.091-4.666,5.091-8.06-5.091-8.059-5.091-8.059" transform="translate(-1204.961 -241.918)" style="fill:#adb0b1"/><path d="M1643.686,257.238c-1.437-1.586-3.833-4.681-3.833-6.837s2.4-5.25,3.834-6.837c1.563,1.575,4.2,4.682,4.2,6.837s-2.638,5.261-4.2,6.837m-.027-14.9s-4.667,4.666-4.667,8.059,4.667,8.06,4.667,8.06,5.09-4.666,5.09-8.06-5.09-8.059-5.09-8.059" transform="translate(-1204.961 -241.918)" style="fill:#adb0b1"/><path d="M1599.571,257.238c-1.437-1.586-3.832-4.681-3.832-6.837s2.4-5.25,3.833-6.837c1.563,1.575,4.2,4.682,4.2,6.837s-2.639,5.261-4.2,6.837m-.027-14.9s-4.666,4.666-4.666,8.059,4.666,8.06,4.666,8.06,5.09-4.666,5.09-8.06-5.09-8.059-5.09-8.059" transform="translate(-1204.961 -241.918)" style="fill:#adb0b1"/><path d="M1555.457,257.238c-1.438-1.586-3.833-4.681-3.833-6.837s2.4-5.25,3.833-6.837c1.564,1.575,4.2,4.682,4.2,6.837s-2.638,5.261-4.2,6.837m-.028-14.9s-4.666,4.666-4.666,8.059,4.666,8.06,4.666,8.06,5.09-4.666,5.09-8.06-5.09-8.059-5.09-8.059" transform="translate(-1204.961 -241.918)" style="fill:#adb0b1"/><path d="M1511.342,257.238c-1.438-1.586-3.833-4.681-3.833-6.837s2.4-5.25,3.833-6.837c1.564,1.575,4.2,4.682,4.2,6.837s-2.639,5.261-4.2,6.837m-.028-14.9s-4.665,4.666-4.665,8.059,4.665,8.06,4.665,8.06,5.09-4.666,5.09-8.06-5.09-8.059-5.09-8.059" transform="translate(-1204.961 -241.918)" style="fill:#adb0b1"/><path d="M1467.227,257.238c-1.437-1.586-3.833-4.681-3.833-6.837s2.4-5.25,3.833-6.837c1.564,1.575,4.2,4.682,4.2,6.837s-2.64,5.261-4.2,6.837m-.027-14.9s-4.666,4.666-4.666,8.059,4.666,8.06,4.666,8.06,5.09-4.666,5.09-8.06-5.09-8.059-5.09-8.059" transform="translate(-1204.961 -241.918)" style="fill:#adb0b1"/><path d="M1422.688,257.238c-1.437-1.586-3.833-4.681-3.833-6.837s2.4-5.25,3.834-6.837c1.563,1.575,4.2,4.682,4.2,6.837s-2.639,5.261-4.2,6.837m-.027-14.9S1418,247.008,1418,250.4s4.666,8.06,4.666,8.06,5.09-4.666,5.09-8.06-5.09-8.059-5.09-8.059" transform="translate(-1204.961 -241.918)" style="fill:#adb0b1"/><path d="M1378.573,257.238c-1.437-1.586-3.833-4.681-3.833-6.837s2.4-5.25,3.834-6.837c1.563,1.575,4.2,4.682,4.2,6.837s-2.639,5.261-4.2,6.837m-.027-14.9s-4.666,4.666-4.666,8.059,4.666,8.06,4.666,8.06,5.09-4.666,5.09-8.06-5.09-8.059-5.09-8.059" transform="translate(-1204.961 -241.918)" style="fill:#adb0b1"/><path d="M1334.459,257.238c-1.438-1.586-3.833-4.681-3.833-6.837s2.4-5.25,3.833-6.837c1.563,1.575,4.2,4.682,4.2,6.837s-2.639,5.261-4.2,6.837m-.028-14.9s-4.666,4.666-4.666,8.059,4.666,8.06,4.666,8.06,5.09-4.666,5.09-8.06-5.09-8.059-5.09-8.059" transform="translate(-1204.961 -241.918)" style="fill:#adb0b1"/><path d="M1290.344,257.238c-1.437-1.586-3.833-4.681-3.833-6.837s2.4-5.25,3.833-6.837c1.564,1.575,4.2,4.682,4.2,6.837s-2.639,5.261-4.2,6.837m-.027-14.9s-4.666,4.666-4.666,8.059,4.666,8.06,4.666,8.06,5.09-4.666,5.09-8.06-5.09-8.059-5.09-8.059" transform="translate(-1204.961 -241.918)" style="fill:#adb0b1"/><path d="M1246.229,257.238c-1.437-1.586-3.832-4.681-3.832-6.837s2.395-5.25,3.833-6.837c1.563,1.575,4.2,4.682,4.2,6.837s-2.639,5.261-4.2,6.837m-.027-14.9s-4.666,4.666-4.666,8.059,4.666,8.06,4.666,8.06,5.09-4.666,5.09-8.06-5.09-8.059-5.09-8.059" transform="translate(-1204.961 -241.918)" style="fill:#adb0b1"/><path d="M1655.23,288.515c-2.152,0-5.261-2.639-6.838-4.2,1.587-1.438,4.682-3.833,6.838-3.833s5.25,2.395,6.836,3.833c-1.576,1.563-4.685,4.2-6.836,4.2m0-8.895c-3.394,0-8.06,4.665-8.06,4.665s4.666,5.09,8.06,5.09,8.058-5.09,8.058-5.09-4.665-4.665-8.058-4.665" transform="translate(-1204.961 -241.918)" style="fill:#adb0b1"/></svg>