<svg id="V_" data-name="V°" xmlns="http://www.w3.org/2000/svg" viewBox="0 0 723.127 47.458"><path d="M1214.244,268.032c-2.151,0-5.26-2.639-6.836-4.2,1.586-1.438,4.681-3.833,6.836-3.833s5.251,2.395,6.837,3.833c-1.576,1.563-4.685,4.2-6.837,4.2m0-8.895c-3.393,0-8.059,4.665-8.059,4.665s4.666,5.09,8.059,5.09,8.06-5.09,8.06-5.09-4.666-4.665-8.06-4.665" transform="translate(-919.114 -244.415)" style="fill:#adb0b1"/><path d="M1236.3,268.032c-2.152,0-5.261-2.639-6.837-4.2,1.586-1.438,4.681-3.833,6.837-3.833s5.25,2.395,6.836,3.833c-1.576,1.563-4.685,4.2-6.836,4.2m0-8.895c-3.394,0-8.059,4.665-8.059,4.665s4.665,5.09,8.059,5.09,8.059-5.09,8.059-5.09-4.666-4.665-8.059-4.665" transform="translate(-919.114 -244.415)" style="fill:#adb0b1"/><path d="M1225.088,281.881c-1.437-1.585-3.833-4.678-3.833-6.837s2.4-5.251,3.833-6.837c1.564,1.576,4.2,4.685,4.2,6.837s-2.64,5.26-4.2,6.837m-.027-14.9s-4.666,4.665-4.666,8.06,4.666,8.059,4.666,8.059,5.09-4.666,5.09-8.059-5.09-8.06-5.09-8.06" transform="translate(-919.114 -244.415)" style="fill:#adb0b1"/><path d="M1236.3,290.089c-2.152,0-5.261-2.639-6.837-4.2,1.586-1.437,4.681-3.832,6.837-3.832s5.25,2.395,6.836,3.832c-1.576,1.563-4.685,4.2-6.836,4.2m0-8.895c-3.394,0-8.059,4.666-8.059,4.666s4.665,5.09,8.059,5.09,8.059-5.09,8.059-5.09-4.666-4.666-8.059-4.666" transform="translate(-919.114 -244.415)" style="fill:#adb0b1"/><path d="M1258.359,290.089c-2.151,0-5.26-2.639-6.836-4.2,1.586-1.437,4.68-3.832,6.836-3.832s5.251,2.395,6.837,3.832c-1.577,1.563-4.686,4.2-6.837,4.2m0-8.895c-3.394,0-8.059,4.666-8.059,4.666s4.665,5.09,8.059,5.09,8.059-5.09,8.059-5.09-4.665-4.666-8.059-4.666" transform="translate(-919.114 -244.415)" style="fill:#adb0b1"/><path d="M1247.145,281.881c-1.437-1.585-3.832-4.678-3.832-6.837s2.395-5.251,3.833-6.837c1.563,1.576,4.2,4.685,4.2,6.837s-2.639,5.26-4.2,6.837m-.027-14.9s-4.666,4.665-4.666,8.06,4.666,8.059,4.666,8.059,5.09-4.666,5.09-8.059-5.09-8.06-5.09-8.06" transform="translate(-919.114 -244.415)" style="fill:#adb0b1"/><path d="M1203.03,281.881c-1.437-1.585-3.832-4.678-3.832-6.837s2.395-5.251,3.833-6.837c1.563,1.576,4.2,4.685,4.2,6.837s-2.639,5.26-4.2,6.837m-.026-14.9s-4.667,4.665-4.667,8.06S1203,283.1,1203,283.1s5.09-4.666,5.09-8.059-5.09-8.06-5.09-8.06" transform="translate(-919.114 -244.415)" style="fill:#adb0b1"/><path d="M1258.453,268.032c-2.151,0-5.26-2.639-6.836-4.2,1.586-1.438,4.681-3.833,6.836-3.833s5.251,2.4,6.837,3.833c-1.574,1.564-4.681,4.2-6.837,4.2m0-8.895c-3.393,0-8.059,4.665-8.059,4.665s4.666,5.09,8.059,5.09,8.06-5.09,8.06-5.09-4.666-4.665-8.06-4.665" transform="translate(-919.114 -244.415)" style="fill:#adb0b1"/><path d="M1280.511,268.032c-2.151,0-5.261-2.639-6.837-4.2,1.586-1.438,4.681-3.833,6.837-3.833s5.251,2.4,6.837,3.833c-1.575,1.564-4.681,4.2-6.837,4.2m0-8.895c-3.394,0-8.059,4.665-8.059,4.665s4.665,5.09,8.059,5.09,8.059-5.09,8.059-5.09-4.666-4.665-8.059-4.665" transform="translate(-919.114 -244.415)" style="fill:#adb0b1"/><path d="M1269.3,281.881c-1.437-1.585-3.833-4.678-3.833-6.837s2.4-5.251,3.833-6.837c1.564,1.576,4.2,4.685,4.2,6.837s-2.639,5.26-4.2,6.837m-.027-14.9s-4.666,4.665-4.666,8.06,4.666,8.059,4.666,8.059,5.09-4.666,5.09-8.059-5.09-8.06-5.09-8.06" transform="translate(-919.114 -244.415)" style="fill:#adb0b1"/><path d="M1280.511,290.089c-2.151,0-5.261-2.639-6.837-4.2,1.586-1.437,4.681-3.832,6.837-3.832s5.25,2.395,6.836,3.832c-1.576,1.563-4.685,4.2-6.836,4.2m0-8.895c-3.394,0-8.059,4.666-8.059,4.666s4.665,5.09,8.059,5.09,8.059-5.09,8.059-5.09-4.666-4.666-8.059-4.666" transform="translate(-919.114 -244.415)" style="fill:#adb0b1"/><path d="M1302.568,290.089c-2.152,0-5.26-2.639-6.836-4.2,1.586-1.437,4.68-3.832,6.836-3.832s5.251,2.395,6.837,3.832c-1.576,1.563-4.686,4.2-6.837,4.2m0-8.895c-3.394,0-8.059,4.666-8.059,4.666s4.665,5.09,8.059,5.09,8.059-5.09,8.059-5.09-4.666-4.666-8.059-4.666" transform="translate(-919.114 -244.415)" style="fill:#adb0b1"/><path d="M1291.354,281.881c-1.437-1.585-3.832-4.678-3.832-6.837s2.395-5.251,3.833-6.837c1.563,1.576,4.2,4.685,4.2,6.837s-2.639,5.26-4.2,6.837m-.027-14.9s-4.666,4.665-4.666,8.06,4.666,8.059,4.666,8.059,5.091-4.666,5.091-8.059-5.091-8.06-5.091-8.06" transform="translate(-919.114 -244.415)" style="fill:#adb0b1"/><path d="M1324.625,290.089c-2.151,0-5.26-2.639-6.836-4.2,1.586-1.437,4.681-3.832,6.836-3.832s5.251,2.395,6.837,3.832c-1.576,1.563-4.685,4.2-6.837,4.2m0-8.895c-3.393,0-8.059,4.666-8.059,4.666s4.666,5.09,8.059,5.09,8.06-5.09,8.06-5.09-4.666-4.666-8.06-4.666" transform="translate(-919.114 -244.415)" style="fill:#adb0b1"/><path d="M1346.683,290.089c-2.152,0-5.261-2.639-6.837-4.2,1.586-1.437,4.681-3.832,6.837-3.832s5.25,2.395,6.837,3.832c-1.577,1.563-4.685,4.2-6.837,4.2m0-8.895c-3.394,0-8.059,4.666-8.059,4.666s4.665,5.09,8.059,5.09,8.059-5.09,8.059-5.09-4.666-4.666-8.059-4.666" transform="translate(-919.114 -244.415)" style="fill:#adb0b1"/><path d="M1335.469,281.881c-1.437-1.585-3.833-4.678-3.833-6.837s2.4-5.251,3.833-6.837c1.564,1.576,4.2,4.685,4.2,6.837s-2.639,5.26-4.2,6.837m-.027-14.9s-4.666,4.665-4.666,8.06,4.666,8.059,4.666,8.059,5.09-4.666,5.09-8.059-5.09-8.06-5.09-8.06" transform="translate(-919.114 -244.415)" style="fill:#adb0b1"/><path d="M1369.164,290.089c-2.151,0-5.26-2.639-6.837-4.2,1.587-1.437,4.682-3.832,6.837-3.832s5.251,2.395,6.837,3.832c-1.576,1.563-4.686,4.2-6.837,4.2m0-8.895c-3.393,0-8.059,4.666-8.059,4.666s4.666,5.09,8.059,5.09,8.06-5.09,8.06-5.09-4.666-4.666-8.06-4.666" transform="translate(-919.114 -244.415)" style="fill:#adb0b1"/><path d="M1391.222,290.089c-2.151,0-5.261-2.639-6.837-4.2,1.586-1.437,4.681-3.832,6.837-3.832s5.25,2.395,6.837,3.832c-1.577,1.563-4.686,4.2-6.837,4.2m0-8.895c-3.394,0-8.06,4.666-8.06,4.666s4.666,5.09,8.06,5.09,8.059-5.09,8.059-5.09-4.666-4.666-8.059-4.666" transform="translate(-919.114 -244.415)" style="fill:#adb0b1"/><path d="M1380.008,281.881c-1.438-1.585-3.833-4.678-3.833-6.837s2.4-5.251,3.833-6.837c1.564,1.576,4.2,4.685,4.2,6.837s-2.64,5.26-4.2,6.837m-.027-14.9s-4.666,4.665-4.666,8.06,4.666,8.059,4.666,8.059,5.09-4.666,5.09-8.059-5.09-8.06-5.09-8.06" transform="translate(-919.114 -244.415)" style="fill:#adb0b1"/><path d="M1413.279,290.089c-2.151,0-5.261-2.639-6.837-4.2,1.587-1.437,4.682-3.832,6.837-3.832s5.251,2.395,6.837,3.832c-1.576,1.563-4.686,4.2-6.837,4.2m0-8.895c-3.393,0-8.06,4.666-8.06,4.666s4.667,5.09,8.06,5.09,8.059-5.09,8.059-5.09-4.666-4.666-8.059-4.666" transform="translate(-919.114 -244.415)" style="fill:#adb0b1"/><path d="M1435.337,290.089c-2.152,0-5.261-2.639-6.837-4.2,1.586-1.437,4.681-3.832,6.837-3.832s5.25,2.395,6.836,3.832c-1.576,1.563-4.685,4.2-6.836,4.2m0-8.895c-3.394,0-8.06,4.666-8.06,4.666s4.666,5.09,8.06,5.09,8.059-5.09,8.059-5.09-4.666-4.666-8.059-4.666" transform="translate(-919.114 -244.415)" style="fill:#adb0b1"/><path d="M1424.123,281.881c-1.438-1.585-3.833-4.678-3.833-6.837s2.4-5.251,3.833-6.837c1.563,1.576,4.2,4.685,4.2,6.837s-2.639,5.26-4.2,6.837m-.027-14.9s-4.666,4.665-4.666,8.06,4.666,8.059,4.666,8.059,5.09-4.666,5.09-8.059-5.09-8.06-5.09-8.06" transform="translate(-919.114 -244.415)" style="fill:#adb0b1"/><path d="M1457.394,290.089c-2.151,0-5.261-2.639-6.837-4.2,1.587-1.437,4.681-3.832,6.837-3.832s5.25,2.395,6.836,3.832c-1.576,1.563-4.685,4.2-6.836,4.2m0-8.895c-3.393,0-8.06,4.666-8.06,4.666s4.667,5.09,8.06,5.09,8.059-5.09,8.059-5.09-4.666-4.666-8.059-4.666" transform="translate(-919.114 -244.415)" style="fill:#adb0b1"/><path d="M1479.451,290.089c-2.151,0-5.26-2.639-6.837-4.2,1.587-1.437,4.681-3.832,6.837-3.832s5.251,2.395,6.837,3.832c-1.576,1.563-4.685,4.2-6.837,4.2m0-8.895c-3.393,0-8.059,4.666-8.059,4.666s4.666,5.09,8.059,5.09,8.059-5.09,8.059-5.09-4.665-4.666-8.059-4.666" transform="translate(-919.114 -244.415)" style="fill:#adb0b1"/><path d="M1468.237,281.881c-1.437-1.585-3.832-4.678-3.832-6.837s2.4-5.251,3.833-6.837c1.563,1.576,4.2,4.685,4.2,6.837s-2.639,5.26-4.2,6.837m-.027-14.9s-4.665,4.665-4.665,8.06,4.665,8.059,4.665,8.059,5.09-4.666,5.09-8.059-5.09-8.06-5.09-8.06" transform="translate(-919.114 -244.415)" style="fill:#adb0b1"/><path d="M1501.509,290.089c-2.152,0-5.261-2.639-6.837-4.2,1.586-1.437,4.68-3.832,6.837-3.832s5.25,2.395,6.836,3.832c-1.576,1.563-4.685,4.2-6.836,4.2m0-8.895c-3.394,0-8.06,4.666-8.06,4.666s4.666,5.09,8.06,5.09,8.059-5.09,8.059-5.09-4.666-4.666-8.059-4.666" transform="translate(-919.114 -244.415)" style="fill:#adb0b1"/><path d="M1523.566,290.089c-2.152,0-5.26-2.639-6.837-4.2,1.587-1.437,4.681-3.832,6.837-3.832s5.251,2.395,6.836,3.832c-1.575,1.563-4.684,4.2-6.836,4.2m0-8.895c-3.394,0-8.06,4.666-8.06,4.666s4.666,5.09,8.06,5.09,8.059-5.09,8.059-5.09-4.665-4.666-8.059-4.666" transform="translate(-919.114 -244.415)" style="fill:#adb0b1"/><path d="M1512.352,281.881c-1.437-1.585-3.832-4.678-3.832-6.837s2.395-5.251,3.833-6.837c1.563,1.576,4.2,4.685,4.2,6.837s-2.638,5.26-4.2,6.837m-.027-14.9s-4.666,4.665-4.666,8.06,4.666,8.059,4.666,8.059,5.09-4.666,5.09-8.059-5.09-8.06-5.09-8.06" transform="translate(-919.114 -244.415)" style="fill:#adb0b1"/><path d="M1545.624,290.089c-2.152,0-5.261-2.639-6.838-4.2,1.587-1.437,4.681-3.832,6.838-3.832s5.25,2.395,6.836,3.832c-1.577,1.563-4.685,4.2-6.836,4.2m0-8.895c-3.395,0-8.06,4.666-8.06,4.666s4.665,5.09,8.06,5.09,8.059-5.09,8.059-5.09-4.666-4.666-8.059-4.666" transform="translate(-919.114 -244.415)" style="fill:#adb0b1"/><path d="M1567.68,290.089c-2.151,0-5.259-2.639-6.836-4.2,1.587-1.437,4.681-3.832,6.836-3.832s5.251,2.395,6.837,3.832c-1.576,1.563-4.685,4.2-6.837,4.2m0-8.895c-3.393,0-8.059,4.666-8.059,4.666s4.666,5.09,8.059,5.09,8.06-5.09,8.06-5.09-4.666-4.666-8.06-4.666" transform="translate(-919.114 -244.415)" style="fill:#adb0b1"/><path d="M1556.467,281.881c-1.437-1.585-3.832-4.678-3.832-6.837s2.395-5.251,3.832-6.837c1.564,1.576,4.2,4.685,4.2,6.837s-2.638,5.26-4.2,6.837m-.027-14.9s-4.666,4.665-4.666,8.06,4.666,8.059,4.666,8.059,5.09-4.666,5.09-8.059-5.09-8.06-5.09-8.06" transform="translate(-919.114 -244.415)" style="fill:#adb0b1"/><path d="M1589.738,290.089c-2.152,0-5.26-2.639-6.836-4.2,1.585-1.437,4.68-3.832,6.836-3.832s5.25,2.395,6.837,3.832c-1.577,1.563-4.685,4.2-6.837,4.2m0-8.895c-3.394,0-8.059,4.666-8.059,4.666s4.665,5.09,8.059,5.09,8.059-5.09,8.059-5.09-4.665-4.666-8.059-4.666" transform="translate(-919.114 -244.415)" style="fill:#adb0b1"/><path d="M1611.8,290.089c-2.151,0-5.261-2.639-6.836-4.2,1.585-1.437,4.681-3.832,6.836-3.832s5.251,2.395,6.837,3.832c-1.576,1.563-4.685,4.2-6.837,4.2m0-8.895c-3.393,0-8.059,4.666-8.059,4.666s4.666,5.09,8.059,5.09,8.06-5.09,8.06-5.09-4.666-4.666-8.06-4.666" transform="translate(-919.114 -244.415)" style="fill:#adb0b1"/><path d="M1600.582,281.881c-1.437-1.585-3.833-4.678-3.833-6.837s2.4-5.251,3.833-6.837c1.563,1.576,4.2,4.685,4.2,6.837s-2.639,5.26-4.2,6.837m-.027-14.9s-4.667,4.665-4.667,8.06,4.667,8.059,4.667,8.059,5.09-4.666,5.09-8.059-5.09-8.06-5.09-8.06" transform="translate(-919.114 -244.415)" style="fill:#adb0b1"/><path d="M1302.662,268.032c-2.151,0-5.26-2.639-6.836-4.2,1.586-1.438,4.681-3.833,6.836-3.833s5.251,2.395,6.837,3.833c-1.576,1.563-4.685,4.2-6.837,4.2m0-8.895c-3.393,0-8.059,4.665-8.059,4.665s4.666,5.09,8.059,5.09,8.059-5.09,8.059-5.09-4.665-4.665-8.059-4.665" transform="translate(-919.114 -244.415)" style="fill:#adb0b1"/><path d="M1324.72,268.032c-2.152,0-5.261-2.639-6.837-4.2,1.586-1.438,4.681-3.833,6.837-3.833s5.251,2.395,6.836,3.833c-1.576,1.563-4.685,4.2-6.836,4.2m0-8.895c-3.394,0-8.06,4.665-8.06,4.665s4.666,5.09,8.06,5.09,8.059-5.09,8.059-5.09-4.666-4.665-8.059-4.665" transform="translate(-919.114 -244.415)" style="fill:#adb0b1"/><path d="M1313.506,281.881c-1.437-1.585-3.832-4.678-3.832-6.837s2.395-5.251,3.832-6.837c1.563,1.576,4.2,4.685,4.2,6.837s-2.64,5.26-4.2,6.837m-.027-14.9s-4.666,4.665-4.666,8.06,4.666,8.059,4.666,8.059,5.09-4.666,5.09-8.059-5.09-8.06-5.09-8.06" transform="translate(-919.114 -244.415)" style="fill:#adb0b1"/><path d="M1346.872,268.032c-2.152,0-5.261-2.639-6.837-4.2,1.586-1.438,4.68-3.833,6.837-3.833s5.25,2.395,6.836,3.833c-1.576,1.563-4.685,4.2-6.836,4.2m0-8.895c-3.394,0-8.06,4.665-8.06,4.665s4.666,5.09,8.06,5.09,8.058-5.09,8.058-5.09-4.665-4.665-8.058-4.665" transform="translate(-919.114 -244.415)" style="fill:#adb0b1"/><path d="M1368.929,268.032c-2.152,0-5.261-2.639-6.837-4.2,1.587-1.438,4.681-3.833,6.837-3.833s5.251,2.4,6.837,3.833c-1.575,1.564-4.682,4.2-6.837,4.2m0-8.895c-3.394,0-8.06,4.665-8.06,4.665s4.666,5.09,8.06,5.09,8.059-5.09,8.059-5.09-4.666-4.665-8.059-4.665" transform="translate(-919.114 -244.415)" style="fill:#adb0b1"/><path d="M1357.715,281.881c-1.437-1.585-3.832-4.678-3.832-6.837s2.395-5.251,3.832-6.837c1.563,1.576,4.2,4.685,4.2,6.837s-2.639,5.26-4.2,6.837m-.027-14.9s-4.666,4.665-4.666,8.06,4.666,8.059,4.666,8.059,5.09-4.666,5.09-8.059-5.09-8.06-5.09-8.06" transform="translate(-919.114 -244.415)" style="fill:#adb0b1"/><path d="M1391.08,268.032c-2.151,0-5.26-2.639-6.836-4.2,1.586-1.438,4.68-3.833,6.836-3.833s5.251,2.395,6.837,3.833c-1.576,1.563-4.685,4.2-6.837,4.2m0-8.895c-3.393,0-8.059,4.665-8.059,4.665s4.666,5.09,8.059,5.09,8.059-5.09,8.059-5.09-4.665-4.665-8.059-4.665" transform="translate(-919.114 -244.415)" style="fill:#adb0b1"/><path d="M1413.138,268.032c-2.151,0-5.261-2.639-6.837-4.2,1.586-1.438,4.681-3.833,6.837-3.833s5.251,2.395,6.836,3.833c-1.575,1.563-4.685,4.2-6.836,4.2m0-8.895c-3.393,0-8.06,4.665-8.06,4.665s4.667,5.09,8.06,5.09,8.059-5.09,8.059-5.09-4.666-4.665-8.059-4.665" transform="translate(-919.114 -244.415)" style="fill:#adb0b1"/><path d="M1401.925,281.88c-1.438-1.587-3.833-4.681-3.833-6.836s2.395-5.251,3.833-6.837c1.562,1.576,4.2,4.685,4.2,6.837s-2.639,5.259-4.2,6.836m-.028-14.9s-4.666,4.665-4.666,8.06,4.666,8.059,4.666,8.059,5.09-4.666,5.09-8.059-5.09-8.06-5.09-8.06" transform="translate(-919.114 -244.415)" style="fill:#adb0b1"/><path d="M1435.289,268.032c-2.151,0-5.26-2.639-6.836-4.2,1.586-1.438,4.681-3.833,6.836-3.833s5.251,2.395,6.837,3.833c-1.576,1.563-4.685,4.2-6.837,4.2m0-8.895c-3.393,0-8.059,4.665-8.059,4.665s4.666,5.09,8.059,5.09,8.059-5.09,8.059-5.09-4.665-4.665-8.059-4.665" transform="translate(-919.114 -244.415)" style="fill:#adb0b1"/><path d="M1457.347,268.032c-2.151,0-5.261-2.639-6.837-4.2,1.586-1.438,4.681-3.833,6.837-3.833s5.251,2.395,6.836,3.833c-1.575,1.563-4.685,4.2-6.836,4.2m0-8.895c-3.393,0-8.06,4.665-8.06,4.665s4.667,5.09,8.06,5.09,8.059-5.09,8.059-5.09-4.666-4.665-8.059-4.665" transform="translate(-919.114 -244.415)" style="fill:#adb0b1"/><path d="M1446.133,281.88c-1.437-1.587-3.832-4.681-3.832-6.836s2.395-5.251,3.832-6.837c1.563,1.576,4.2,4.685,4.2,6.837s-2.639,5.259-4.2,6.836m-.027-14.9s-4.666,4.665-4.666,8.06,4.666,8.059,4.666,8.059,5.09-4.666,5.09-8.059-5.09-8.06-5.09-8.06" transform="translate(-919.114 -244.415)" style="fill:#adb0b1"/><path d="M1479.5,268.032c-2.151,0-5.26-2.639-6.836-4.2,1.586-1.438,4.681-3.833,6.836-3.833s5.251,2.395,6.837,3.833c-1.576,1.563-4.685,4.2-6.837,4.2m0-8.895c-3.393,0-8.059,4.665-8.059,4.665s4.666,5.09,8.059,5.09,8.059-5.09,8.059-5.09-4.665-4.665-8.059-4.665" transform="translate(-919.114 -244.415)" style="fill:#adb0b1"/><path d="M1501.556,268.032c-2.152,0-5.262-2.639-6.837-4.2,1.584-1.437,4.676-3.832,6.837-3.832s5.25,2.395,6.836,3.833c-1.575,1.563-4.685,4.2-6.836,4.2m0-8.895c-3.393,0-8.06,4.665-8.06,4.665s4.667,5.09,8.06,5.09,8.059-5.09,8.059-5.09-4.666-4.665-8.059-4.665" transform="translate(-919.114 -244.415)" style="fill:#adb0b1"/><path d="M1490.341,281.881c-1.436-1.585-3.831-4.678-3.831-6.837s2.395-5.251,3.832-6.837c1.563,1.576,4.2,4.685,4.2,6.837s-2.64,5.26-4.2,6.837m-.026-14.9s-4.666,4.665-4.666,8.06,4.666,8.059,4.666,8.059,5.09-4.666,5.09-8.059-5.09-8.06-5.09-8.06" transform="translate(-919.114 -244.415)" style="fill:#adb0b1"/><path d="M1523.707,268.032c-2.151,0-5.26-2.639-6.837-4.2,1.587-1.438,4.682-3.833,6.837-3.833s5.251,2.395,6.837,3.833c-1.576,1.563-4.685,4.2-6.837,4.2m0-8.895c-3.393,0-8.059,4.665-8.059,4.665s4.666,5.09,8.059,5.09,8.059-5.09,8.059-5.09-4.665-4.665-8.059-4.665" transform="translate(-919.114 -244.415)" style="fill:#adb0b1"/><path d="M1545.765,268.032c-2.151,0-5.261-2.639-6.837-4.2,1.586-1.438,4.681-3.833,6.837-3.833s5.25,2.395,6.836,3.833c-1.576,1.563-4.685,4.2-6.836,4.2m0-8.895c-3.393,0-8.06,4.665-8.06,4.665s4.667,5.09,8.06,5.09,8.059-5.09,8.059-5.09-4.666-4.665-8.059-4.665" transform="translate(-919.114 -244.415)" style="fill:#adb0b1"/><path d="M1534.551,281.88c-1.437-1.587-3.832-4.681-3.832-6.836s2.395-5.251,3.832-6.837c1.563,1.576,4.2,4.685,4.2,6.837s-2.64,5.259-4.2,6.836m-.027-14.9s-4.666,4.665-4.666,8.06,4.666,8.059,4.666,8.059,5.09-4.666,5.09-8.059-5.09-8.06-5.09-8.06" transform="translate(-919.114 -244.415)" style="fill:#adb0b1"/><path d="M1567.916,268.032c-2.151,0-5.26-2.639-6.837-4.2,1.587-1.438,4.682-3.833,6.837-3.833s5.251,2.395,6.837,3.833c-1.576,1.563-4.685,4.2-6.837,4.2m0-8.895c-3.393,0-8.059,4.665-8.059,4.665s4.666,5.09,8.059,5.09,8.059-5.09,8.059-5.09-4.665-4.665-8.059-4.665" transform="translate(-919.114 -244.415)" style="fill:#adb0b1"/><path d="M1589.974,268.032c-2.151,0-5.261-2.639-6.837-4.2,1.586-1.438,4.681-3.833,6.837-3.833s5.25,2.395,6.836,3.833c-1.576,1.563-4.685,4.2-6.836,4.2m0-8.895c-3.394,0-8.06,4.665-8.06,4.665s4.666,5.09,8.06,5.09,8.059-5.09,8.059-5.09-4.666-4.665-8.059-4.665" transform="translate(-919.114 -244.415)" style="fill:#adb0b1"/><path d="M1578.76,281.881c-1.438-1.585-3.833-4.678-3.833-6.837s2.4-5.251,3.833-6.837c1.563,1.576,4.2,4.685,4.2,6.837s-2.64,5.26-4.2,6.837m-.027-14.9s-4.666,4.665-4.666,8.06,4.666,8.059,4.666,8.059,5.09-4.666,5.09-8.059-5.09-8.06-5.09-8.06" transform="translate(-919.114 -244.415)" style="fill:#adb0b1"/><path d="M1612.125,268.032c-2.151,0-5.26-2.639-6.837-4.2,1.587-1.438,4.682-3.833,6.837-3.833s5.251,2.395,6.837,3.833c-1.576,1.563-4.685,4.2-6.837,4.2m0-8.895c-3.393,0-8.059,4.665-8.059,4.665s4.666,5.09,8.059,5.09,8.059-5.09,8.059-5.09-4.665-4.665-8.059-4.665" transform="translate(-919.114 -244.415)" style="fill:#adb0b1"/><path d="M1634.183,268.032c-2.151,0-5.261-2.639-6.837-4.2,1.586-1.438,4.681-3.833,6.837-3.833s5.25,2.395,6.836,3.833c-1.576,1.563-4.685,4.2-6.836,4.2m0-8.895c-3.394,0-8.06,4.665-8.06,4.665s4.666,5.09,8.06,5.09,8.059-5.09,8.059-5.09-4.666-4.665-8.059-4.665" transform="translate(-919.114 -244.415)" style="fill:#adb0b1"/><path d="M1622.969,281.881c-1.438-1.585-3.833-4.678-3.833-6.837s2.4-5.251,3.833-6.837c1.564,1.576,4.2,4.685,4.2,6.837s-2.64,5.26-4.2,6.837m-.027-14.9s-4.666,4.665-4.666,8.06,4.666,8.059,4.666,8.059,5.09-4.666,5.09-8.059-5.09-8.06-5.09-8.06" transform="translate(-919.114 -244.415)" style="fill:#adb0b1"/><path d="M1214.036,289.924c-2.151,0-5.26-2.64-6.836-4.2,1.586-1.438,4.681-3.833,6.836-3.833s5.251,2.4,6.837,3.833c-1.576,1.563-4.685,4.2-6.837,4.2m0-8.9c-3.393,0-8.059,4.665-8.059,4.665s4.666,5.091,8.059,5.091,8.06-5.091,8.06-5.091-4.666-4.665-8.06-4.665" transform="translate(-919.114 -244.415)" style="fill:#adb0b1"/><path d="M1191.974,291.012c-2.152,0-5.261-2.64-6.837-4.2,1.586-1.437,4.681-3.832,6.837-3.832s5.25,2.4,6.836,3.832c-1.576,1.563-4.685,4.2-6.836,4.2m0-8.9c-3.394,0-8.06,4.666-8.06,4.666s4.666,5.091,8.06,5.091,8.059-5.091,8.059-5.091-4.666-4.666-8.059-4.666" transform="translate(-919.114 -244.415)" style="fill:#adb0b1"/><path d="M1192.187,268.881c-2.151,0-5.261-2.639-6.837-4.2,1.586-1.437,4.682-3.833,6.837-3.833s5.251,2.4,6.836,3.833c-1.575,1.564-4.684,4.2-6.836,4.2m0-8.9c-3.393,0-8.059,4.666-8.059,4.666s4.666,5.09,8.059,5.09,8.059-5.09,8.059-5.09-4.666-4.666-8.059-4.666" transform="translate(-919.114 -244.415)" style="fill:#adb0b1"/><path d="M1247.146,259.735c-1.438-1.586-3.833-4.681-3.833-6.837s2.4-5.251,3.833-6.837c1.563,1.575,4.2,4.682,4.2,6.837s-2.639,5.261-4.2,6.837m-.028-14.9s-4.666,4.666-4.666,8.059,4.666,8.06,4.666,8.06,5.09-4.666,5.09-8.06-5.09-8.059-5.09-8.059" transform="translate(-919.114 -244.415)" style="fill:#adb0b1"/><path d="M1291.685,259.735c-1.438-1.586-3.833-4.681-3.833-6.837s2.395-5.251,3.833-6.837c1.563,1.575,4.2,4.682,4.2,6.837s-2.639,5.261-4.2,6.837m-.028-14.9s-4.666,4.666-4.666,8.059,4.666,8.06,4.666,8.06,5.091-4.666,5.091-8.06-5.091-8.059-5.091-8.059" transform="translate(-919.114 -244.415)" style="fill:#adb0b1"/><path d="M1335.375,259.735c-1.437-1.586-3.833-4.681-3.833-6.837s2.4-5.251,3.834-6.837c1.563,1.575,4.2,4.682,4.2,6.837s-2.639,5.261-4.2,6.837m-.027-14.9s-4.666,4.666-4.666,8.059,4.666,8.06,4.666,8.06,5.09-4.666,5.09-8.06-5.09-8.059-5.09-8.059" transform="translate(-919.114 -244.415)" style="fill:#adb0b1"/><path d="M1379.914,259.311c-1.437-1.586-3.833-4.681-3.833-6.836s2.4-5.252,3.833-6.838c1.564,1.575,4.2,4.681,4.2,6.838s-2.64,5.26-4.2,6.836m-.028-14.9s-4.665,4.666-4.665,8.06,4.665,8.058,4.665,8.058,5.091-4.665,5.091-8.058-5.091-8.06-5.091-8.06" transform="translate(-919.114 -244.415)" style="fill:#adb0b1"/><path d="M1424.029,259.735c-1.438-1.586-3.833-4.681-3.833-6.837s2.4-5.251,3.833-6.837c1.564,1.575,4.2,4.682,4.2,6.837s-2.639,5.261-4.2,6.837m-.028-14.9s-4.665,4.666-4.665,8.059,4.665,8.06,4.665,8.06,5.09-4.666,5.09-8.06-5.09-8.059-5.09-8.059" transform="translate(-919.114 -244.415)" style="fill:#adb0b1"/><path d="M1468.144,259.735c-1.438-1.586-3.833-4.681-3.833-6.837s2.4-5.251,3.833-6.837c1.563,1.575,4.2,4.682,4.2,6.837s-2.638,5.261-4.2,6.837m-.028-14.9s-4.666,4.666-4.666,8.059,4.666,8.06,4.666,8.06,5.09-4.666,5.09-8.06-5.09-8.059-5.09-8.059" transform="translate(-919.114 -244.415)" style="fill:#adb0b1"/><path d="M1512.258,259.735c-1.437-1.586-3.832-4.681-3.832-6.837s2.4-5.251,3.832-6.837c1.564,1.575,4.2,4.682,4.2,6.837s-2.638,5.261-4.2,6.837m-.027-14.9s-4.666,4.666-4.666,8.059,4.666,8.06,4.666,8.06,5.09-4.666,5.09-8.06-5.09-8.059-5.09-8.059" transform="translate(-919.114 -244.415)" style="fill:#adb0b1"/><path d="M1556.373,259.735c-1.437-1.586-3.833-4.681-3.833-6.837s2.4-5.251,3.833-6.837c1.563,1.575,4.2,4.682,4.2,6.837s-2.639,5.261-4.2,6.837m-.027-14.9s-4.667,4.666-4.667,8.059,4.667,8.06,4.667,8.06,5.09-4.666,5.09-8.06-5.09-8.059-5.09-8.059" transform="translate(-919.114 -244.415)" style="fill:#adb0b1"/><path d="M1600.487,259.735c-1.437-1.586-3.833-4.681-3.833-6.837s2.4-5.251,3.834-6.837c1.563,1.575,4.2,4.682,4.2,6.837s-2.639,5.261-4.2,6.837m-.026-14.9s-4.667,4.666-4.667,8.059,4.667,8.06,4.667,8.06,5.089-4.666,5.089-8.06-5.089-8.059-5.089-8.059" transform="translate(-919.114 -244.415)" style="fill:#adb0b1"/><path d="M1203.031,259.735c-1.438-1.586-3.833-4.681-3.833-6.837s2.4-5.251,3.833-6.837c1.564,1.575,4.2,4.682,4.2,6.837s-2.639,5.261-4.2,6.837m-.027-14.9s-4.667,4.666-4.667,8.059,4.667,8.06,4.667,8.06,5.09-4.666,5.09-8.06-5.09-8.059-5.09-8.059" transform="translate(-919.114 -244.415)" style="fill:#adb0b1"/><path d="M1622.639,259.735c-1.437-1.586-3.833-4.681-3.833-6.837s2.4-5.251,3.834-6.837c1.563,1.575,4.2,4.682,4.2,6.837s-2.638,5.261-4.2,6.837m-.027-14.9s-4.666,4.666-4.666,8.059,4.666,8.06,4.666,8.06,5.09-4.666,5.09-8.06-5.09-8.059-5.09-8.059" transform="translate(-919.114 -244.415)" style="fill:#adb0b1"/><path d="M1578.524,259.735c-1.437-1.586-3.832-4.681-3.832-6.837s2.4-5.251,3.833-6.837c1.563,1.575,4.2,4.682,4.2,6.837s-2.639,5.261-4.2,6.837m-.027-14.9s-4.665,4.666-4.665,8.059,4.665,8.06,4.665,8.06,5.09-4.666,5.09-8.06-5.09-8.059-5.09-8.059" transform="translate(-919.114 -244.415)" style="fill:#adb0b1"/><path d="M1534.41,259.735c-1.438-1.586-3.833-4.681-3.833-6.837s2.4-5.251,3.833-6.837c1.564,1.575,4.2,4.682,4.2,6.837s-2.639,5.261-4.2,6.837m-.028-14.9s-4.665,4.666-4.665,8.059,4.665,8.06,4.665,8.06,5.09-4.666,5.09-8.06-5.09-8.059-5.09-8.059" transform="translate(-919.114 -244.415)" style="fill:#adb0b1"/><path d="M1490.3,259.735c-1.438-1.586-3.833-4.681-3.833-6.837s2.4-5.251,3.833-6.837c1.564,1.575,4.2,4.682,4.2,6.837s-2.639,5.261-4.2,6.837m-.028-14.9s-4.665,4.666-4.665,8.059,4.665,8.06,4.665,8.06,5.09-4.666,5.09-8.06-5.09-8.059-5.09-8.059" transform="translate(-919.114 -244.415)" style="fill:#adb0b1"/><path d="M1446.18,259.735c-1.436-1.586-3.832-4.681-3.832-6.837s2.4-5.251,3.832-6.837c1.564,1.575,4.2,4.682,4.2,6.837s-2.639,5.261-4.2,6.837m-.027-14.9s-4.666,4.666-4.666,8.059,4.666,8.06,4.666,8.06,5.09-4.666,5.09-8.06-5.09-8.059-5.09-8.059" transform="translate(-919.114 -244.415)" style="fill:#adb0b1"/><path d="M1401.641,259.735c-1.437-1.586-3.833-4.681-3.833-6.837s2.4-5.251,3.834-6.837c1.563,1.575,4.2,4.682,4.2,6.837s-2.639,5.261-4.2,6.837m-.027-14.9s-4.666,4.666-4.666,8.059,4.666,8.06,4.666,8.06,5.09-4.666,5.09-8.06-5.09-8.059-5.09-8.059" transform="translate(-919.114 -244.415)" style="fill:#adb0b1"/><path d="M1357.526,259.735c-1.437-1.586-3.833-4.681-3.833-6.837s2.4-5.251,3.834-6.837c1.563,1.575,4.2,4.682,4.2,6.837s-2.639,5.261-4.2,6.837m-.026-14.9s-4.667,4.666-4.667,8.059,4.667,8.06,4.667,8.06,5.089-4.666,5.089-8.06-5.089-8.059-5.089-8.059" transform="translate(-919.114 -244.415)" style="fill:#adb0b1"/><path d="M1313.412,259.735c-1.437-1.586-3.833-4.681-3.833-6.837s2.4-5.251,3.834-6.837c1.563,1.575,4.2,4.682,4.2,6.837s-2.639,5.261-4.2,6.837m-.027-14.9s-4.667,4.666-4.667,8.059,4.667,8.06,4.667,8.06,5.09-4.666,5.09-8.06-5.09-8.059-5.09-8.059" transform="translate(-919.114 -244.415)" style="fill:#adb0b1"/><path d="M1269.3,259.735c-1.437-1.586-3.833-4.681-3.833-6.837s2.4-5.251,3.833-6.837c1.564,1.575,4.2,4.682,4.2,6.837s-2.639,5.261-4.2,6.837m-.027-14.9s-4.666,4.666-4.666,8.059,4.666,8.06,4.666,8.06,5.09-4.666,5.09-8.06-5.09-8.059-5.09-8.059" transform="translate(-919.114 -244.415)" style="fill:#adb0b1"/><path d="M1225.182,259.735c-1.437-1.586-3.832-4.681-3.832-6.837s2.4-5.251,3.833-6.837c1.563,1.575,4.2,4.682,4.2,6.837s-2.639,5.261-4.2,6.837m-.027-14.9s-4.666,4.666-4.666,8.059,4.666,8.06,4.666,8.06,5.091-4.666,5.091-8.06-5.091-8.059-5.091-8.059" transform="translate(-919.114 -244.415)" style="fill:#adb0b1"/><path d="M1634.183,291.012c-2.151,0-5.261-2.639-6.837-4.2,1.586-1.438,4.681-3.833,6.837-3.833s5.25,2.4,6.836,3.833c-1.576,1.563-4.685,4.2-6.836,4.2m0-8.895c-3.394,0-8.06,4.665-8.06,4.665s4.666,5.09,8.06,5.09,8.059-5.09,8.059-5.09-4.666-4.665-8.059-4.665" transform="translate(-919.114 -244.415)" style="fill:#adb0b1"/><path d="M927.173,290.838c-2.151,0-5.261-2.639-6.836-4.2,1.586-1.437,4.681-3.832,6.836-3.832s5.251,2.395,6.837,3.832c-1.576,1.564-4.685,4.2-6.837,4.2m0-8.9c-3.393,0-8.059,4.665-8.059,4.665s4.666,5.09,8.059,5.09,8.06-5.09,8.06-5.09-4.667-4.665-8.06-4.665" transform="translate(-919.114 -244.415)" style="fill:#adb0b1"/><path d="M949.655,290.838c-2.151,0-5.261-2.639-6.837-4.2,1.586-1.437,4.681-3.832,6.837-3.832s5.251,2.395,6.837,3.832c-1.576,1.564-4.686,4.2-6.837,4.2m0-8.9c-3.393,0-8.06,4.665-8.06,4.665s4.667,5.09,8.06,5.09,8.06-5.09,8.06-5.09-4.667-4.665-8.06-4.665" transform="translate(-919.114 -244.415)" style="fill:#adb0b1"/><path d="M971.712,290.838c-2.151,0-5.26-2.639-6.837-4.2,1.587-1.437,4.682-3.832,6.837-3.832s5.251,2.395,6.837,3.832c-1.576,1.564-4.685,4.2-6.837,4.2m0-8.9c-3.393,0-8.059,4.665-8.059,4.665s4.666,5.09,8.059,5.09,8.059-5.09,8.059-5.09-4.665-4.665-8.059-4.665" transform="translate(-919.114 -244.415)" style="fill:#adb0b1"/><path d="M960.5,282.629c-1.438-1.584-3.833-4.677-3.833-6.836s2.4-5.251,3.833-6.838c1.564,1.577,4.2,4.685,4.2,6.838s-2.639,5.26-4.2,6.836m-.027-14.9s-4.667,4.665-4.667,8.06,4.667,8.058,4.667,8.058,5.09-4.665,5.09-8.058-5.09-8.06-5.09-8.06" transform="translate(-919.114 -244.415)" style="fill:#adb0b1"/><path d="M993.77,290.838c-2.151,0-5.261-2.639-6.837-4.2,1.586-1.437,4.681-3.832,6.837-3.832s5.25,2.395,6.837,3.832c-1.577,1.564-4.686,4.2-6.837,4.2m0-8.9c-3.394,0-8.06,4.665-8.06,4.665s4.666,5.09,8.06,5.09,8.059-5.09,8.059-5.09-4.666-4.665-8.059-4.665" transform="translate(-919.114 -244.415)" style="fill:#adb0b1"/><path d="M1015.827,290.838c-2.151,0-5.26-2.639-6.837-4.2,1.587-1.437,4.682-3.832,6.837-3.832s5.251,2.395,6.836,3.832c-1.575,1.564-4.685,4.2-6.836,4.2m0-8.9c-3.393,0-8.06,4.665-8.06,4.665s4.667,5.09,8.06,5.09,8.059-5.09,8.059-5.09-4.666-4.665-8.059-4.665" transform="translate(-919.114 -244.415)" style="fill:#adb0b1"/><path d="M1004.614,282.629c-1.438-1.584-3.833-4.677-3.833-6.836s2.4-5.251,3.833-6.838c1.563,1.577,4.2,4.685,4.2,6.838s-2.639,5.26-4.2,6.836m-.027-14.9s-4.667,4.665-4.667,8.06,4.667,8.058,4.667,8.058,5.09-4.665,5.09-8.058-5.09-8.06-5.09-8.06" transform="translate(-919.114 -244.415)" style="fill:#adb0b1"/><path d="M1037.885,290.838c-2.152,0-5.261-2.639-6.837-4.2,1.586-1.437,4.681-3.832,6.837-3.832s5.25,2.395,6.836,3.832c-1.576,1.564-4.685,4.2-6.836,4.2m0-8.9c-3.394,0-8.06,4.665-8.06,4.665s4.666,5.09,8.06,5.09,8.058-5.09,8.058-5.09-4.665-4.665-8.058-4.665" transform="translate(-919.114 -244.415)" style="fill:#adb0b1"/><path d="M1059.942,290.838c-2.151,0-5.261-2.639-6.837-4.2,1.586-1.437,4.681-3.832,6.837-3.832s5.251,2.395,6.836,3.832c-1.575,1.564-4.685,4.2-6.836,4.2m0-8.9c-3.393,0-8.06,4.665-8.06,4.665s4.667,5.09,8.06,5.09,8.059-5.09,8.059-5.09-4.666-4.665-8.059-4.665" transform="translate(-919.114 -244.415)" style="fill:#adb0b1"/><path d="M1048.728,282.629c-1.437-1.584-3.832-4.677-3.832-6.836s2.4-5.251,3.832-6.838c1.563,1.577,4.2,4.685,4.2,6.838s-2.639,5.26-4.2,6.836m-.027-14.9s-4.666,4.665-4.666,8.06,4.666,8.058,4.666,8.058,5.09-4.665,5.09-8.058-5.09-8.06-5.09-8.06" transform="translate(-919.114 -244.415)" style="fill:#adb0b1"/><path d="M1082,290.838c-2.151,0-5.26-2.639-6.837-4.2,1.587-1.437,4.681-3.832,6.837-3.832s5.251,2.395,6.837,3.832c-1.576,1.564-4.685,4.2-6.837,4.2m0-8.9c-3.393,0-8.059,4.665-8.059,4.665s4.666,5.09,8.059,5.09,8.059-5.09,8.059-5.09-4.665-4.665-8.059-4.665" transform="translate(-919.114 -244.415)" style="fill:#adb0b1"/><path d="M1104.057,290.838c-2.152,0-5.261-2.639-6.837-4.2,1.586-1.437,4.68-3.832,6.837-3.832s5.25,2.395,6.836,3.832c-1.576,1.564-4.685,4.2-6.836,4.2m0-8.9c-3.394,0-8.06,4.665-8.06,4.665s4.666,5.09,8.06,5.09,8.059-5.09,8.059-5.09-4.666-4.665-8.059-4.665" transform="translate(-919.114 -244.415)" style="fill:#adb0b1"/><path d="M1092.842,282.629c-1.437-1.584-3.832-4.677-3.832-6.836s2.395-5.251,3.833-6.838c1.563,1.577,4.2,4.685,4.2,6.838s-2.639,5.26-4.2,6.836m-.027-14.9s-4.665,4.665-4.665,8.06,4.665,8.058,4.665,8.058,5.09-4.665,5.09-8.058-5.09-8.06-5.09-8.06" transform="translate(-919.114 -244.415)" style="fill:#adb0b1"/><path d="M1126.114,290.838c-2.152,0-5.26-2.639-6.837-4.2,1.587-1.437,4.681-3.832,6.837-3.832s5.251,2.395,6.836,3.832c-1.576,1.564-4.685,4.2-6.836,4.2m0-8.9c-3.394,0-8.06,4.665-8.06,4.665s4.666,5.09,8.06,5.09,8.059-5.09,8.059-5.09-4.666-4.665-8.059-4.665" transform="translate(-919.114 -244.415)" style="fill:#adb0b1"/><path d="M1148.171,290.838c-2.152,0-5.26-2.639-6.836-4.2,1.586-1.437,4.68-3.832,6.836-3.832s5.25,2.395,6.837,3.832c-1.577,1.564-4.685,4.2-6.837,4.2m0-8.9c-3.393,0-8.059,4.665-8.059,4.665s4.666,5.09,8.059,5.09,8.06-5.09,8.06-5.09-4.666-4.665-8.06-4.665" transform="translate(-919.114 -244.415)" style="fill:#adb0b1"/><path d="M1136.957,282.629c-1.437-1.584-3.832-4.677-3.832-6.836s2.395-5.251,3.833-6.838c1.563,1.577,4.2,4.685,4.2,6.838s-2.639,5.26-4.2,6.836m-.027-14.9s-4.665,4.665-4.665,8.06,4.665,8.058,4.665,8.058,5.09-4.665,5.09-8.058-5.09-8.06-5.09-8.06" transform="translate(-919.114 -244.415)" style="fill:#adb0b1"/><path d="M1170.228,290.838c-2.151,0-5.26-2.639-6.836-4.2,1.586-1.437,4.681-3.832,6.836-3.832s5.251,2.395,6.837,3.832c-1.576,1.564-4.685,4.2-6.837,4.2m0-8.9c-3.393,0-8.059,4.665-8.059,4.665s4.666,5.09,8.059,5.09,8.06-5.09,8.06-5.09-4.666-4.665-8.06-4.665" transform="translate(-919.114 -244.415)" style="fill:#adb0b1"/><path d="M1181.072,282.629c-1.437-1.584-3.833-4.677-3.833-6.836s2.4-5.251,3.833-6.838c1.564,1.577,4.2,4.685,4.2,6.838s-2.639,5.26-4.2,6.836m-.027-14.9s-4.666,4.665-4.666,8.06,4.666,8.058,4.666,8.058,5.09-4.665,5.09-8.058-5.09-8.06-5.09-8.06" transform="translate(-919.114 -244.415)" style="fill:#adb0b1"/><path d="M927.362,268.781c-2.152,0-5.26-2.639-6.837-4.2,1.587-1.438,4.681-3.833,6.837-3.833s5.251,2.4,6.836,3.833c-1.575,1.563-4.684,4.2-6.836,4.2m0-8.9c-3.393,0-8.06,4.666-8.06,4.666s4.667,5.09,8.06,5.09,8.059-5.09,8.059-5.09-4.665-4.666-8.059-4.666" transform="translate(-919.114 -244.415)" style="fill:#adb0b1"/><path d="M949.42,268.781c-2.152,0-5.261-2.639-6.838-4.2,1.587-1.438,4.681-3.833,6.838-3.833s5.25,2.4,6.837,3.833c-1.575,1.564-4.682,4.2-6.837,4.2m0-8.9c-3.395,0-8.06,4.666-8.06,4.666s4.665,5.09,8.06,5.09,8.058-5.09,8.058-5.09-4.665-4.666-8.058-4.666" transform="translate(-919.114 -244.415)" style="fill:#adb0b1"/><path d="M938.205,282.629c-1.437-1.584-3.832-4.677-3.832-6.836s2.395-5.251,3.833-6.838c1.563,1.577,4.2,4.685,4.2,6.838s-2.639,5.26-4.2,6.836m-.027-14.9s-4.665,4.665-4.665,8.06,4.665,8.058,4.665,8.058,5.09-4.665,5.09-8.058-5.09-8.06-5.09-8.06" transform="translate(-919.114 -244.415)" style="fill:#adb0b1"/><path d="M971.571,268.781c-2.151,0-5.26-2.639-6.837-4.2,1.587-1.438,4.681-3.833,6.837-3.833s5.251,2.4,6.836,3.833c-1.575,1.563-4.685,4.2-6.836,4.2m0-8.9c-3.393,0-8.06,4.666-8.06,4.666s4.667,5.09,8.06,5.09,8.059-5.09,8.059-5.09-4.666-4.666-8.059-4.666" transform="translate(-919.114 -244.415)" style="fill:#adb0b1"/><path d="M993.629,268.781c-2.152,0-5.261-2.639-6.837-4.2,1.586-1.438,4.68-3.833,6.837-3.833s5.25,2.4,6.836,3.833c-1.576,1.563-4.685,4.2-6.836,4.2m0-8.9c-3.394,0-8.06,4.666-8.06,4.666s4.666,5.09,8.06,5.09,8.058-5.09,8.058-5.09-4.665-4.666-8.058-4.666" transform="translate(-919.114 -244.415)" style="fill:#adb0b1"/><path d="M982.415,282.629c-1.438-1.587-3.833-4.681-3.833-6.836s2.395-5.251,3.833-6.838c1.563,1.577,4.2,4.685,4.2,6.838s-2.639,5.259-4.2,6.836m-.028-14.9s-4.665,4.665-4.665,8.06,4.665,8.058,4.665,8.058,5.09-4.665,5.09-8.058-5.09-8.06-5.09-8.06" transform="translate(-919.114 -244.415)" style="fill:#adb0b1"/><path d="M1015.78,268.781c-2.151,0-5.26-2.639-6.837-4.2,1.587-1.438,4.682-3.833,6.837-3.833s5.25,2.4,6.836,3.833c-1.575,1.563-4.685,4.2-6.836,4.2m0-8.9c-3.393,0-8.06,4.666-8.06,4.666s4.667,5.09,8.06,5.09,8.059-5.09,8.059-5.09-4.665-4.666-8.059-4.666" transform="translate(-919.114 -244.415)" style="fill:#adb0b1"/><path d="M1037.837,268.781c-2.151,0-5.26-2.639-6.837-4.2,1.587-1.438,4.681-3.833,6.837-3.833s5.251,2.4,6.837,3.833c-1.576,1.563-4.685,4.2-6.837,4.2m0-8.9c-3.393,0-8.059,4.666-8.059,4.666s4.666,5.09,8.059,5.09,8.059-5.09,8.059-5.09-4.665-4.666-8.059-4.666" transform="translate(-919.114 -244.415)" style="fill:#adb0b1"/><path d="M1026.624,282.629c-1.438-1.587-3.833-4.681-3.833-6.836s2.395-5.251,3.833-6.838c1.563,1.577,4.2,4.685,4.2,6.838s-2.639,5.259-4.2,6.836m-.028-14.9s-4.665,4.665-4.665,8.06,4.665,8.058,4.665,8.058,5.09-4.665,5.09-8.058-5.09-8.06-5.09-8.06" transform="translate(-919.114 -244.415)" style="fill:#adb0b1"/><path d="M1059.989,268.781c-2.151,0-5.26-2.639-6.837-4.2,1.587-1.438,4.681-3.833,6.837-3.833s5.25,2.4,6.836,3.833c-1.576,1.563-4.685,4.2-6.836,4.2m0-8.9c-3.393,0-8.06,4.666-8.06,4.666s4.667,5.09,8.06,5.09,8.059-5.09,8.059-5.09-4.666-4.666-8.059-4.666" transform="translate(-919.114 -244.415)" style="fill:#adb0b1"/><path d="M1082.046,268.781c-2.152,0-5.261-2.639-6.837-4.2,1.584-1.437,4.677-3.832,6.837-3.832s5.251,2.4,6.837,3.833c-1.576,1.563-4.685,4.2-6.837,4.2m0-8.9c-3.393,0-8.059,4.666-8.059,4.666s4.666,5.09,8.059,5.09,8.059-5.09,8.059-5.09-4.665-4.666-8.059-4.666" transform="translate(-919.114 -244.415)" style="fill:#adb0b1"/><path d="M1070.832,282.629c-1.437-1.584-3.832-4.677-3.832-6.836s2.4-5.251,3.833-6.838c1.563,1.577,4.2,4.685,4.2,6.838s-2.64,5.26-4.2,6.836m-.027-14.9s-4.665,4.665-4.665,8.06,4.665,8.058,4.665,8.058,5.091-4.665,5.091-8.058-5.091-8.06-5.091-8.06" transform="translate(-919.114 -244.415)" style="fill:#adb0b1"/><path d="M1104.2,268.781c-2.151,0-5.26-2.639-6.837-4.2,1.587-1.438,4.681-3.833,6.837-3.833s5.25,2.4,6.836,3.833c-1.575,1.563-4.685,4.2-6.836,4.2m0-8.9c-3.393,0-8.06,4.666-8.06,4.666s4.667,5.09,8.06,5.09,8.059-5.09,8.059-5.09-4.666-4.666-8.059-4.666" transform="translate(-919.114 -244.415)" style="fill:#adb0b1"/><path d="M1126.255,268.781c-2.151,0-5.26-2.639-6.837-4.2,1.587-1.438,4.682-3.833,6.837-3.833s5.251,2.4,6.837,3.833c-1.576,1.563-4.685,4.2-6.837,4.2m0-8.9c-3.393,0-8.059,4.666-8.059,4.666s4.666,5.09,8.059,5.09,8.059-5.09,8.059-5.09-4.665-4.666-8.059-4.666" transform="translate(-919.114 -244.415)" style="fill:#adb0b1"/><path d="M1115.042,282.629c-1.437-1.587-3.833-4.681-3.833-6.836s2.4-5.251,3.833-6.838c1.563,1.577,4.2,4.685,4.2,6.838s-2.639,5.259-4.2,6.836m-.028-14.9s-4.665,4.665-4.665,8.06,4.665,8.058,4.665,8.058,5.091-4.665,5.091-8.058-5.091-8.06-5.091-8.06" transform="translate(-919.114 -244.415)" style="fill:#adb0b1"/><path d="M1148.407,268.781c-2.151,0-5.261-2.639-6.837-4.2,1.586-1.438,4.681-3.833,6.837-3.833s5.25,2.4,6.837,3.833c-1.577,1.563-4.686,4.2-6.837,4.2m0-8.9c-3.393,0-8.06,4.666-8.06,4.666s4.667,5.09,8.06,5.09,8.059-5.09,8.059-5.09-4.666-4.666-8.059-4.666" transform="translate(-919.114 -244.415)" style="fill:#adb0b1"/><path d="M1170.464,268.781c-2.151,0-5.26-2.639-6.837-4.2,1.587-1.438,4.682-3.833,6.837-3.833s5.251,2.4,6.836,3.833c-1.575,1.563-4.684,4.2-6.836,4.2m0-8.9c-3.393,0-8.06,4.666-8.06,4.666s4.667,5.09,8.06,5.09,8.059-5.09,8.059-5.09-4.665-4.666-8.059-4.666" transform="translate(-919.114 -244.415)" style="fill:#adb0b1"/><path d="M1159.251,282.629c-1.438-1.584-3.833-4.677-3.833-6.836s2.4-5.251,3.833-6.838c1.563,1.577,4.2,4.685,4.2,6.838s-2.639,5.26-4.2,6.836m-.027-14.9s-4.667,4.665-4.667,8.06,4.667,8.058,4.667,8.058,5.09-4.665,5.09-8.058-5.09-8.06-5.09-8.06" transform="translate(-919.114 -244.415)" style="fill:#adb0b1"/><path d="M960.405,260.059c-1.437-1.585-3.833-4.68-3.833-6.836s2.4-5.251,3.833-6.837c1.564,1.574,4.2,4.681,4.2,6.837s-2.639,5.261-4.2,6.836m-.028-14.9s-4.666,4.667-4.666,8.06,4.666,8.059,4.666,8.059,5.091-4.666,5.091-8.059-5.091-8.06-5.091-8.06" transform="translate(-919.114 -244.415)" style="fill:#adb0b1"/><path d="M1004.52,260.484c-1.438-1.587-3.833-4.681-3.833-6.837s2.395-5.251,3.833-6.837c1.563,1.574,4.2,4.681,4.2,6.837s-2.639,5.26-4.2,6.837m-.028-14.9s-4.666,4.665-4.666,8.059,4.666,8.059,4.666,8.059,5.09-4.665,5.09-8.059-5.09-8.059-5.09-8.059" transform="translate(-919.114 -244.415)" style="fill:#adb0b1"/><path d="M1048.634,260.484c-1.438-1.587-3.833-4.681-3.833-6.837s2.4-5.251,3.833-6.837c1.564,1.574,4.2,4.681,4.2,6.837s-2.639,5.26-4.2,6.837m-.027-14.9s-4.666,4.665-4.666,8.059,4.666,8.059,4.666,8.059,5.089-4.665,5.089-8.059-5.089-8.059-5.089-8.059" transform="translate(-919.114 -244.415)" style="fill:#adb0b1"/><path d="M1092.748,260.484c-1.437-1.587-3.832-4.681-3.832-6.837s2.4-5.251,3.833-6.837c1.563,1.574,4.2,4.681,4.2,6.837s-2.639,5.26-4.2,6.837m-.027-14.9s-4.665,4.665-4.665,8.059,4.665,8.059,4.665,8.059,5.09-4.665,5.09-8.059-5.09-8.059-5.09-8.059" transform="translate(-919.114 -244.415)" style="fill:#adb0b1"/><path d="M1136.863,260.484c-1.437-1.587-3.833-4.681-3.833-6.837s2.4-5.251,3.834-6.837c1.563,1.574,4.2,4.681,4.2,6.837s-2.639,5.26-4.2,6.837m-.027-14.9s-4.666,4.665-4.666,8.059,4.666,8.059,4.666,8.059,5.09-4.665,5.09-8.059-5.09-8.059-5.09-8.059" transform="translate(-919.114 -244.415)" style="fill:#adb0b1"/><path d="M1180.978,260.484c-1.437-1.587-3.833-4.681-3.833-6.837s2.4-5.251,3.834-6.837c1.563,1.574,4.2,4.681,4.2,6.837s-2.638,5.26-4.2,6.837m-.027-14.9s-4.667,4.665-4.667,8.059,4.667,8.059,4.667,8.059,5.09-4.665,5.09-8.059-5.09-8.059-5.09-8.059" transform="translate(-919.114 -244.415)" style="fill:#adb0b1"/><path d="M1159.015,260.484c-1.437-1.587-3.832-4.681-3.832-6.837s2.4-5.251,3.832-6.837c1.564,1.574,4.2,4.681,4.2,6.837s-2.638,5.26-4.2,6.837m-.027-14.9s-4.666,4.665-4.666,8.059,4.666,8.059,4.666,8.059,5.09-4.665,5.09-8.059-5.09-8.059-5.09-8.059" transform="translate(-919.114 -244.415)" style="fill:#adb0b1"/><path d="M1114.9,260.484c-1.438-1.587-3.833-4.681-3.833-6.837s2.4-5.251,3.833-6.837c1.563,1.574,4.2,4.681,4.2,6.837s-2.638,5.26-4.2,6.837m-.028-14.9s-4.666,4.665-4.666,8.059,4.666,8.059,4.666,8.059,5.09-4.665,5.09-8.059-5.09-8.059-5.09-8.059" transform="translate(-919.114 -244.415)" style="fill:#adb0b1"/><path d="M1070.786,260.484c-1.438-1.587-3.833-4.681-3.833-6.837s2.4-5.251,3.833-6.837c1.564,1.574,4.2,4.681,4.2,6.837s-2.639,5.26-4.2,6.837m-.028-14.9s-4.666,4.665-4.666,8.059,4.666,8.059,4.666,8.059,5.09-4.665,5.09-8.059-5.09-8.059-5.09-8.059" transform="translate(-919.114 -244.415)" style="fill:#adb0b1"/><path d="M1026.671,260.484c-1.437-1.587-3.833-4.681-3.833-6.837s2.4-5.251,3.833-6.837c1.564,1.574,4.2,4.681,4.2,6.837s-2.639,5.26-4.2,6.837m-.028-14.9s-4.665,4.665-4.665,8.059,4.665,8.059,4.665,8.059,5.091-4.665,5.091-8.059-5.091-8.059-5.091-8.059" transform="translate(-919.114 -244.415)" style="fill:#adb0b1"/><path d="M982.132,260.484c-1.437-1.587-3.833-4.681-3.833-6.837s2.4-5.251,3.834-6.837c1.563,1.574,4.2,4.681,4.2,6.837s-2.638,5.26-4.2,6.837m-.027-14.9s-4.666,4.665-4.666,8.059,4.666,8.059,4.666,8.059,5.09-4.665,5.09-8.059-5.09-8.059-5.09-8.059" transform="translate(-919.114 -244.415)" style="fill:#adb0b1"/><path d="M938.017,260.484c-1.437-1.587-3.833-4.681-3.833-6.837s2.4-5.251,3.834-6.837c1.563,1.574,4.2,4.681,4.2,6.837s-2.638,5.26-4.2,6.837m-.027-14.9s-4.666,4.665-4.666,8.059,4.666,8.059,4.666,8.059,5.09-4.665,5.09-8.059-5.09-8.059-5.09-8.059" transform="translate(-919.114 -244.415)" style="fill:#adb0b1"/></svg>