<svg xmlns="http://www.w3.org/2000/svg" xmlns:xlink="http://www.w3.org/1999/xlink" viewBox="0 0 35.288 63.934"><defs><linearGradient id="Dégradé_sans_nom_9" x1="704.637" y1="412.294" x2="925.238" y2="145.135" gradientUnits="userSpaceOnUse"><stop offset="0" stop-color="#e62535"/><stop offset="0.322" stop-color="#e72c3c"/><stop offset="0.802" stop-color="#e8414f"/><stop offset="1" stop-color="#e94b59"/></linearGradient></defs><g id="R_" data-name="R°"><path d="M806.108,299.68q.1.615.155,1.261c.791,10.088-8.8,21.088-14.278,28.732-2.213,3.09-4.713,6.169-8.148,7.8s-8.036,1.379-10.487-1.527a11.181,11.181,0,0,1-2.144-6.158c-.815-7.845,1.164-15.747,4.119-23.059,2.339-5.791,5.517-11.577,10.76-14.97C793.944,286.671,804.526,290.339,806.108,299.68Z" transform="translate(-771.021 -289.458)" style="fill:url(#Dégradé_sans_nom_9)"/><path d="M796.982,344.81a9.776,9.776,0,0,0-3.112-.006c-2.916.421-9.835,2.671-9.957,6.541-.1,3.107,9.282,1.882,10.975,1.4,1.937-.546,3.942-1.655,4.561-3.572C800.34,346.42,798.962,345.182,796.982,344.81Z" transform="translate(-771.021 -289.458)" style="fill:#0896a7"/></g></svg>