<svg xmlns="http://www.w3.org/2000/svg" xmlns:xlink="http://www.w3.org/1999/xlink" viewBox="0 0 398.058 222.318"><defs><linearGradient id="Dégradé_sans_nom_9" x1="379.535" y1="192.993" x2="582.079" y2="415.904" gradientTransform="matrix(-0.643, -0.766, -0.766, 0.643, 917.218, 427.706)" gradientUnits="userSpaceOnUse"><stop offset="0" stop-color="#e62535"/><stop offset="0.322" stop-color="#e72c3c"/><stop offset="0.802" stop-color="#e8414f"/><stop offset="1" stop-color="#e94b59"/></linearGradient><linearGradient id="Dégradé_sans_nom_9-2" x1="367.809" y1="418.915" x2="367.809" y2="418.915" gradientTransform="matrix(1, 0, 0, 1, 0, 0)" xlink:href="#Dégradé_sans_nom_9"/><linearGradient id="Dégradé_sans_nom_9-3" x1="408.149" y1="387.255" x2="408.149" y2="387.255" gradientTransform="matrix(1, 0, 0, 1, 0, 0)" xlink:href="#Dégradé_sans_nom_9"/><linearGradient id="Dégradé_sans_nom_9-4" x1="445.681" y1="341.298" x2="445.681" y2="341.298" gradientTransform="matrix(1, 0, 0, 1, 0, 0)" xlink:href="#Dégradé_sans_nom_9"/></defs><g id="R_" data-name="R°"><path d="M597.955,232.05c-30-20.083-66.738-25.671-101.3-34.691-22.755-5.939-42.544-16.957-63.739-26.875-53.888-25.216-118.655-40.915-158.326,6.307-33.062,39.353-58.858,132.32,5.5,162.46,45.57,21.339,265.476,34.706,307.251,27.427,23.951-4.173,41.931-28.525,48.861-51.827,7.863-26.442-5.558-55.611-26.366-73.723A118.248,118.248,0,0,0,597.955,232.05Z" transform="translate(-240.425 -146.361)" style="fill:url(#Dégradé_sans_nom_9)"/><path d="M367.809,418.915" transform="translate(-240.425 -146.361)" style="fill:url(#Dégradé_sans_nom_9-2)"/><path d="M408.149,387.255" transform="translate(-240.425 -146.361)" style="fill:url(#Dégradé_sans_nom_9-3)"/><path d="M445.681,341.3" transform="translate(-240.425 -146.361)" style="fill:url(#Dégradé_sans_nom_9-4)"/></g></svg>