<svg id="V_" data-name="V°" xmlns="http://www.w3.org/2000/svg" xmlns:xlink="http://www.w3.org/1999/xlink" viewBox="0 0 358.02 268.06"><defs><clipPath id="clip-path" transform="translate(-911.069 -131.822)"><rect x="873.228" y="-14.173" width="433.701" height="623.622" style="fill:none"/></clipPath><linearGradient id="Dégradé_sans_nom_4" x1="1043.044" y1="422.221" x2="1355.5" y2="-279.983" gradientTransform="translate(184.428 -538.016) rotate(36.857)" gradientUnits="userSpaceOnUse"><stop offset="0" stop-color="#e94b59"/><stop offset="1" stop-color="#ed6b6d"/></linearGradient></defs><g style="clip-path:url(#clip-path)"><path d="M911.524,299.655c-2.643,30.713,5.988,59.618,31.955,80.192,23.217,18.4,55.02,22.714,84.273,18.605,13.692-1.924,27.493-5.7,38.591-13.932,9.956-7.389,17.1-17.863,25.484-27a126.3,126.3,0,0,1,62.49-36.976c18.991-4.662,38.826-4.835,57.985-8.756s38.693-12.581,48.929-29.257c7.356-11.982,9.008-26.821,7.165-40.793-4.444-33.708-28.158-62.773-57.327-80.213s-63.315-24.6-97.077-27.982c-32.582-3.26-66.7-3-96.412,10.666C969.652,166.257,916.939,236.749,911.524,299.655Z" transform="translate(-911.069 -131.822)" style="fill:url(#Dégradé_sans_nom_4)"/></g></svg>