<svg xmlns="http://www.w3.org/2000/svg" xmlns:xlink="http://www.w3.org/1999/xlink" viewBox="0 0 530.51 443.14"><defs><style>.cls-1{fill:url(#Dégradé_sans_nom_4);}.cls-2{fill:#80cbd7;}.cls-3{fill:url(#Dégradé_sans_nom_9);}.cls-4{fill:url(#Dégradé_sans_nom_9-2);}.cls-5{fill:#0896a7;}.cls-6{fill:url(#Dégradé_sans_nom_4-2);}.cls-7{fill:#fff;}</style><linearGradient id="Dégradé_sans_nom_4" x1="284.46" y1="122.51" x2="327.69" y2="731.1" gradientUnits="userSpaceOnUse"><stop offset="0" stop-color="#e94b59"/><stop offset="1" stop-color="#ed6b6d"/></linearGradient><linearGradient id="Dégradé_sans_nom_9" x1="363.19" y1="195.89" x2="561.62" y2="414.28" gradientUnits="userSpaceOnUse"><stop offset="0" stop-color="#e62535"/><stop offset="0.32" stop-color="#e72c3c"/><stop offset="0.8" stop-color="#e8414f"/><stop offset="1" stop-color="#e94b59"/></linearGradient><linearGradient id="Dégradé_sans_nom_9-2" x1="583.11" y1="405.17" x2="803.71" y2="138.02" xlink:href="#Dégradé_sans_nom_9"/><linearGradient id="Dégradé_sans_nom_4-2" x1="151.18" y1="284.44" x2="263.77" y2="31.4" xlink:href="#Dégradé_sans_nom_4"/></defs><g id="R_" data-name="R°"><path class="cls-1" d="M435.83,414.15a90.59,90.59,0,0,0,5.84-19.31c8.38-45.74,7.18-108-16.7-149a81.61,81.61,0,0,0-30.28-30.25c-28.76-16.2-57.54-25.76-87.49-6.06-19.41,12.76-27.54,33.32-43.64,48.76-30.54,29.29-82.85,25.07-102.65,67.39-14.51,31-3,68,13.46,96,16.64,28.23,42.51,51.62,73.09,63.76a134.24,134.24,0,0,0,22.9,6.82C329.09,504.12,411.15,471.88,435.83,414.15Z" transform="translate(-154.27 -76.07)"/><path class="cls-2" d="M433.66,453l31.52,2.88,6.28.58a39.52,39.52,0,0,1-6,2.21l-.52,0-25.09-2.3h0A55.3,55.3,0,0,1,433.66,453Z" transform="translate(-154.27 -76.07)"/><path class="cls-2" d="M424.13,445.88l41.62,3.81,14.86,1.36c-1.22.89-2.42,1.7-3.62,2.44l-11.49-1.06L427.93,449Q426,447.52,424.13,445.88Z" transform="translate(-154.27 -76.07)"/><path class="cls-2" d="M416.9,439l49.42,4.52,21.09,1.93c-1,.88-1.9,1.71-2.84,2.5l-18.51-1.69L419.93,442C418.91,441,417.91,440,416.9,439Z" transform="translate(-154.27 -76.07)"/><path class="cls-2" d="M410.75,432.19l56.13,5.14,26.2,2.39c-.8.89-1.61,1.73-2.41,2.55l-24-2.2-53.25-4.88C412.5,434.21,411.62,433.21,410.75,432.19Z" transform="translate(-154.27 -76.07)"/><path class="cls-2" d="M405.24,425.45l.39,0,61.81,5.66L498,434c-.31.4-.64.8-1,1.2s-.77.91-1.15,1.36l-28.73-2.62-59.57-5.45Z" transform="translate(-154.27 -76.07)"/><path class="cls-2" d="M400.17,418.76l6,.55L468,425l34.39,3.14c-.6.88-1.22,1.74-1.86,2.6l-32.78-3-61.82-5.66-3.56-.33C401.64,420.74,400.91,419.76,400.17,418.76Z" transform="translate(-154.27 -76.07)"/><path class="cls-2" d="M395.39,412.08l11.37,1,61.81,5.66,37.65,3.45c-.53.88-1.07,1.75-1.63,2.61l-36.27-3.32-61.81-5.66-9-.83C396.77,414.06,396.08,413.07,395.39,412.08Z" transform="translate(-154.27 -76.07)"/><path class="cls-2" d="M390.81,405.43l16.52,1.51,61.81,5.66,40.49,3.71c-.47.88-1,1.76-1.47,2.62l-39.27-3.59-61.82-5.66-14.26-1.3Z" transform="translate(-154.27 -76.07)"/><path class="cls-2" d="M386.37,398.79l21.52,2,61.82,5.66,43,3.93c-.43.89-.87,1.77-1.32,2.65l-41.92-3.84-61.82-5.66-19.31-1.76C387.67,400.76,387,399.77,386.37,398.79Z" transform="translate(-154.27 -76.07)"/><path class="cls-2" d="M382,392.16l26.43,2.42,61.83,5.66,45.23,4.14c-.4.89-.8,1.77-1.22,2.65L470,403l-61.82-5.66-24.26-2.22Z" transform="translate(-154.27 -76.07)"/><path class="cls-2" d="M377.69,385.52,409,388.39l61.82,5.66,47.27,4.33c-.37.88-.74,1.77-1.13,2.66l-46.39-4.25-61.82-5.66-29.16-2.67Z" transform="translate(-154.27 -76.07)"/><path class="cls-2" d="M373.34,378.89l36.25,3.32,61.82,5.66,49.14,4.5c-.35.89-.71,1.78-1.07,2.67l-48.32-4.43L409.34,385l-34.06-3.12C374.63,380.85,374,379.87,373.34,378.89Z" transform="translate(-154.27 -76.07)"/><path class="cls-2" d="M368.9,372.26,410.15,376,472,381.69l50.91,4.66-1,2.67-50.14-4.59-61.82-5.66-39-3.57Q369.89,373.7,368.9,372.26Z" transform="translate(-154.27 -76.07)"/><path class="cls-2" d="M364.27,365.6l46.45,4.25,61.82,5.66,52.59,4.81c-.33.89-.65,1.79-1,2.68l-51.86-4.75-61.81-5.66-44.12-4C365.66,367.55,365,366.57,364.27,365.6Z" transform="translate(-154.27 -76.07)"/><path class="cls-2" d="M359.31,358.91l52,4.76,61.81,5.66,54.24,5c-.27.78-.56,1.55-.83,2.31l-.14.36-53.52-4.9L411,366.41l-49.48-4.53C360.81,360.86,360.05,359.87,359.31,358.91Z" transform="translate(-154.27 -76.07)"/><path class="cls-2" d="M353.73,352.17l58.12,5.32,61.82,5.65,55.75,5.11c-.31.9-.61,1.8-.91,2.68l-55.09-5.05-61.82-5.65-55.29-5.06Q355,353.6,353.73,352.17Z" transform="translate(-154.27 -76.07)"/><path class="cls-2" d="M346.68,345.29l3.92.36,61.82,5.65L474.23,357l57.28,5.25c-.32.89-.64,1.79-.94,2.68L474,359.7l-61.81-5.65-61.82-5.66-.24,0C349,347.24,347.81,346.21,346.68,345.29Z" transform="translate(-154.27 -76.07)"/><path class="cls-2" d="M337.16,338.18l14,1.29L413,345.12l61.82,5.66,59,5.4c-.36.89-.7,1.78-1,2.67l-58.19-5.33-61.82-5.65-61.82-5.66-9.36-.86C340.16,340.32,338.68,339.27,337.16,338.18Z" transform="translate(-154.27 -76.07)"/><path class="cls-2" d="M326.76,331l25,2.28,61.82,5.66,61.82,5.66,61,5.59c-.41.87-.82,1.76-1.21,2.65l-60.06-5.5-61.82-5.66L351.48,336l-20.06-1.84Z" transform="translate(-154.27 -76.07)"/><path class="cls-2" d="M316.24,323.8l36.06,3.3,61.81,5.66,61.83,5.66,61.81,5.65,1.87.18c-.53.85-1,1.73-1.53,2.62l-.59-.05-61.82-5.66-61.82-5.66-61.81-5.66L320.88,327Z" transform="translate(-154.27 -76.07)"/><path class="cls-2" d="M306.05,316.64l46.81,4.28,61.82,5.66,61.82,5.66,61.82,5.65,5.54.51c-.71.82-1.39,1.68-2.05,2.58l-3.74-.34L476.25,335l-61.82-5.66-61.82-5.66L310.5,319.8Q308.28,318.24,306.05,316.64Z" transform="translate(-154.27 -76.07)"/><path class="cls-2" d="M296.41,309.52l57,5.22,61.82,5.66,61.81,5.66,61.82,5.65,11.27,1a31,31,0,0,0-2.92,2.27l-.24.21-8.36-.76-61.82-5.66L415,323.14l-61.82-5.66-52.59-4.81Q298.49,311.11,296.41,309.52Z" transform="translate(-154.27 -76.07)"/><path class="cls-2" d="M287.52,302.47l4.66.43L354,308.56l61.82,5.66,61.82,5.65,61.82,5.66,22,2a46.08,46.08,0,0,0-6,2.22h0l-16.27-1.5-61.82-5.65L415.56,317l-61.82-5.66-61.82-5.66-.55-.05C290.07,304.57,288.79,303.52,287.52,302.47Z" transform="translate(-154.27 -76.07)"/><path class="cls-2" d="M279.46,295.5l13.28,1.21,61.82,5.66L416.38,308l61.81,5.66L540,319.35l43.12,3.94c-3.32.7-6.81,1.22-10.34,1.82l-33-3-61.83-5.66-61.81-5.66-61.82-5.66-61.82-5.66-9.56-.87Q281.17,297.05,279.46,295.5Z" transform="translate(-154.27 -76.07)"/><path class="cls-2" d="M272.32,288.61l21,1.92,61.81,5.66L417,301.85l61.81,5.66,61.82,5.66,59.11,5.41q-3.27,1.17-6.59,2.16l-52.77-4.83-61.82-5.66-61.82-5.66-61.82-5.66-61.81-5.66-17.69-1.61Q273.81,290.15,272.32,288.61Z" transform="translate(-154.27 -76.07)"/><path class="cls-2" d="M266.07,281.81l27.81,2.54L355.69,290l61.82,5.66,61.82,5.66L541.15,307,603,312.65l8.82.8q-2.46,1.23-5,2.31h0l-4.1-.37-61.81-5.66-61.82-5.66-61.82-5.66-61.82-5.66-61.82-5.66-24.9-2.27C267.82,283.82,266.93,282.81,266.07,281.81Z" transform="translate(-154.27 -76.07)"/><path class="cls-2" d="M260.75,275.09l33.69,3.08,61.82,5.66,61.82,5.66,61.81,5.66,61.82,5.66,61.82,5.65,17.79,1.63q-2,1.26-4,2.4h0l-14.06-1.28-61.82-5.66-61.82-5.66-61.82-5.66L356,286.57l-61.82-5.66L263,278.06C262.22,277.07,261.47,276.09,260.75,275.09Z" transform="translate(-154.27 -76.07)"/><path class="cls-2" d="M256.35,268.45,295,272l61.82,5.65,61.82,5.66L480.46,289l61.82,5.66,61.82,5.66,25,2.3c-1.08.84-2.18,1.67-3.29,2.46l-22-2L542,297.36l-61.82-5.66L418.39,286l-61.82-5.66-61.82-5.65-36.56-3.35C257.55,270.41,256.94,269.43,256.35,268.45Z" transform="translate(-154.27 -76.07)"/><path class="cls-2" d="M252.86,261.89l42.71,3.91,61.82,5.66,61.81,5.66L481,282.78l61.81,5.66,61.82,5.66,31.07,2.84c-.92.86-1.85,1.7-2.79,2.51l-28.53-2.61-61.82-5.66-61.81-5.66L419,279.86l-61.81-5.66-61.82-5.65-41-3.76C253.79,263.83,253.31,262.86,252.86,261.89Z" transform="translate(-154.27 -76.07)"/><path class="cls-2" d="M250.25,255.43l45.88,4.19L358,265.28l61.81,5.66,61.82,5.66,61.82,5.66,61.82,5.66,36.15,3.31-.85.92c-.51.54-1,1.09-1.55,1.62l-34-3.11L543.16,285l-61.82-5.66-61.82-5.66L357.71,268l-61.83-5.65-44.58-4.09Q250.75,256.86,250.25,255.43Z" transform="translate(-154.27 -76.07)"/><path class="cls-2" d="M248.52,249l48.18,4.41,61.82,5.66,61.82,5.66,61.82,5.66L544,276.08l61.81,5.66,40.55,3.71c-.69.86-1.4,1.72-2.12,2.57l-38.68-3.54-61.81-5.66-61.82-5.66-61.82-5.66-61.82-5.66-61.82-5.66-47.26-4.32C248.94,250.92,248.72,250,248.52,249Z" transform="translate(-154.27 -76.07)"/><path class="cls-2" d="M247.63,242.72l49.64,4.54,61.82,5.66,61.82,5.65,61.81,5.66,61.82,5.66,61.82,5.67,44.38,4.06c-.61.87-1.24,1.73-1.88,2.59l-42.75-3.91-61.82-5.66L482.47,267l-61.81-5.65-61.83-5.66L297,250l-49.09-4.5C247.8,244.58,247.71,243.65,247.63,242.72Z" transform="translate(-154.27 -76.07)"/><path class="cls-2" d="M247.5,239.24c0-.92,0-1.84.07-2.76l50.27,4.6,61.81,5.66,61.82,5.65,61.82,5.66,61.82,5.66,61.81,5.66,47.75,4.37q-.82,1.32-1.68,2.61l-46.32-4.24-61.81-5.66L483,260.79l-61.82-5.66-61.82-5.65-61.81-5.66Z" transform="translate(-154.27 -76.07)"/><path class="cls-2" d="M247.88,233c.11-.91.25-1.81.42-2.73l50.1,4.59,61.82,5.66L422,246.21l61.81,5.66,61.83,5.66,61.81,5.66,50.66,4.64c-.49.88-1,1.75-1.49,2.63l-49.42-4.53-61.82-5.66-61.82-5.66L421.79,249,360,243.3l-61.82-5.66Z" transform="translate(-154.27 -76.07)"/><path class="cls-2" d="M249,226.91c.22-.9.48-1.8.76-2.69l49.17,4.5,61.81,5.65L422.6,240l61.82,5.66,61.82,5.66L608.06,257l53.18,4.87q-.65,1.32-1.32,2.64l-52.11-4.77L546,254.09l-61.82-5.66-61.82-5.66-61.82-5.65-61.81-5.66Z" transform="translate(-154.27 -76.07)"/><path class="cls-2" d="M251,220.85c.34-.89.7-1.77,1.09-2.67l47.48,4.35,61.82,5.66,61.82,5.66L485,239.51l61.81,5.66,61.83,5.66L664,255.9c-.38.89-.77,1.77-1.17,2.65l-54.43-5-61.83-5.66-61.81-5.66-61.82-5.66-61.82-5.66-61.82-5.66Z" transform="translate(-154.27 -76.07)"/><path class="cls-2" d="M253.62,214.86c.44-.88.91-1.75,1.41-2.64l45.07,4.13L361.92,222l61.81,5.66,61.82,5.66L547.37,239l61.82,5.66,57.19,5.24c-.33.9-.67,1.78-1,2.67l-56.42-5.17-61.82-5.66-61.82-5.65-61.82-5.66-61.81-5.66-61.83-5.66Z" transform="translate(-154.27 -76.07)"/><path class="cls-2" d="M257,208.93c.54-.86,1.12-1.73,1.72-2.6l42,3.84,61.82,5.66,61.82,5.66,61.82,5.65,61.82,5.66,61.82,5.66,58.72,5.38c-.29.9-.58,1.79-.89,2.68l-58.08-5.32-61.82-5.66-61.82-5.65-61.82-5.66-61.82-5.66-61.82-5.66Z" transform="translate(-154.27 -76.07)"/><path class="cls-2" d="M261.05,203.07c.65-.85,1.32-1.72,2-2.58l38.16,3.5,61.82,5.66,61.82,5.66L486.69,221l61.81,5.66,61.82,5.66,60,5.49c-.25.9-.5,1.8-.77,2.7L610.07,235l-61.82-5.66-61.82-5.65-61.82-5.66-61.81-5.66L301,206.73Z" transform="translate(-154.27 -76.07)"/><path class="cls-2" d="M265.79,197.27c.74-.85,1.51-1.7,2.3-2.55l33.7,3.08,61.82,5.67,61.82,5.66,61.82,5.65,61.82,5.66,61.82,5.66,60.92,5.58c-.2.9-.42,1.8-.64,2.7l-60.54-5.54-61.81-5.66L487,217.52l-61.82-5.65-61.82-5.66-61.82-5.67Z" transform="translate(-154.27 -76.07)"/><path class="cls-2" d="M271.18,191.53c.85-.85,1.72-1.69,2.6-2.52l28.58,2.61,61.82,5.66L426,202.94l61.81,5.66,61.83,5.66,61.81,5.66,61.63,5.64c-.17.9-.35,1.8-.53,2.71l-61.35-5.61L549.39,217l-61.83-5.66-61.81-5.66L363.93,200l-61.82-5.66Z" transform="translate(-154.27 -76.07)"/><path class="cls-2" d="M277.23,185.85l2.86-2.5h0l22.84,2.09,61.81,5.66,61.83,5.66,61.81,5.66,61.82,5.66L612,213.73l61.82,5.66.23,0c-.12.92-.26,1.82-.41,2.73h-.07l-61.82-5.65L550,210.82l-61.82-5.66-61.81-5.66-61.83-5.66-61.81-5.66Z" transform="translate(-154.27 -76.07)"/><path class="cls-2" d="M283.77,180.22l3-2.5h0l16.76,1.54,61.81,5.66,61.82,5.66L489,196.24l61.82,5.66,61.81,5.65,61.82,5.66.42,0c-.09.92-.19,1.83-.3,2.74l-.37,0-61.82-5.65-61.81-5.66L488.7,199l-61.82-5.66-61.82-5.66L303.24,182Z" transform="translate(-154.27 -76.07)"/><path class="cls-2" d="M290.26,174.58l2.75-2.51,11.05,1,61.82,5.66,61.82,5.66,61.81,5.66,61.82,5.66,61.82,5.65L675,207l.35,0c-.05.92-.11,1.84-.19,2.75l-.41,0-61.82-5.66-61.82-5.65-61.82-5.66-61.82-5.66-61.81-5.66-61.82-5.66Z" transform="translate(-154.27 -76.07)"/><path class="cls-2" d="M296.49,168.91c1-.84,1.95-1.68,2.91-2.49l5.22.47,61.82,5.66,61.82,5.66,61.82,5.66,61.82,5.66,61.82,5.66,61.81,5.66h0c0,.92-.05,1.83-.08,2.76l-.21,0-61.81-5.66-61.83-5.66-61.81-5.66L428,181l-61.82-5.66-61.82-5.66Z" transform="translate(-154.27 -76.07)"/><path class="cls-2" d="M303.13,163.29l3.05-2.49L367,166.37,428.82,172l61.83,5.66,61.81,5.66L614.29,189l61.28,5.61q0,1.38,0,2.76L614,191.75l-61.82-5.66-61.81-5.66-61.83-5.66-61.81-5.66-61.82-5.66Z" transform="translate(-154.27 -76.07)"/><path class="cls-2" d="M310.17,157.7q1.68-1.26,3.33-2.46l54.08,4.95,61.81,5.66,61.82,5.66L553,177.17l61.82,5.66,60.46,5.53c.06.93.11,1.85.15,2.78l-60.86-5.57-61.82-5.66L491,174.25l-61.82-5.66-61.81-5.66Z" transform="translate(-154.27 -76.07)"/><path class="cls-2" d="M317.93,152.18c1.27-.84,2.53-1.65,3.8-2.41h0l46.4,4.24L430,159.67l61.82,5.66L553.6,171l61.81,5.66,59.4,5.43c.09.93.18,1.86.25,2.79l-59.9-5.48-61.81-5.66-61.82-5.66-61.82-5.66-61.82-5.66Z" transform="translate(-154.27 -76.07)"/><path class="cls-2" d="M327,146.77q2.37-1.25,4.77-2.33l36.93,3.38,61.82,5.66,61.81,5.66,61.82,5.66L616,170.46l58,5.31c.14.93.27,1.87.38,2.81l-58.67-5.38-61.82-5.66-61.82-5.66-61.81-5.66-61.83-5.65Z" transform="translate(-154.27 -76.07)"/><path class="cls-2" d="M339,141.64a68.06,68.06,0,0,1,7.73-2.06h0l22.52,2.06,61.82,5.66L492.91,153l61.82,5.66,61.81,5.66L673,169.44c.17.94.34,1.87.5,2.81L616.29,167l-61.81-5.66-61.82-5.66L430.84,150,369,144.39Z" transform="translate(-154.27 -76.07)"/><path class="cls-2" d="M373.09,138.52a117.58,117.58,0,0,0,17.6-1.14h0l41,3.75,61.81,5.66,61.83,5.66,61.81,5.66,54.49,5c.23.93.45,1.88.64,2.82l-55.38-5.07L555,155.18l-61.82-5.66-61.81-5.66Z" transform="translate(-154.27 -76.07)"/><path class="cls-2" d="M403.08,135q3.93-.93,7.82-2l21.33,1.95L494,140.6l61.82,5.66,61.82,5.66,52.24,4.78c.28.94.55,1.89.79,2.84l-53.28-4.88L555.61,149l-61.82-5.66L432,137.68Z" transform="translate(-154.27 -76.07)"/><path class="cls-2" d="M419.46,130.3q3.09-1.05,6.18-2.2h0l7.14.66,61.82,5.65,61.81,5.66,61.82,5.67,49.66,4.54c.33.94.65,1.9,1,2.85L618,148.48l-61.82-5.67-61.81-5.65-61.82-5.66Z" transform="translate(-154.27 -76.07)"/><path class="cls-2" d="M432.89,125.29c1.84-.73,3.66-1.48,5.49-2.25l56.79,5.19L557,133.89l61.82,5.66,46.68,4.28c.39.94.76,1.9,1.12,2.86l-48.05-4.4-61.82-5.66L494.92,131l-61.82-5.66Z" transform="translate(-154.27 -76.07)"/><path class="cls-2" d="M445,120.18c1.72-.75,3.44-1.52,5.18-2.29l45.52,4.16,61.82,5.66,61.82,5.66,43.27,4c.45.95.89,1.92,1.32,2.89l-44.84-4.11-61.83-5.66-61.81-5.66Z" transform="translate(-154.27 -76.07)"/><path class="cls-2" d="M456.61,115c1.68-.76,3.37-1.52,5.06-2.3l34.64,3.17,61.81,5.66,61.82,5.66,39.34,3.6c.53,1,1.05,1.93,1.57,2.91l-41.16-3.77-61.82-5.66-61.82-5.66Z" transform="translate(-154.27 -76.07)"/><path class="cls-2" d="M468,109.81l5.11-2.29h0l23.73,2.17,61.82,5.66L620.51,121l34.78,3.19c.64,1,1.26,1.94,1.86,2.93l-36.89-3.38-61.82-5.66-61.82-5.66Z" transform="translate(-154.27 -76.07)"/><path class="cls-2" d="M479.68,104.64c1.77-.77,3.55-1.52,5.35-2.27h0l12.39,1.14,61.83,5.66,61.81,5.65,29.44,2.7c.77,1,1.51,2,2.23,3l-31.92-2.92L559,111.91l-61.83-5.66Z" transform="translate(-154.27 -76.07)"/><path class="cls-2" d="M492,99.54c1.93-.76,3.88-1.5,5.82-2.23h0l.15,0L559.82,103l61.82,5.66,23.08,2.12c.92,1,1.82,2,2.71,3l-26-2.39-61.82-5.65-61.82-5.66Z" transform="translate(-154.27 -76.07)"/><path class="cls-2" d="M505.53,94.55q3.24-1.12,6.5-2.17h0l48.35,4.42,61.81,5.66,15.35,1.41q1.73,1.48,3.39,3.07l-19-1.74-61.81-5.65Z" transform="translate(-154.27 -76.07)"/><path class="cls-2" d="M520.84,89.72c2.54-.74,5.1-1.43,7.65-2.07h0l32.45,3,61.82,5.66,5.35.49h0c1.54,1,3.06,2,4.55,3.17L622.52,99,560.7,93.36Z" transform="translate(-154.27 -76.07)"/><path class="cls-2" d="M539.42,85.18q5.25-1.05,10.46-1.81l11.64,1.07,52.24,4.78c2.49,1,4.93,2.17,7.34,3.43l-59.84-5.47Z" transform="translate(-154.27 -76.07)"/><path class="cls-2" d="M569.42,81.69a118.93,118.93,0,0,1,28.71,2.63Z" transform="translate(-154.27 -76.07)"/><path class="cls-3" d="M387.65,80.41c34.67,10.08,62.57,34.63,91.69,55.3,19.18,13.62,40.34,21.69,61.56,31.56,54,25.07,107.61,64.59,96.94,125.34-8.9,50.62-64.9,101.63-126.32,99.73-21.24-.66-39.09-8.47-54.66-19.57-9.36-6.65-18.26-17-31.23-18.68-13.68-1.8-28.7,6.11-41.13,10.91-18.51,7.14-38,14.57-58.05,15.15-46,1.32-55.94-30.81-48.61-70.32,3.56-19.21,9.87-37.76,14.57-56.69,6.67-26.85,3.1-51.08-1.07-78.06-3.72-24-5.1-50.46,8.29-70.75,15.21-23,46.18-31.48,73.43-27.19A119.34,119.34,0,0,1,387.65,80.41Z" transform="translate(-154.27 -76.07)"/><path class="cls-4" d="M684.58,292.56q.1.62.15,1.26c.8,10.09-8.8,21.09-14.27,28.73-2.22,3.09-4.72,6.17-8.15,7.8s-8,1.38-10.49-1.53a11.19,11.19,0,0,1-2.14-6.16c-.82-7.84,1.16-15.74,4.12-23.05,2.34-5.8,5.51-11.58,10.76-15C672.42,279.55,683,283.22,684.58,292.56Z" transform="translate(-154.27 -76.07)"/><path class="cls-5" d="M675.45,337.69a9.82,9.82,0,0,0-3.11,0c-2.91.43-9.83,2.67-10,6.55-.09,3.1,9.29,1.88,11,1.4,1.94-.55,3.94-1.65,4.56-3.57C678.81,339.3,677.43,338.06,675.45,337.69Z" transform="translate(-154.27 -76.07)"/><path class="cls-6" d="M166,216.66c5.87,9.43,14.61,15.89,26.54,16.21,10.67.29,20.78-5.34,28.32-12.85,3.53-3.51,6.7-7.58,8.12-12.36,1.27-4.28,1.07-8.84,1.51-13.29a45.5,45.5,0,0,1,10-24.17c4.46-5.44,10.15-9.78,14.82-15s8.44-12,7.79-19c-.47-5-3.2-9.69-6.76-13.32-8.56-8.75-21.68-12-33.86-10.73s-23.58,6.59-34,12.91c-10.1,6.11-19.88,13.55-25.49,23.92C153.94,165.63,154,197.35,166,216.66Z" transform="translate(-154.27 -76.07)"/><path class="cls-5" d="M221.83,263.79A1.11,1.11,0,0,1,221,263l-4.84-17.22a1.11,1.11,0,0,1,2.14-.6l4.83,17.22a1.1,1.1,0,0,1-.77,1.36A1,1,0,0,1,221.83,263.79Z" transform="translate(-154.27 -76.07)"/><path class="cls-5" d="M210.81,257.6a1.11,1.11,0,0,1-.11-2.16l17.22-4.84a1.11,1.11,0,0,1,.6,2.13l-17.22,4.84A1,1,0,0,1,210.81,257.6Z" transform="translate(-154.27 -76.07)"/><path class="cls-7" d="M446.86,92.53a7.61,7.61,0,1,0-1.47-4A7.55,7.55,0,0,0,446.86,92.53ZM458,84.34a6.21,6.21,0,0,1-4.59,9.87,6.22,6.22,0,0,1-6.6-5.79,6.21,6.21,0,0,1,5.78-6.6h0A6.21,6.21,0,0,1,458,84.34Z" transform="translate(-154.27 -76.07)"/><path class="cls-2" d="M272.48,519a1.27,1.27,0,0,0,.47.22,1.09,1.09,0,0,0,1.05-.33l8.78-9.55a1.12,1.12,0,0,0-.57-1.84l-12.66-2.82a1.11,1.11,0,0,0-1.3,1.41l3.88,12.38A1.2,1.2,0,0,0,272.48,519Zm7.37-9.75-6.18,6.73-2.73-8.72Z" transform="translate(-154.27 -76.07)"/><path class="cls-7" d="M540.69,421.38a11.81,11.81,0,1,0,4.08,5.21A11.85,11.85,0,0,0,540.69,421.38Zm-12.53,17.41a9.61,9.61,0,1,1,9.19,1.13h0A9.64,9.64,0,0,1,528.16,438.79Z" transform="translate(-154.27 -76.07)"/><path class="cls-7" d="M406.87,313v-8.42h2.71a4.19,4.19,0,0,1,3.05,1.21,4.26,4.26,0,0,1,0,6,4.18,4.18,0,0,1-3.06,1.21Zm.87-.82h1.84a3.34,3.34,0,0,0,2.46-1,3.52,3.52,0,0,0,0-4.85,3.36,3.36,0,0,0-2.46-1h-1.84Z" transform="translate(-154.27 -76.07)"/><path class="cls-7" d="M416.54,305.37a.61.61,0,0,1-.45.18.64.64,0,0,1-.45-.18.61.61,0,0,1-.18-.45.62.62,0,0,1,.63-.63.61.61,0,0,1,.45.18.63.63,0,0,1,0,.9Zm-.88,7.65v-6.36h.84V313Z" transform="translate(-154.27 -76.07)"/><path class="cls-7" d="M421.71,315.75a3.58,3.58,0,0,1-2-.58,2.57,2.57,0,0,1-1.13-1.69h.84a1.93,1.93,0,0,0,.87,1.14,2.67,2.67,0,0,0,1.38.39,2.25,2.25,0,0,0,1.59-.63,2.69,2.69,0,0,0,.7-2v-.84a2.8,2.8,0,0,1-1,1,3.06,3.06,0,0,1-1.48.36,3.12,3.12,0,0,1-2.28-.9,3.27,3.27,0,0,1,0-4.55,3.15,3.15,0,0,1,2.28-.9,2.93,2.93,0,0,1,1.47.38,2.83,2.83,0,0,1,1,1v-1.26h.84v5.63a4.23,4.23,0,0,1-.28,1.62,2.63,2.63,0,0,1-.74,1.08,3,3,0,0,1-1,.57A3.5,3.5,0,0,1,421.71,315.75Zm-1.9-4.29a2.42,2.42,0,0,0,1.74.69,2.47,2.47,0,0,0,1.75-.7,2.31,2.31,0,0,0,.73-1.73,2.28,2.28,0,0,0-.73-1.71,2.53,2.53,0,0,0-3.49,0,2.43,2.43,0,0,0,0,3.45Z" transform="translate(-154.27 -76.07)"/><path class="cls-7" d="M427.68,305.37a.64.64,0,0,1-.45.18.61.61,0,0,1-.45-.18.58.58,0,0,1-.19-.45.63.63,0,0,1,.64-.63.64.64,0,0,1,.45.18.65.65,0,0,1,0,.9ZM426.8,313v-6.36h.84V313Z" transform="translate(-154.27 -76.07)"/><path class="cls-7" d="M433.58,313a2.79,2.79,0,0,1-2.19-.15,1.94,1.94,0,0,1-.77-1.77v-3.69h-1.37v-.73h1.37v-1.81h.84v1.81h2.13v.73h-2.13v3.68q0,1.73,2.13,1.11Z" transform="translate(-154.27 -76.07)"/><path class="cls-7" d="M437.32,313.12a2.73,2.73,0,0,1-1.63-.48,1.64,1.64,0,0,1-.69-1.37,1.79,1.79,0,0,1,.66-1.46,3.31,3.31,0,0,1,2.15-.57h2.11v-.52a1.21,1.21,0,0,0-.57-1.07,2.58,2.58,0,0,0-1.43-.38,2.71,2.71,0,0,0-1.25.28,1.22,1.22,0,0,0-.65.9h-.81a1.7,1.7,0,0,1,.83-1.39,3.35,3.35,0,0,1,1.86-.5,3.41,3.41,0,0,1,2,.57,1.74,1.74,0,0,1,.82,1.5V313h-.81v-1.47c-.05.1-.12.2-.19.31a3,3,0,0,1-.34.4,3.28,3.28,0,0,1-.5.42,2.79,2.79,0,0,1-.69.31A3.12,3.12,0,0,1,437.32,313.12Zm.06-.72a2.49,2.49,0,0,0,1.78-.75,2.39,2.39,0,0,0,.76-1.77h-2a2.63,2.63,0,0,0-1.65.43,1.1,1.1,0,0,0-.44,1,1.06,1.06,0,0,0,.49.81A1.8,1.8,0,0,0,437.38,312.4Z" transform="translate(-154.27 -76.07)"/><path class="cls-7" d="M442.58,313v-8.4h.84V313Z" transform="translate(-154.27 -76.07)"/><path class="cls-7" d="M446.34,305.37a.64.64,0,0,1-.45.18.61.61,0,0,1-.45-.18.58.58,0,0,1-.19-.45.63.63,0,0,1,.64-.63.64.64,0,0,1,.45.18.65.65,0,0,1,0,.9Zm-.88,7.65v-6.36h.84V313Z" transform="translate(-154.27 -76.07)"/><path class="cls-7" d="M450.86,313.12a4.51,4.51,0,0,1-2.76-1v-1a3.88,3.88,0,0,0,1.18.84,3.69,3.69,0,0,0,1.56.34,2,2,0,0,0,1.19-.31.86.86,0,0,0,.43-.75.81.81,0,0,0-.43-.69,4.43,4.43,0,0,0-1.45-.49,5.53,5.53,0,0,1-1.87-.65,1.27,1.27,0,0,1-.6-1.11,1.51,1.51,0,0,1,.75-1.33,3.16,3.16,0,0,1,1.74-.49,4.49,4.49,0,0,1,2.48.77v.85a4.24,4.24,0,0,0-2.48-.88,2.23,2.23,0,0,0-1.17.29.89.89,0,0,0-.51.79.7.7,0,0,0,.46.65,7.81,7.81,0,0,0,1.61.44,3.92,3.92,0,0,1,1.76.7,1.47,1.47,0,0,1,.53,1.13,1.56,1.56,0,0,1-.68,1.35A3,3,0,0,1,450.86,313.12Z" transform="translate(-154.27 -76.07)"/><path class="cls-7" d="M457.9,313.12a3.13,3.13,0,0,1-2.32-1,3.19,3.19,0,0,1-.94-2.32,3.26,3.26,0,0,1,3.26-3.28,3.08,3.08,0,0,1,2.14.83,3.22,3.22,0,0,1,1,2,2.13,2.13,0,0,1,0,.71h-5.61a2.28,2.28,0,0,0,.76,1.6,2.4,2.4,0,0,0,1.65.62,2.56,2.56,0,0,0,1.24-.31,2.63,2.63,0,0,0,.92-.83l.78.16a3,3,0,0,1-1.19,1.27A3.39,3.39,0,0,1,457.9,313.12Zm-2.41-3.66h4.77a2.4,2.4,0,0,0-4.77,0Z" transform="translate(-154.27 -76.07)"/><path class="cls-7" d="M462.51,313v-.82l4-4.77h-4v-.78h5v.76l-4,4.82h4V313Z" transform="translate(-154.27 -76.07)"/><path class="cls-7" d="M475,313l-2.35-6.36h.9l2.2,6.07,2.18-6.07h.9L476.44,313Z" transform="translate(-154.27 -76.07)"/><path class="cls-7" d="M485.27,312.15a3.12,3.12,0,0,1-2.31,1,3.07,3.07,0,0,1-2.3-1,3.33,3.33,0,0,1,0-4.64,3.24,3.24,0,0,1,4.61,0,3.3,3.3,0,0,1,0,4.63Zm-2.31.18a2.37,2.37,0,0,0,1.75-.73,2.52,2.52,0,0,0,0-3.53,2.43,2.43,0,0,0-3.49,0,2.55,2.55,0,0,0,0,3.53A2.38,2.38,0,0,0,483,312.33Z" transform="translate(-154.27 -76.07)"/><path class="cls-7" d="M491.61,313a2.8,2.8,0,0,1-2.19-.15,1.93,1.93,0,0,1-.76-1.77v-3.69h-1.38v-.73h1.38v-1.81h.84v1.81h2.12v.73H489.5l0,3.68q0,1.73,2.13,1.11Z" transform="translate(-154.27 -76.07)"/><path class="cls-7" d="M493.18,313v-6.36H494V308a2,2,0,0,1,1-1.14,2.66,2.66,0,0,1,1.69-.23v.89a2.12,2.12,0,0,0-1.92.37,2.38,2.38,0,0,0-.77,1.93V313Z" transform="translate(-154.27 -76.07)"/><path class="cls-7" d="M500.85,313.12a3.13,3.13,0,0,1-2.32-1,3.2,3.2,0,0,1-.95-2.32,3.28,3.28,0,0,1,3.27-3.28,3.05,3.05,0,0,1,2.13.83,3.23,3.23,0,0,1,1.06,2,2.43,2.43,0,0,1,0,.71h-5.61a2.24,2.24,0,0,0,.76,1.6,2.4,2.4,0,0,0,1.65.62,2.5,2.5,0,0,0,1.23-.31,2.58,2.58,0,0,0,.93-.83l.78.16a3,3,0,0,1-1.2,1.27A3.36,3.36,0,0,1,500.85,313.12Zm-2.41-3.66h4.77a2.35,2.35,0,0,0-.76-1.53,2.28,2.28,0,0,0-1.61-.62,2.39,2.39,0,0,0-2.4,2.15Z" transform="translate(-154.27 -76.07)"/><path class="cls-7" d="M512.51,313.12a3.09,3.09,0,0,1-2.31-1,3.28,3.28,0,0,1,2.31-5.6,3.06,3.06,0,0,1,2.14.83,3.22,3.22,0,0,1,1.05,2,2.49,2.49,0,0,1,0,.71H510.1a2.28,2.28,0,0,0,.76,1.6,2.4,2.4,0,0,0,1.65.62,2.56,2.56,0,0,0,1.24-.31,2.63,2.63,0,0,0,.92-.83l.78.16a3,3,0,0,1-1.19,1.27A3.36,3.36,0,0,1,512.51,313.12Zm-2.41-3.66h4.78a2.36,2.36,0,0,0-.77-1.53,2.28,2.28,0,0,0-1.61-.62,2.39,2.39,0,0,0-2.4,2.15Zm1.62-3.82,1.07-1.55h1.05l-1.39,1.55Z" transform="translate(-154.27 -76.07)"/><path class="cls-7" d="M521.21,313a2.77,2.77,0,0,1-2.18-.15,1.94,1.94,0,0,1-.77-1.77v-3.69h-1.38v-.73h1.38v-1.81h.84v1.81h2.12v.73H519.1v3.68c0,1.15.71,1.52,2.12,1.11Z" transform="translate(-154.27 -76.07)"/><path class="cls-7" d="M525,313.12a2.71,2.71,0,0,1-1.63-.48,1.64,1.64,0,0,1-.69-1.37,1.75,1.75,0,0,1,.65-1.46,3.34,3.34,0,0,1,2.16-.57h2.11v-.52a1.2,1.2,0,0,0-.58-1.07,2.55,2.55,0,0,0-1.42-.38,2.78,2.78,0,0,0-1.26.28,1.21,1.21,0,0,0-.64.9h-.82a1.73,1.73,0,0,1,.83-1.39,3.35,3.35,0,0,1,1.86-.5,3.46,3.46,0,0,1,2,.57,1.75,1.75,0,0,1,.81,1.5V313h-.8v-1.47l-.19.31a4.08,4.08,0,0,1-.34.4,3.35,3.35,0,0,1-.51.42,2.88,2.88,0,0,1-.68.31A3.17,3.17,0,0,1,525,313.12Zm.06-.72a2.45,2.45,0,0,0,1.77-.75,2.4,2.4,0,0,0,.77-1.77h-2a2.61,2.61,0,0,0-1.65.43,1.1,1.1,0,0,0-.44,1,1,1,0,0,0,.49.81A1.8,1.8,0,0,0,525,312.4Z" transform="translate(-154.27 -76.07)"/><path class="cls-7" d="M533.49,313.13A2.87,2.87,0,0,1,531,311.7V313h-.84v-8.4H531V308a2.72,2.72,0,0,1,1-1,3,3,0,0,1,1.47-.41,3,3,0,0,1,2.28.95,3.41,3.41,0,0,1,0,4.66A3,3,0,0,1,533.49,313.13Zm-1.81-1.52a2.39,2.39,0,0,0,1.75.74,2.35,2.35,0,0,0,1.74-.74,2.51,2.51,0,0,0,0-3.54,2.43,2.43,0,0,0-3.49,0,2.54,2.54,0,0,0,0,3.54Z" transform="translate(-154.27 -76.07)"/><path class="cls-7" d="M538.42,313v-8.4h.84V313Z" transform="translate(-154.27 -76.07)"/><path class="cls-7" d="M542.18,305.37a.61.61,0,0,1-.45.18.64.64,0,0,1-.45-.18.61.61,0,0,1-.18-.45.62.62,0,0,1,.63-.63.61.61,0,0,1,.45.18.63.63,0,0,1,0,.9ZM541.3,313v-6.36h.84V313Z" transform="translate(-154.27 -76.07)"/><path class="cls-7" d="M546.7,313.12a4.55,4.55,0,0,1-2.76-1v-1a3.93,3.93,0,0,0,1.19.84,3.62,3.62,0,0,0,1.56.34,2,2,0,0,0,1.19-.31.88.88,0,0,0,.43-.75.84.84,0,0,0-.43-.69,4.51,4.51,0,0,0-1.46-.49,5.62,5.62,0,0,1-1.87-.65,1.27,1.27,0,0,1-.6-1.11,1.51,1.51,0,0,1,.75-1.33,3.17,3.17,0,0,1,1.75-.49,4.46,4.46,0,0,1,2.47.77v.85a4.22,4.22,0,0,0-2.47-.88,2.27,2.27,0,0,0-1.18.29.9.9,0,0,0-.5.79.69.69,0,0,0,.45.65,8,8,0,0,0,1.61.44,4,4,0,0,1,1.77.7,1.46,1.46,0,0,1,.52,1.13,1.54,1.54,0,0,1-.68,1.35A3,3,0,0,1,546.7,313.12Z" transform="translate(-154.27 -76.07)"/><path class="cls-7" d="M553.32,313.12a4.55,4.55,0,0,1-2.76-1v-1a4.06,4.06,0,0,0,1.19.84,3.69,3.69,0,0,0,1.56.34,2,2,0,0,0,1.19-.31.86.86,0,0,0,.43-.75.81.81,0,0,0-.43-.69,4.43,4.43,0,0,0-1.45-.49,5.53,5.53,0,0,1-1.87-.65,1.27,1.27,0,0,1-.6-1.11,1.51,1.51,0,0,1,.75-1.33,3.16,3.16,0,0,1,1.74-.49,4.44,4.44,0,0,1,2.47.77v.85a4.19,4.19,0,0,0-2.47-.88,2.21,2.21,0,0,0-1.17.29.89.89,0,0,0-.51.79.68.68,0,0,0,.46.65,7.81,7.81,0,0,0,1.61.44,3.92,3.92,0,0,1,1.76.7,1.5,1.5,0,0,1,.53,1.13,1.55,1.55,0,0,1-.69,1.35A2.93,2.93,0,0,1,553.32,313.12Z" transform="translate(-154.27 -76.07)"/><path class="cls-7" d="M560.37,313.12a3.11,3.11,0,0,1-2.32-1,3.2,3.2,0,0,1-.95-2.32,3.28,3.28,0,0,1,3.27-3.28,3.05,3.05,0,0,1,2.13.83,3.23,3.23,0,0,1,1.06,2,2.43,2.43,0,0,1,0,.71H558a2.24,2.24,0,0,0,.76,1.6,2.4,2.4,0,0,0,1.65.62,2.5,2.5,0,0,0,1.23-.31,2.58,2.58,0,0,0,.93-.83l.78.16a3,3,0,0,1-1.2,1.27A3.36,3.36,0,0,1,560.37,313.12ZM558,309.46h4.77a2.35,2.35,0,0,0-.76-1.53,2.28,2.28,0,0,0-1.61-.62,2.37,2.37,0,0,0-2.4,2.15Z" transform="translate(-154.27 -76.07)"/><path class="cls-7" d="M565.12,313v-6.36H566v1.17a2.23,2.23,0,0,1,.78-.92,2.13,2.13,0,0,1,1.24-.36,2.21,2.21,0,0,1,1.28.4,2.24,2.24,0,0,1,.83,1.14A2.3,2.3,0,0,1,571,307a2.33,2.33,0,0,1,1.36-.42,2.28,2.28,0,0,1,1.7.71,2.66,2.66,0,0,1,.68,1.93V313h-.84v-3.57a2.43,2.43,0,0,0-.45-1.57,1.5,1.5,0,0,0-1.22-.56,1.63,1.63,0,0,0-1.35.62,2.44,2.44,0,0,0-.52,1.49V313h-.84v-3.57a2.37,2.37,0,0,0-.46-1.57,1.48,1.48,0,0,0-1.21-.56,1.62,1.62,0,0,0-1.37.66,2.49,2.49,0,0,0-.5,1.56V313Z" transform="translate(-154.27 -76.07)"/><path class="cls-7" d="M579.47,313.12a3.09,3.09,0,0,1-2.31-1,3.28,3.28,0,0,1,2.31-5.6,3.06,3.06,0,0,1,2.14.83,3.22,3.22,0,0,1,1,2,2.49,2.49,0,0,1,0,.71h-5.62a2.28,2.28,0,0,0,.76,1.6,2.4,2.4,0,0,0,1.65.62,2.56,2.56,0,0,0,1.24-.31,2.63,2.63,0,0,0,.92-.83l.78.16a3,3,0,0,1-1.19,1.27A3.36,3.36,0,0,1,579.47,313.12Zm-2.41-3.66h4.78a2.36,2.36,0,0,0-.77-1.53,2.28,2.28,0,0,0-1.61-.62,2.39,2.39,0,0,0-2.4,2.15Z" transform="translate(-154.27 -76.07)"/><path class="cls-7" d="M584.19,313v-6.36H585v1.23a2.56,2.56,0,0,1,.92-1,2.5,2.5,0,0,1,1.38-.38,2.73,2.73,0,0,1,1.91.72,2.45,2.45,0,0,1,.79,1.92V313h-.84v-3.55a2.1,2.1,0,0,0-.57-1.57,2,2,0,0,0-1.42-.57,2,2,0,0,0-1.55.69,2.51,2.51,0,0,0-.62,1.76V313Z" transform="translate(-154.27 -76.07)"/><path class="cls-7" d="M595.54,313a2.77,2.77,0,0,1-2.18-.15,1.92,1.92,0,0,1-.77-1.77v-3.69h-1.38v-.73h1.38v-1.81h.84v1.81h2.12v.73h-2.12v3.68c0,1.15.7,1.52,2.12,1.11Z" transform="translate(-154.27 -76.07)"/><path class="cls-7" d="M601.8,312.93a.63.63,0,0,1-.88,0,.61.61,0,0,1-.18-.45.6.6,0,0,1,.18-.44.65.65,0,0,1,.88,0,.6.6,0,0,1,.18.44A.61.61,0,0,1,601.8,312.93Zm-.7-2.19-.11-2.48-.11-3.64h1l-.09,3.65-.12,2.47Z" transform="translate(-154.27 -76.07)"/><path class="cls-2" d="M468.56,273.67a3,3,0,0,1-4.17,0,2.76,2.76,0,0,1-.86-2.07,2.81,2.81,0,0,1,.86-2.08,3,3,0,0,1,5,2.08A2.76,2.76,0,0,1,468.56,273.67Zm-4.46,22V276.57h4.68v19.08Z" transform="translate(-154.27 -76.07)"/><path class="cls-2" d="M473.75,295.69v-4.83l9.79-9.93h-9.75v-4.36h15.48V281l-10,10.3h10v4.36Z" transform="translate(-154.27 -76.07)"/><path class="cls-2" d="M499.06,273.67a3,3,0,0,1-4.18,0,2.76,2.76,0,0,1-.86-2.07,2.81,2.81,0,0,1,.86-2.08,3,3,0,0,1,5,2.08A2.79,2.79,0,0,1,499.06,273.67Zm-4.47,22V276.57h4.68v19.08Z" transform="translate(-154.27 -76.07)"/><path class="cls-2" d="M504.89,295.65V276.57h2v3.82a6.84,6.84,0,0,1,2.39-3,7.06,7.06,0,0,1,7.92.09,7,7,0,0,1,2.47,3.71,7,7,0,0,1,2.63-3.64,7.16,7.16,0,0,1,4.28-1.33,6.7,6.7,0,0,1,5.06,2.12,8.16,8.16,0,0,1,2,5.87v11.41h-2V284.92a7.76,7.76,0,0,0-1.46-5.06,4.84,4.84,0,0,0-3.94-1.78,5.27,5.27,0,0,0-4.34,2,7.9,7.9,0,0,0-1.67,4.82v10.73h-2V284.92a7.71,7.71,0,0,0-1.48-5,4.77,4.77,0,0,0-3.88-1.8,5.31,5.31,0,0,0-4.43,2.07,7.79,7.79,0,0,0-1.62,5v10.55Z" transform="translate(-154.27 -76.07)"/><path class="cls-2" d="M548,295.94a9.32,9.32,0,0,1-6.93-2.88,9.63,9.63,0,0,1-2.83-7,9.5,9.5,0,0,1,2.85-6.94,9.34,9.34,0,0,1,6.91-2.88,9.07,9.07,0,0,1,6.44,2.53,9.72,9.72,0,0,1,3.1,6.21,6.26,6.26,0,0,1,0,1.77H540.2a7.51,7.51,0,0,0,2.43,5.26A7.61,7.61,0,0,0,548,294.1a8,8,0,0,0,6.88-3.81l1.9.32a9.37,9.37,0,0,1-3.6,3.85A9.67,9.67,0,0,1,548,295.94Zm-7.78-10.8h15.38a7.88,7.88,0,0,0-2.43-5,7.25,7.25,0,0,0-5.21-2.05,7.4,7.4,0,0,0-5.27,2.05A7.79,7.79,0,0,0,540.2,285.14Z" transform="translate(-154.27 -76.07)"/><path class="cls-2" d="M562.16,295.65V276.57h2v4a8.1,8.1,0,0,1,2.81-3.11,7.74,7.74,0,0,1,4.39-1.24,8.29,8.29,0,0,1,5.75,2.16,7.47,7.47,0,0,1,2.39,5.83v11.41h-2V285a6.7,6.7,0,0,0-1.87-5.08,6.68,6.68,0,0,0-9.52.4,8.15,8.15,0,0,0-2,5.65v9.72Z" transform="translate(-154.27 -76.07)"/><path class="cls-2" d="M592.73,296A8.24,8.24,0,0,1,587,293.8a7.51,7.51,0,0,1-2.4-5.85V276.57h2v10.66a6.73,6.73,0,0,0,1.87,5,6.68,6.68,0,0,0,9.53-.37,8.22,8.22,0,0,0,2-5.66v-9.68h2v19.08h-2v-4.07a7.93,7.93,0,0,1-2.81,3.15A7.75,7.75,0,0,1,592.73,296Z" transform="translate(-154.27 -76.07)"/><path class="cls-2" d="M451.68,276.06h-4.42v1.7h4.42a3.08,3.08,0,0,1,3.08,3.08v4.42h1.7v-4.42A4.78,4.78,0,0,0,451.68,276.06Z" transform="translate(-154.27 -76.07)"/><path class="cls-2" d="M441.14,276.06a4.78,4.78,0,0,0-4.77,4.78v4.42h1.7v-4.42a3.08,3.08,0,0,1,3.07-3.08h4.43v-1.7h-4.43Z" transform="translate(-154.27 -76.07)"/><path class="cls-2" d="M441.14,294.45a3.08,3.08,0,0,1-3.07-3.07V287h-1.7v4.43a4.78,4.78,0,0,0,4.77,4.77h4.43v-1.7h-4.43Z" transform="translate(-154.27 -76.07)"/><path class="cls-2" d="M455.26,287h-.5v4.43a3.08,3.08,0,0,1-3.08,3.07h-4.42v1.7h4.42a4.78,4.78,0,0,0,4.78-4.77V287h-1.2Z" transform="translate(-154.27 -76.07)"/><rect class="cls-2" x="287.88" y="205.78" width="3.1" height="3.1" rx="0.77"/><rect class="cls-2" x="287.88" y="211.2" width="3.1" height="3.1" rx="0.77"/><rect class="cls-2" x="293.3" y="211.2" width="3.1" height="3.1" rx="0.77"/><rect class="cls-2" x="293.3" y="205.78" width="3.1" height="3.1" rx="0.77"/></g></svg>