<svg id="Layer_1" data-name="Layer 1" xmlns="http://www.w3.org/2000/svg" viewBox="0 0 1134.63 113.95">
  <g>
    <g>
      <path d="M183.4,31.41h11.7L150.91,62,196.4,93.8H184.7L143.14,65.21H132.71V93.8h-7.8V31.41h7.8v27.3h10.41Z" transform="translate(-18.41 -16.52)" fill="#51bcec"/>
      <path d="M267.58,79.5H218.77l-8.14,14.3h-9l35.6-62.39h11.19L283.87,93.8h-8.18ZM263.89,73,243.22,36.57,222.47,73Z" transform="translate(-18.41 -16.52)" fill="#51bcec"/>
      <path d="M366.68,93.8h-7.8V82.1c0-1.89,0-3.52-.1-4.89a10.93,10.93,0,0,0-.69-3.51,5.27,5.27,0,0,0-1.85-2.36A9.65,9.65,0,0,0,352.66,70a38.09,38.09,0,0,0-5.87-.67c-2.37-.12-5.28-.18-8.75-.18H303V93.8h-7.8V31.41h44.15a119,119,0,0,1,12,.51,41.94,41.94,0,0,1,8.09,1.52A14,14,0,0,1,364.38,36a9,9,0,0,1,2.52,3.53,14.94,14.94,0,0,1,.94,4.55c.09,1.68.14,3.54.14,5.57a37.28,37.28,0,0,1-.55,6.84,14.26,14.26,0,0,1-1.85,5,9.77,9.77,0,0,1-3.45,3.31,15.46,15.46,0,0,1-5.4,1.73,13.52,13.52,0,0,1,5.19,1.7,8.39,8.39,0,0,1,3,3.17,13.05,13.05,0,0,1,1.4,4.63,48.12,48.12,0,0,1,.35,6.09ZM303,62.61h36.35c3.47,0,6.38-.06,8.75-.19a38.09,38.09,0,0,0,5.87-.67,9.48,9.48,0,0,0,3.58-1.38A5.24,5.24,0,0,0,359.39,58a11,11,0,0,0,.69-3.52c.06-1.36.1-3,.1-4.89s0-3.28-.1-4.55a9.08,9.08,0,0,0-.69-3.21,4.63,4.63,0,0,0-1.85-2.07,10.43,10.43,0,0,0-3.58-1.2,41.51,41.51,0,0,0-5.87-.55c-2.37-.08-5.28-.12-8.75-.12H303Z" transform="translate(-18.41 -16.52)" fill="#51bcec"/>
      <path d="M448.57,31.41v6.5h-31.2V93.8h-7.8V37.91H378.38v-6.5Z" transform="translate(-18.41 -16.52)" fill="#51bcec"/>
      <path d="M461.57,93.8V31.41H524v6.5H469.37v20.8h52v6.5h-52V87.3H524v6.5Z" transform="translate(-18.41 -16.52)" fill="#51bcec"/>
    </g>
    <g>
      <polygon points="709.86 55.23 746.99 55.23 728.46 22.57 709.86 55.23" fill="#51bcec"/>
      <path d="M615.51,68.29a4.44,4.44,0,0,0-1.74-1.46,13.11,13.11,0,0,0-3.4-1,42.75,42.75,0,0,0-5.48-.53c-2.19-.09-4.83-.14-7.83-.14H562V86.05h35.1c3,0,5.64,0,7.83-.14a35.43,35.43,0,0,0,5.45-.58,10.43,10.43,0,0,0,3.33-1.18,4.83,4.83,0,0,0,1.77-1.85,8.86,8.86,0,0,0,.94-3.09,36.58,36.58,0,0,0,.27-4.82,22.83,22.83,0,0,0-.27-3.76A5.8,5.8,0,0,0,615.51,68.29Z" transform="translate(-18.41 -16.52)" fill="#51bcec"/>
      <path d="M537.75,16.53v92H1153v-92Zm88.89,64a18.35,18.35,0,0,1-1.34,5.21,12.47,12.47,0,0,1-3,4.19,14.92,14.92,0,0,1-5.07,3,33.89,33.89,0,0,1-7.39,1.68,85.24,85.24,0,0,1-10.21.53h-48V30.16h53.28a39.18,39.18,0,0,1,9.75,1,13.73,13.73,0,0,1,6,3.11,10.43,10.43,0,0,1,2.93,5.22,29.46,29.46,0,0,1,.68,6.63,22.22,22.22,0,0,1-.48,4.86,16.54,16.54,0,0,1-1.28,3.74,11.64,11.64,0,0,1-1.87,2.75,11.86,11.86,0,0,1-2.13,1.83c-.25.17-.51.33-.77.48a15.62,15.62,0,0,1,2,.92,15,15,0,0,1,2.6,1.89,12.25,12.25,0,0,1,2.31,2.85,15.44,15.44,0,0,1,1.61,3.88,19,19,0,0,1,.62,5.07A56.78,56.78,0,0,1,626.64,80.48Zm72.58,14.57H639.53V30.16h10.3V86.05h49.39Zm79.39,0-8.11-14.3H723.15L715,95.05H703.1l37-64.89h12.65l36.9,64.89Zm102.24,0H868.71L810,40.77V95.05h-10.3V30.16h15.44l55.44,52.92V30.16h10.3Zm90.43-42.89H961V50.91a21.62,21.62,0,0,0-1-7.28A6.86,6.86,0,0,0,957,40a14.18,14.18,0,0,0-5.88-1.7,96.52,96.52,0,0,0-9.68-.4H923.23c-3.41,0-6.32.1-8.64.3a19.49,19.49,0,0,0-5.51,1.15,6.6,6.6,0,0,0-3,2.26,10.5,10.5,0,0,0-1.62,4.14,40.62,40.62,0,0,0-.62,6.87c-.06,2.75-.08,6.12-.08,10s0,7.25.1,10a41.68,41.68,0,0,0,.64,6.88,10.94,10.94,0,0,0,1.6,4.15,6.57,6.57,0,0,0,3,2.24,19.49,19.49,0,0,0,5.51,1.15c2.32.2,5.23.3,8.64.3h18.24c3,0,5.59-.08,7.75-.24a27.38,27.38,0,0,0,5.36-.85,9.17,9.17,0,0,0,3.29-1.56,6.46,6.46,0,0,0,1.86-2.41,12.49,12.49,0,0,0,1-3.76A49,49,0,0,0,961,73V71.76h10.3V73a46.74,46.74,0,0,1-.51,7.23,20,20,0,0,1-1.84,6,15,15,0,0,1-3.61,4.63A18.08,18.08,0,0,1,959.69,94a36.3,36.3,0,0,1-7.83,1.78,85.44,85.44,0,0,1-10.39.55H923.23A71.9,71.9,0,0,1,911,95.46a27.21,27.21,0,0,1-8.45-2.78,14.74,14.74,0,0,1-5.34-4.86,20.3,20.3,0,0,1-2.69-6.71,45.15,45.15,0,0,1-.94-8.4c-.08-3-.12-6.42-.12-10.1s0-7.09.12-10.11a45.25,45.25,0,0,1,.94-8.4,20.25,20.25,0,0,1,2.69-6.7,14.76,14.76,0,0,1,5.34-4.87A27.38,27.38,0,0,1,911,29.75a71.82,71.82,0,0,1,12.26-.89h18.24a85.15,85.15,0,0,1,10.39.56,37.75,37.75,0,0,1,7.82,1.73,18.59,18.59,0,0,1,5.62,3,14.67,14.67,0,0,1,3.61,4.4,18,18,0,0,1,1.86,5.63,40.4,40.4,0,0,1,.51,6.7Zm87.87,42.89h-10.3V66.46h-54.7V95.05h-10.3V30.16h10.3v27.3h54.7V30.16h10.3Zm80.06-55.89h-54.59v18.3h52v9h-52V86.05h54.59v9h-64.89V30.16h64.89Z" transform="translate(-18.41 -16.52)" fill="#51bcec"/>
      <path d="M603.86,56a31.3,31.3,0,0,0,4.71-.58,9.38,9.38,0,0,0,2.9-1.08A4.48,4.48,0,0,0,613,52.73a7.12,7.12,0,0,0,.81-2.58,30.9,30.9,0,0,0,.23-4,12,12,0,0,0-.5-3.82,3.34,3.34,0,0,0-1.49-1.83,9,9,0,0,0-3.47-1,52.81,52.81,0,0,0-6.25-.3H562v17h35.1C599.69,56.16,602,56.1,603.86,56Z" transform="translate(-18.41 -16.52)" fill="#51bcec"/>
    </g>
    <g>
      <path d="M105,81.7c1.8-.74,2.46-15.22-5.27-33.2S80.21,19,78.41,19.73s-2.77,17.18,5,35.16S103.2,82.43,105,81.7Z" transform="translate(-18.41 -16.52)" fill="#51bcec"/>
      <path d="M110.4,94.51c-9.55,1.92-16.21-15-45.4-12-4.46.47-7.54,3.37-6.09,6.94,1.07,2.63,4.77,11,5.9,13.55s5.1,3.25,6.07,5.48c0,0,0,0,0,0H79l25.71,22-3.32-22h9Z" transform="translate(-18.41 -16.52)" fill="#51bcec"/>
      <path d="M108.46,44.15c.69,1.6,1.33,3.21,1.94,4.81V16.52H91.64A108.36,108.36,0,0,1,108.46,44.15Z" transform="translate(-18.41 -16.52)" fill="#51bcec"/>
      <path d="M68.37,16.52h-50V65.17C63,46.23,65.9,27.75,68.37,16.52Z" transform="translate(-18.41 -16.52)" fill="#51bcec"/>
      <path d="M41.24,97.27c-1.55-3.55-5.91-.24-10.08-5.83,0,0-3.7,1.19-4.71,1.6-2.49,1-5.37.56-8-.73v16.2H46.13Z" transform="translate(-18.41 -16.52)" fill="#51bcec"/>
    </g>
  </g>
</svg>
