<svg id="Calque_1" data-name="Calque 1" xmlns="http://www.w3.org/2000/svg" viewBox="0 0 200 200"><path d="M52.26,80.52l.05,33.91h0a15.23,15.23,0,0,0,9,13.9l12,5.4a64,64,0,0,0,52.33,0l12-5.4a15.25,15.25,0,0,0,9-13.9V81.2h-6.1v33.23a9.14,9.14,0,0,1-5.4,8.34l-12,5.4a57.92,57.92,0,0,1-47.35,0l-12-5.4a9.14,9.14,0,0,1-5.4-8.34l0-33.92ZM56.6,84,85.81,70.89a33.41,33.41,0,0,1,27.41,0L142.43,84l2.5-5.56L115.71,65.33a39.53,39.53,0,0,0-32.39,0L54.11,78.42,56.6,84Zm.11-5.5-9.46-4.73a9,9,0,0,0-4.08-1A9.13,9.13,0,0,0,34,81.92v13a21.3,21.3,0,0,0,8.53,17l11,8.23,3.65-4.88-11-8.22a15.23,15.23,0,0,1-6.1-12.18v-13A3,3,0,0,1,41,79.74a3.06,3.06,0,0,1,2.13-.87,2.92,2.92,0,0,1,1.36.33L54,83.93l2.72-5.45ZM145,83.93l9.46-4.73a2.92,2.92,0,0,1,1.36-.33,3.06,3.06,0,0,1,2.13.87,3,3,0,0,1,.92,2.18v13a15.25,15.25,0,0,1-6.09,12.18l-11,8.22,3.66,4.88,11-8.23a21.3,21.3,0,0,0,8.53-17v-13a9.08,9.08,0,0,0-2.78-6.57,9.19,9.19,0,0,0-6.36-2.57,9,9,0,0,0-4.08,1l-9.46,4.73L145,83.93Z" style="fill:#0895a8"/><path d="M69.66,114.56,83,118.78a54.9,54.9,0,0,0,33,0l13.35-4.22a3,3,0,1,0-1.84-5.8L114.19,113a48.78,48.78,0,0,1-29.35,0L71.5,108.76a3,3,0,1,0-1.84,5.8Z" style="fill:#0895a8"/><path d="M69.66,99.34,83,103.55a54.9,54.9,0,0,0,33,0l13.35-4.21a3,3,0,1,0-1.84-5.81l-13.34,4.21a48.78,48.78,0,0,1-29.35,0L71.5,93.53a3,3,0,0,0-1.84,5.81Z" style="fill:#0895a8"/></svg>