<svg id="V_" data-name="V°" xmlns="http://www.w3.org/2000/svg" xmlns:xlink="http://www.w3.org/1999/xlink" viewBox="0 0 303.522 263.279"><defs><clipPath id="clip-path" transform="translate(-930.103 -158.803)"><rect x="873.228" y="-14.173" width="433.701" height="623.622" style="fill:none"/></clipPath></defs><g style="clip-path:url(#clip-path)"><path d="M1121.035,414.989a88.786,88.786,0,0,0,17.481-9.278c37.642-25.778,80.2-69.669,92.23-114.614a80,80,0,0,0,.145-41.991c-8.589-31.219-21.824-57.86-56.244-65.109-22.3-4.7-42.224,3.849-64.1,3.309-41.5-1.024-74.71-40.369-117.861-24.907-31.642,11.337-49.466,44.893-57.552,75.714-8.158,31.093-6.573,65.273,6.108,94.952a131.827,131.827,0,0,0,11.075,20.665C984.623,402.83,1063.781,437.7,1121.035,414.989Z" transform="translate(-930.103 -158.803)" style="fill:#0896a7"/></g></svg>