<svg id="Calque_1" data-name="Calque 1" xmlns="http://www.w3.org/2000/svg" viewBox="0 0 200 200"><path d="M66.16,125.21a39.07,39.07,0,0,1,0-50,3.88,3.88,0,1,0-6-5,46.83,46.83,0,0,0,0,60,3.88,3.88,0,0,0,6-5Z" style="fill:#0895a8"/><path d="M52.23,139.1a58.58,58.58,0,0,1,0-77.48,3.89,3.89,0,0,0-5.83-5.14,66.36,66.36,0,0,0,0,87.76,3.89,3.89,0,1,0,5.83-5.14Z" style="fill:#0895a8"/><path d="M134.66,75.52a39.06,39.06,0,0,1,0,50,3.88,3.88,0,1,0,6,5,46.83,46.83,0,0,0,0-59.95,3.89,3.89,0,0,0-6,5Z" style="fill:#0895a8"/><path d="M148.6,61.62a58.61,58.61,0,0,1,0,77.48,3.88,3.88,0,1,0,5.82,5.14,66.36,66.36,0,0,0,0-87.76,3.88,3.88,0,1,0-5.82,5.14Z" style="fill:#0895a8"/><rect x="79.4" y="79.54" width="15.53" height="15.53" rx="3.88" style="fill:#0895a8"/><rect x="79.4" y="106.72" width="15.53" height="15.53" rx="3.88" style="fill:#0895a8"/><rect x="106.58" y="106.72" width="15.53" height="15.53" rx="3.88" style="fill:#0895a8"/><rect x="106.58" y="79.54" width="15.53" height="15.53" rx="3.88" style="fill:#0895a8"/></svg>