<svg xmlns="http://www.w3.org/2000/svg" viewBox="0 0 731.23 121.48"><defs><style>.cls-1{fill:#80cbd7;}</style></defs><g id="R_" data-name="R°"><path class="cls-1" d="M200.33,259.78a13.25,13.25,0,0,1-18.45,0,12.31,12.31,0,0,1-3.81-9.14,13,13,0,1,1,26.08,0A12.32,12.32,0,0,1,200.33,259.78Zm-19.72,97.08V272.58h20.68v84.28Z" transform="translate(-58.11 -237.6)"/><path class="cls-1" d="M223.23,357V335.71l43.26-43.88h-43.1V272.58h68.38V292.3L247.4,337.78h44V357Z" transform="translate(-58.11 -237.6)"/><path class="cls-1" d="M335,259.78a13.25,13.25,0,0,1-18.45,0,12.31,12.31,0,0,1-3.81-9.14,13,13,0,1,1,26.08,0A12.32,12.32,0,0,1,335,259.78ZM315.3,356.86V272.58H336v84.28Z" transform="translate(-58.11 -237.6)"/><path class="cls-1" d="M360.78,356.86V272.58h8.75v16.86a30.24,30.24,0,0,1,10.57-13.12,31.18,31.18,0,0,1,35,.4q7.56,5.56,10.9,16.38A31,31,0,0,1,437.59,277a31.83,31.83,0,0,1,18.92-5.88,29.68,29.68,0,0,1,22.34,9.38q9,9.39,9,25.92v50.41h-8.75V309.48q0-14.48-6.44-22.35t-17.41-7.87q-12.09,0-19.16,8.91a34.66,34.66,0,0,0-7.4,21.31v47.38h-8.74V309.48q0-14.31-6.52-22.27a21.14,21.14,0,0,0-17.18-7.95q-12.4,0-19.56,9.14t-7.15,21.87v46.59Z" transform="translate(-58.11 -237.6)"/><path class="cls-1" d="M551.13,358.14a41.19,41.19,0,0,1-30.61-12.73,44,44,0,0,1,.08-61.54,41.29,41.29,0,0,1,30.53-12.72,40.13,40.13,0,0,1,28.46,11.21,42.88,42.88,0,0,1,13.68,27.43,27.89,27.89,0,0,1,.16,7.8H516.78a33,33,0,0,0,10.73,23.21A33.55,33.55,0,0,0,551.13,350a35.21,35.21,0,0,0,17.49-4.54,34.56,34.56,0,0,0,12.88-12.32l8.43,1.43a41.47,41.47,0,0,1-15.9,17A43.11,43.11,0,0,1,551.13,358.14Zm-34.35-47.71h67.9A34.47,34.47,0,0,0,574,288.17a32,32,0,0,0-23-9.07,32.73,32.73,0,0,0-23.3,9.07A34.14,34.14,0,0,0,516.78,310.43Z" transform="translate(-58.11 -237.6)"/><path class="cls-1" d="M613.78,356.86V272.58h8.75v17.81a35.28,35.28,0,0,1,12.4-13.75,34.25,34.25,0,0,1,19.4-5.49,36.57,36.57,0,0,1,25.37,9.54q10.57,9.54,10.57,25.76v50.41h-8.74V309.63q0-14.46-8.27-22.42A29.57,29.57,0,0,0,631.19,289q-8.66,9.71-8.66,25v42.93Z" transform="translate(-58.11 -237.6)"/><path class="cls-1" d="M748.79,358.3a36.39,36.39,0,0,1-25.36-9.62q-10.59-9.63-10.58-25.85V272.58h8.75v47.07q0,14.33,8.27,22.34a29.43,29.43,0,0,0,42.06-1.67q8.67-9.69,8.67-25V272.58h8.74v84.28H780.6v-18a35.15,35.15,0,0,1-12.41,13.92A34.25,34.25,0,0,1,748.79,358.3Z" transform="translate(-58.11 -237.6)"/><path class="cls-1" d="M125.76,270.33H106.2v7.5h19.56a13.6,13.6,0,0,1,13.59,13.59V311h7.5V291.42A21.11,21.11,0,0,0,125.76,270.33Z" transform="translate(-58.11 -237.6)"/><path class="cls-1" d="M79.2,270.33a21.11,21.11,0,0,0-21.09,21.09V311H65.6V291.42a13.61,13.61,0,0,1,13.6-13.59H98.75v-7.5H79.2Z" transform="translate(-58.11 -237.6)"/><path class="cls-1" d="M79.2,351.57A13.61,13.61,0,0,1,65.6,338V318.43H58.11V338A21.11,21.11,0,0,0,79.2,359.07H98.75v-7.5H79.2Z" transform="translate(-58.11 -237.6)"/><path class="cls-1" d="M141.56,318.43h-2.21V338a13.61,13.61,0,0,1-13.59,13.59H106.2v7.5h19.56A21.11,21.11,0,0,0,146.85,338V318.43h-5.29Z" transform="translate(-58.11 -237.6)"/><rect class="cls-1" x="25.55" y="58.28" width="13.69" height="13.69" rx="3.42"/><rect class="cls-1" x="25.55" y="82.24" width="13.69" height="13.69" rx="3.42"/><rect class="cls-1" x="49.5" y="82.24" width="13.69" height="13.69" rx="3.42"/><rect class="cls-1" x="49.5" y="58.28" width="13.69" height="13.69" rx="3.42"/></g></svg>