<svg id="Calque_1" data-name="Calque 1" xmlns="http://www.w3.org/2000/svg" viewBox="0 0 200 200"><path d="M137.19,134.94h3.53V65.24A11.28,11.28,0,0,0,129.44,54H83A11.27,11.27,0,0,0,71.71,65.24v69.7A11.26,11.26,0,0,0,83,146.21h46.46a11.27,11.27,0,0,0,11.28-11.27h-7.06a4.22,4.22,0,0,1-4.22,4.21H83a4.2,4.2,0,0,1-4.21-4.21V65.24A4.21,4.21,0,0,1,83,61h46.46a4.23,4.23,0,0,1,4.22,4.21v69.7Z" style="fill:#0895a8"/><path d="M109,128.1h-1.76v-1.77a1.77,1.77,0,0,0-1.77,1.77h1.77v0H109a1.77,1.77,0,0,0-1.76-1.77v1.77h0v1.76A1.76,1.76,0,0,0,109,128.1h-1.76v0h-1.77a1.76,1.76,0,0,0,1.77,1.76V128.1h5.29a5.3,5.3,0,1,0-5.29,5.29,5.29,5.29,0,0,0,5.29-5.29Z" style="fill:#0895a8"/></svg>