<svg id="Calque_1" data-name="Calque 1" xmlns="http://www.w3.org/2000/svg" viewBox="0 0 200 200"><path d="M129.6,83.13l2.49-2.48L110.26,58.72a17,17,0,0,0-12-5H78.8a16.68,16.68,0,0,0-8.86,2.33,15.4,15.4,0,0,0-6.23,7.82,17.53,17.53,0,0,0-1.08,4.65v60A17.38,17.38,0,0,0,66.5,139.8a17.62,17.62,0,0,0,8.13,5.42,15.61,15.61,0,0,0,4.44.78h43.26a19.75,19.75,0,0,0,4.6-.54,12.43,12.43,0,0,0,9.44-12.12V91a14.69,14.69,0,0,0-4.28-10.38l-2.49,2.48-2.49,2.48A7.64,7.64,0,0,1,129.35,91v42.31a5.4,5.4,0,0,1-4.07,5.29,12.37,12.37,0,0,1-3,.35H79.07v1.2l0-1.2h0v1.2l0-1.2a9.6,9.6,0,0,1-2.62-.55,9.92,9.92,0,0,1-6.83-9.91V68.74H66.14l3.5.22-1.52-.09,1.52.12v0l-1.52-.09,1.52.12a11.32,11.32,0,0,1,1.51-4.43A7.54,7.54,0,0,1,73.75,62a9.57,9.57,0,0,1,5-1.2H98.24a9.9,9.9,0,0,1,7,2.93l21.83,21.93Z" style="fill:#0895a8"/><path d="M100.05,61.72V78.14A10.9,10.9,0,0,0,111,89.05h18.39a3.51,3.51,0,1,0,0-7H111a3.9,3.9,0,0,1-3.89-3.89V61.72a3.51,3.51,0,1,0-7,0Z" style="fill:#0895a8"/></svg>