<svg id="Calque_1" data-name="Calque 1" xmlns="http://www.w3.org/2000/svg" viewBox="0 0 200 200"><path d="M106.12,61.07,69.79,97.41a18.85,18.85,0,0,0-5.66,13.25,15.49,15.49,0,0,0,4.45,11l19.84,19.83a15.48,15.48,0,0,0,11,4.46,18.87,18.87,0,0,0,13.25-5.66l35.73-35.73a3.46,3.46,0,1,0-4.89-4.89l-35.73,35.73a11.94,11.94,0,0,1-8.36,3.63,8.51,8.51,0,0,1-6.16-2.43L73.47,116.82A8.61,8.61,0,0,1,71,110.66a12,12,0,0,1,3.64-8.36L111,66a3.46,3.46,0,0,0-4.89-4.89Z" style="fill:#0895a8"/><path d="M100.92,60.28,149.59,109a3.46,3.46,0,0,0,4.89-4.89L105.81,55.39a3.46,3.46,0,0,0-4.89,4.89" style="fill:#0895a8"/><path d="M80.17,63.73,115,98.57a3.46,3.46,0,1,0,4.89-4.89L85.06,58.84a3.46,3.46,0,0,0-4.89,4.89" style="fill:#0895a8"/><path d="M151.15,124.83c2.76,3.93,6.34,8.46,6.34,11.68a9.49,9.49,0,1,1-19,0c0-2.94,3.65-7.61,6.42-11.64a3.8,3.8,0,0,1,5.28-1A4,4,0,0,1,151.15,124.83Z" style="fill:#0895a8"/></svg>