<svg id="Calque_1" data-name="Calque 1" xmlns="http://www.w3.org/2000/svg" viewBox="0 0 200 200"><path d="M142.53,78.09h-28l1.88-7.55a21.64,21.64,0,0,0,.66-5.22,18.37,18.37,0,0,0-.93-5.87,13.84,13.84,0,0,0-3.23-5.5,10,10,0,0,0-7.21-3,10.83,10.83,0,0,0-7.08,2.65,28.4,28.4,0,0,0-7.06,9.23L95,64.61l-3.47-1.73-7.6,15.21H71.62A20.13,20.13,0,0,0,51.49,98.22v21.64A20.13,20.13,0,0,0,71.62,140h62.52a20.11,20.11,0,0,0,19.91-17.26l3.84-26.94a15,15,0,0,0,.16-2.21A15.52,15.52,0,0,0,142.53,78.09Zm-83.3,41.77V98.22A12.41,12.41,0,0,1,71.62,85.83h6.95v46.43H71.62A12.41,12.41,0,0,1,59.23,119.86Zm91-25.15-3.84,26.93a12.37,12.37,0,0,1-12.25,10.62H86.31V85.83a3.86,3.86,0,0,0,3.46-2.14l8.68-17.35a20.84,20.84,0,0,1,5.08-6.75,3,3,0,0,1,2.13-.85,2.19,2.19,0,0,1,1.74.68,6.37,6.37,0,0,1,1.36,2.48,10.7,10.7,0,0,1,.53,3.42,13.83,13.83,0,0,1-.42,3.34L105.78,81a3.87,3.87,0,0,0,3.75,4.81h33a7.78,7.78,0,0,1,7.78,7.76A7.2,7.2,0,0,1,150.23,94.71Z" style="fill:#0895a8"/></svg>